<?xml version="1.0" encoding="UTF-8" standalone="no"?>
<!--
================================================================================
 *  BISMILLAAHIRRAHMAANIRRAHIIM - In the Name of Allah, Most Gracious, Most Merciful
================================================================================
FILENAME      : 13_sumatera_barat.svg
AUTHOR        : CAHYA DSN
CREATED DATE  : 2026-01-01 22:34:29
UPDATED DATE  : 2026-01-02 14:03:07
SOURCE CODE   : https://github.com/cahyadsn/wilayah_logo
================================================================================
This program is free software; you can redistribute it and/or modify it under the
terms of the MIT License.

THE SOFTWARE IS PROVIDED "AS IS", WITHOUT WARRANTY OF ANY KIND, EXPRESS OR
IMPLIED, INCLUDING BUT NOT LIMITED TO THE WARRANTIES OF MERCHANTABILITY,
FITNESS FOR A PARTICULAR PURPOSE AND NONINFRINGEMENT. IN NO EVENT SHALL THE
AUTHORS OR COPYRIGHT HOLDERS BE LIABLE FOR ANY CLAIM, DAMAGES OR OTHER
LIABILITY, WHETHER IN AN ACTION OF CONTRACT, TORT OR OTHERWISE, ARISING FROM,
OUT OF OR IN CONNECTION WITH THE SOFTWARE OR THE USE OR OTHER DEALINGS IN THE
SOFTWARE.

See the MIT License for more details

copyright (c) 2025 by cahya dsn; cahyadsn@gmail.com
================================================================================
-->
<svg
   xmlns:dc="http://purl.org/dc/elements/1.1/"
   xmlns:cc="http://creativecommons.org/ns#"
   xmlns:rdf="http://www.w3.org/1999/02/22-rdf-syntax-ns#"
   xmlns:svg="http://www.w3.org/2000/svg"
   xmlns="http://www.w3.org/2000/svg"
   id="ee0eca78-deda-11f0-9f69-0242ac110006"
   version="1.1"
   width="595.275590551pt"
   viewBox="0 0 595.275590551 841.88976378"
   height="841.88976378pt">
  <metadata id="author">cahya dsn</metadata>   
  <metadata
     id="metadata27">
    <rdf:RDF>
      <cc:Work
         rdf:about="">
        <dc:format>image/svg+xml</dc:format>
        <dc:type
           rdf:resource="http://purl.org/dc/dcmitype/StillImage" />
      </cc:Work>
    </rdf:RDF>
  </metadata>
  <defs>
    <style type="text/css">
     <![CDATA[
      path {fill-rule:evenodd;} 
      .fil_1 {fill:#ff0000;}
      .fil_2 {fill:#469951;}
      .fil_3 {fill:#ffff00;}
      .fil_4 {fill:#000000;}
      .fil_5 {fill:#ffffff;}
     ]]>    
    </style>      
  </defs>
  <g id="main">
    <g id="g_symbol">
      <path id="p_red" d="M 87.4499,61.5196 L 504.645,61.5196 500.3252,125.4282 91.7696,125.4282 87.4499,61.5196 Z M 196.2346,516.0375 L 196.2346,497.844 190.4485,497.7299 190.4485,493.0956 207.1934,493.4259 207.1934,498.0602 201.4073,497.9461 201.4073,516.1395 196.2346,516.0375 Z M 210.1744,491.7028 L 215.1525,490.5073 215.1525,504.7647 C 215.1525,506.3359 215.4089,507.3906 215.9218,507.9339 216.4396,508.4763 217.2913,508.6048 218.4775,508.3201 219.6497,508.0384 220.4921,507.5028 221.0007,506.7141 221.5093,505.9254 221.7654,504.7478 221.7654,503.1766 L 221.7654,488.9192 226.7982,487.7102 226.7982,501.2693 C 226.7982,503.1791 226.6383,504.741 226.3179,505.9559 225.9926,507.1713 225.4613,508.2617 224.7193,509.2228 223.9408,510.2243 223.0338,511.056 222.0037,511.7106 220.9687,512.3668 219.8055,512.8523 218.5046,513.1647 217.2089,513.4762 216.0457,513.549 215.0104,513.3904 213.9801,513.2305 213.0733,512.8345 212.2951,512.2069 211.5439,511.5938 211.0034,510.7553 210.6695,509.693 210.3395,508.6294 210.1744,507.1504 210.1744,505.2619 L 210.1744,491.7028 Z M 236.7734,499.6203 L 241.1116,498.6674 238.9011,491.2809 236.7734,499.6203 Z M 236.3045,485.8096 L 241.852,484.5911 248.8514,505.8815 243.4005,507.0788 242.1872,503.1603 235.5647,504.615 234.4292,509.0491 229.167,510.2049 236.3045,485.8096 Z M 251.508,505.4479 L 251.508,482.6202 256.6543,481.8029 256.6543,489.9077 263.6645,488.7946 263.6645,480.6898 268.8107,479.8725 268.8107,502.7003 263.6645,503.5176 263.6645,493.8945 256.6543,495.0075 256.6543,504.6307 251.508,505.4479 Z M 281.1864,494.0138 L 286.151,493.8179 C 286.1885,495.1176 286.5252,496.0831 287.1659,496.7137 287.807,497.3444 288.743,497.6355 289.9784,497.5866 291.0266,497.5454 291.8408,497.3173 292.4164,496.9034 292.9914,496.4893 293.282,495.922 293.282,495.2077 293.282,494.8479 293.2116,494.5282 293.076,494.2481 292.9358,493.9732 292.7436,493.7641 292.4958,493.6306 292.1213,493.4179 291.2044,493.0944 289.7398,492.6707 288.2799,492.2418 287.0448,491.8196 286.0387,491.4045 284.588,490.8108 283.4839,489.9923 282.7303,488.9533 281.9769,487.9143 281.5981,486.6807 281.5981,485.2577 281.5981,483.078 282.3235,481.3143 283.7692,479.9716 285.2199,478.6288 287.1801,477.9059 289.6602,477.8081 292.0884,477.7125 294.0162,478.3133 295.4435,479.6115 296.8706,480.9097 297.5821,482.7066 297.5821,485.0133 L 292.7156,485.2051 C 292.608,484.1462 292.2759,483.371 291.7234,482.8901 291.1671,482.4043 290.3714,482.1817 289.3281,482.2229 288.4998,482.2555 287.8212,482.4781 287.3018,482.8849 286.7825,483.2917 286.5205,483.7938 286.5205,484.3968 286.5205,485.4071 287.7603,486.3161 290.2358,487.1176 290.685,487.264 291.0266,487.3722 291.2649,487.4473 L 291.4663,487.5186 C 294.0255,488.354 295.6262,489.0529 296.267,489.6039 296.9173,490.1817 297.4089,490.8658 297.7502,491.6619 298.0872,492.4631 298.2557,493.3558 298.2557,494.3504 298.2557,496.6199 297.4834,498.4227 295.9444,499.7479 294.4046,501.0728 292.2476,501.7929 289.468,501.9027 286.8434,502.0063 284.8454,501.4077 283.4744,500.1024 282.1036,498.7969 281.3405,496.7691 281.1864,494.0138 Z M 307.9438,492.3789 L 312.3524,492.7273 310.1059,484.6778 307.9438,492.3789 Z M 307.4672,478.4277 L 313.1045,478.8732 320.2177,502.2628 314.6781,501.8252 313.4451,497.543 306.7154,497.0114 305.5614,501.1048 300.2138,500.6823 307.4672,478.4277 Z M 323.1166,502.5825 L 323.1166,479.7548 328.1564,480.5551 328.1564,489.2632 335.2733,481.6851 341.4259,482.6623 333.3307,490.9682 341.6156,505.5202 335.5048,504.5498 329.8811,494.5149 328.1564,496.2091 328.1564,503.3829 323.1166,502.5825 Z M 349.6381,498.2001 L 353.9766,499.1529 351.7658,490.7954 349.6381,498.2001 Z M 349.1691,484.1834 L 354.7167,485.4019 361.7161,509.7671 356.2651,508.5698 355.0518,504.1187 348.4294,502.664 347.2941,506.5994 342.0317,505.4436 349.1691,484.1834 Z M 367.5615,511.104 L 367.5615,492.9105 361.923,491.4396 361.923,486.8052 378.2409,491.0623 378.2409,495.6966 372.6023,494.2256 372.6023,512.4191 367.5615,511.104 Z M 385.6695,504.0757 C 385.6695,506.4036 386.0849,508.2192 386.921,509.5232 387.757,510.8322 388.9528,511.5458 390.5126,511.6688 392.082,511.793 393.287,511.2691 394.1322,510.093 394.9778,508.9218 395.3978,507.1723 395.3978,504.8444 395.3978,502.5327 394.9778,500.7165 394.1322,499.4066 393.287,498.0964 392.082,497.3769 390.5126,497.2527 388.9528,497.1297 387.757,497.6543 386.921,498.8316 386.0849,500.0034 385.6695,501.7533 385.6695,504.0757 Z M 380.4292,503.6615 C 380.4292,499.953 381.335,497.0938 383.1473,495.0841 384.955,493.0735 387.4117,492.1886 390.5126,492.4333 393.6231,492.6793 396.094,493.9538 397.9247,496.2568 399.7511,498.5647 400.6665,501.563 400.6665,505.2607 400.6665,508.9639 399.7511,511.817 397.9247,513.8365 396.094,515.8505 393.6231,516.7345 390.5126,516.4885 387.4117,516.2438 384.955,514.9702 383.1473,512.6743 381.335,510.3777 380.4292,507.3755 380.4292,503.6615 Z M 405.9972,377.3988 C 390.884,378.8566 377.9672,384.0754 370.3233,391.2981 L 221.7725,391.2981 C 214.1286,384.0754 201.2114,378.8566 186.0977,377.3988 L 181.3905,339.6873 410.7044,339.6873 405.9972,377.3988 Z M 224.8645,386.7987 C 217.1311,379.9893 204.614,375.097 190.0611,373.6934 L 189.4175,368.5364 233.0738,368.5364 235.3184,386.7987 224.8645,386.7987 Z M 237.7536,368.5364 L 354.3409,368.5364 352.0963,386.7987 239.9982,386.7987 237.7536,368.5364 Z M 359.0207,368.5364 L 402.6771,368.5364 402.0335,373.6934 C 387.4809,375.097 374.9632,379.9893 367.2301,386.7987 L 356.7761,386.7987 359.0207,368.5364 Z M 188.8558,364.0371 L 186.3781,344.1866 230.0808,344.1866 232.5207,364.0371 188.8558,364.0371 Z M 234.7607,344.1866 L 357.3339,344.1866 354.8941,364.0371 237.2005,364.0371 234.7607,344.1866 Z M 362.0137,344.1866 L 405.7165,344.1866 403.2388,364.0371 359.5739,364.0371 362.0137,344.1866 Z M 100.7117,99.098 L 108.0082,99.098 C 108.0632,101.0105 108.5582,102.4485 109.5003,103.4125 110.4425,104.3764 111.8178,104.8586 113.6331,104.8586 115.1736,104.8586 116.37,104.5708 117.2159,103.9955 118.0618,103.4202 118.4882,102.6041 118.4882,101.5547 118.4882,101.0258 118.3849,100.5517 118.1857,100.132 117.9793,99.72 117.6974,99.4011 117.333,99.1914 116.7826,98.8572 115.435,98.3283 113.2823,97.6211 111.137,96.9059 109.3217,96.2141 107.843,95.5454 105.7113,94.5894 104.0884,93.3223 102.9812,91.752 101.874,90.1817 101.3171,88.347 101.3171,86.2558 101.3171,83.0532 102.3828,80.5032 104.5078,78.6141 106.6396,76.7253 109.5209,75.7767 113.1658,75.7767 116.7347,75.7767 119.5678,76.772 121.6654,78.762 123.7627,80.752 124.8078,83.4341 124.8078,86.8234 L 117.6562,86.8234 C 117.4978,85.2608 117.0096,84.1026 116.1981,83.364 115.3796,82.6178 114.2106,82.2445 112.6775,82.2445 111.4602,82.2445 110.4631,82.5323 109.6996,83.0996 108.9364,83.6672 108.5512,84.3901 108.5512,85.2762 108.5512,86.761 110.3736,88.168 114.0113,89.4896 114.6715,89.7306 115.1736,89.9096 115.5241,90.0338 L 115.8202,90.1504 C 119.5816,91.5263 121.9335,92.6458 122.8753,93.4933 123.8313,94.3794 124.5532,95.4135 125.0553,96.6028 125.5504,97.7998 125.7979,99.1213 125.7979,100.5828 125.7979,103.9177 124.6636,106.522 122.4012,108.3801 120.1385,110.2379 116.9684,111.1708 112.8835,111.1708 109.0259,111.1708 106.0895,110.1758 104.0746,108.1778 102.06,106.1801 100.9389,103.156 100.7117,99.098 Z M 130.0894,76.6942 L 137.5641,76.6942 137.5641,97.6445 C 137.5641,99.9531 137.9494,101.5934 138.7193,102.5731 139.4966,103.5524 140.7758,104.0422 142.5567,104.0422 144.317,104.0422 145.5822,103.5524 146.3457,102.5731 147.1092,101.5934 147.4938,99.9531 147.4938,97.6445 L 147.4938,76.6942 155.0516,76.6942 155.0516,96.6182 C 155.0516,99.4245 154.8109,101.6636 154.3294,103.3347 153.8414,105.0061 153.0435,106.4208 151.9295,107.5714 150.7605,108.7687 149.399,109.6703 147.8517,110.2689 146.2974,110.8676 144.551,111.1708 142.5979,111.1708 140.6515,111.1708 138.9051,110.8676 137.3511,110.2689 135.8035,109.6703 134.4423,108.7687 133.2733,107.5714 132.1452,106.4055 131.334,104.9828 130.8319,103.3036 130.3369,101.6245 130.0894,99.3934 130.0894,96.6182 L 130.0894,76.6942 Z M 160.6905,110.2379 L 160.6905,76.6942 171.1496,76.6942 175.0558,93.0191 C 175.4064,94.4649 175.7228,95.8642 176.0047,97.2245 176.2867,98.5851 176.5342,99.9066 176.7473,101.1971 177.0019,99.8288 177.2909,98.3984 177.6141,96.9059 177.9372,95.4055 178.3083,93.8041 178.721,92.0862 L 182.407,76.6942 192.8456,76.6942 192.8456,110.2379 185.9141,110.2379 185.9141,95.3667 C 185.9141,94.3173 185.9344,92.8479 185.9827,90.959 186.031,89.0699 186.0995,86.8856 186.1961,84.4134 L 180.4951,110.2379 172.9585,110.2379 167.3815,84.4134 C 167.4777,87.3907 167.5463,90.0649 167.6017,92.4438 167.6564,94.8148 167.6841,96.6726 167.6841,98.0098 L 167.6841,110.2379 160.6905,110.2379 Z M 207.1836,97.139 L 213.6754,97.139 210.3675,85.5717 207.1836,97.139 Z M 206.4822,76.6942 L 214.7823,76.6942 225.2556,110.2379 217.0997,110.2379 215.2844,104.0889 205.3753,104.0889 203.6765,110.2379 195.8029,110.2379 206.4822,76.6942 Z M 232.6483,110.2379 L 232.6483,83.5039 224.1487,83.5039 224.1487,76.6942 248.7466,76.6942 248.7466,83.5039 240.247,83.5039 240.247,110.2379 232.6483,110.2379 Z M 252.0886,110.2379 L 252.0886,76.6942 274.6371,76.6942 274.6371,83.574 259.6805,83.574 259.6805,89.4976 273.3445,89.4976 273.3445,96.2141 259.6805,96.2141 259.6805,103.3814 275.1187,103.3814 275.1187,110.2379 252.0886,110.2379 Z M 287.1666,91.0599 L 292.826,91.0599 C 294.3526,91.0599 295.4804,90.7413 296.1956,90.1039 296.9176,89.4665 297.2755,88.4482 297.2755,87.0565 297.2755,85.8205 296.9244,84.9109 296.2301,84.3123 295.5287,83.7139 294.4627,83.4108 293.0255,83.4108 L 287.1666,83.4108 287.1666,91.0599 Z M 279.6091,110.2379 L 279.6091,76.6942 293.8093,76.6942 C 297.571,76.6942 300.3423,77.4558 302.1235,78.9717 303.9044,80.4879 304.7915,82.8431 304.7915,86.0305 304.7915,87.9116 304.4133,89.5286 303.6498,90.8655 302.8934,92.2105 301.7176,93.3377 300.1154,94.2472 301.4151,94.8148 302.3363,95.5767 302.8728,96.5407 303.4091,97.5046 303.7187,99.1991 303.8014,101.6322 303.8423,102.3086 303.8838,103.2338 303.925,104.3841 304.0142,107.0896 304.4268,108.6519 305.1559,109.0796 L 305.1559,110.2379 297.1928,110.2379 C 296.8075,109.0562 296.5806,107.4315 296.5259,105.3637 296.4776,103.3036 296.4226,102.0055 296.3675,101.4692 296.2436,100.1631 295.8586,99.2068 295.1985,98.6005 294.5454,97.9941 293.555,97.6909 292.2415,97.6909 L 287.1666,97.6909 287.1666,110.2379 279.6091,110.2379 Z M 318.3866,97.139 L 324.8784,97.139 321.5706,85.5717 318.3866,97.139 Z M 317.685,76.6942 L 325.9853,76.6942 336.4586,110.2379 328.3028,110.2379 326.4874,104.0889 316.578,104.0889 314.8795,110.2379 307.0056,110.2379 317.685,76.6942 Z M 358.8286,89.8161 L 364.928,89.8161 C 366.2206,89.8161 367.1837,89.544 367.8094,89.0078 368.4419,88.4712 368.7583,87.6475 368.7583,86.559 368.7583,85.5407 368.4625,84.771 367.8712,84.2425 367.2799,83.7216 366.4067,83.4572 365.2512,83.4572 L 358.8286,83.4572 358.8286,89.8161 Z M 358.8286,103.5681 L 364.5704,103.5681 C 366.379,103.5681 367.6513,103.2803 368.3733,102.713 369.0952,102.1454 369.4596,101.1814 369.4596,99.8365 369.4596,98.6161 369.1158,97.7066 368.4216,97.0926 367.7337,96.4782 366.7021,96.1674 365.3339,96.1674 L 358.8286,96.1674 358.8286,103.5681 Z M 351.5527,110.2379 L 351.5527,76.6942 365.9593,76.6942 C 369.4116,76.6942 371.956,77.3937 373.5995,78.8007 375.2433,80.2078 376.0682,82.369 376.0682,85.2842 376.0682,87.0876 375.7039,88.5801 374.9678,89.754 374.239,90.9357 373.118,91.8452 371.619,92.4826 373.3381,92.9801 374.6517,93.8819 375.5661,95.1801 376.4806,96.4782 376.9347,98.0876 376.9347,100.0155 376.9347,101.8966 376.5565,103.5991 375.8001,105.115 375.0366,106.6309 373.9706,107.8125 372.6023,108.6442 371.6808,109.2195 370.5598,109.6315 369.2398,109.8726 367.9262,110.1133 365.8978,110.2379 363.1609,110.2379 L 351.5527,110.2379 Z M 390.0898,97.139 L 396.5813,97.139 393.2738,85.5717 390.0898,97.139 Z M 389.3882,76.6942 L 397.6885,76.6942 408.1615,110.2379 400.006,110.2379 398.1906,104.0889 388.2812,104.0889 386.5827,110.2379 378.7088,110.2379 389.3882,76.6942 Z M 418.6007,91.0599 L 424.2598,91.0599 C 425.7868,91.0599 426.9143,90.7413 427.6295,90.1039 428.3518,89.4665 428.7094,88.4482 428.7094,87.0565 428.7094,85.8205 428.3585,84.9109 427.6639,84.3123 426.9626,83.7139 425.8965,83.4108 424.4594,83.4108 L 418.6007,83.4108 418.6007,91.0599 Z M 411.0429,110.2379 L 411.0429,76.6942 425.2432,76.6942 C 429.0048,76.6942 431.7764,77.4558 433.5574,78.9717 435.3383,80.4879 436.2253,82.8431 436.2253,86.0305 436.2253,87.9116 435.8471,89.5286 435.0837,90.8655 434.3273,92.2105 433.1515,93.3377 431.5492,94.2472 432.8489,94.8148 433.7704,95.5767 434.3067,96.5407 434.8429,97.5046 435.1526,99.1991 435.2353,101.6322 435.2765,102.3086 435.3177,103.2338 435.3592,104.3841 435.4483,107.0896 435.861,108.6519 436.5897,109.0796 L 436.5897,110.2379 428.6266,110.2379 C 428.2414,109.0562 428.0145,107.4315 427.9597,105.3637 427.9114,103.3036 427.8567,102.0055 427.8014,101.4692 427.6775,100.1631 427.2925,99.2068 426.6323,98.6005 425.9793,97.9941 424.9889,97.6909 423.6753,97.6909 L 418.6007,97.6909 418.6007,110.2379 411.0429,110.2379 Z M 449.8205,97.139 L 456.3123,97.139 453.0044,85.5717 449.8205,97.139 Z M 449.1191,76.6942 L 457.4192,76.6942 467.8925,110.2379 459.7366,110.2379 457.9213,104.0889 448.0119,104.0889 446.3134,110.2379 438.4398,110.2379 449.1191,76.6942 Z M 475.2849,110.2379 L 475.2849,83.5039 466.7853,83.5039 466.7853,76.6942 491.3832,76.6942 491.3832,83.5039 482.8836,83.5039 482.8836,110.2379 475.2849,110.2379 Z" class="fil_1" />
      <path id="p_green" d="M 499.4941,137.7273 L 481.0445,410.6851 C 476.8484,412.4897 472.5898,413.9312 468.0877,413.9312 456.0349,413.9312 445.7326,403.6079 433.6797,403.6079 421.6269,403.6079 411.3246,413.9312 399.2717,413.9312 387.2189,413.9312 376.9163,403.6079 364.8634,403.6079 352.8106,403.6079 342.5083,413.9312 330.4554,413.9312 318.4026,413.9312 308.1003,403.6079 296.0474,403.6079 283.9946,403.6079 273.6923,413.9312 261.6394,413.9312 249.5866,413.9312 239.2843,403.6079 227.2314,403.6079 215.1786,403.6079 204.876,413.9312 192.8231,413.9312 180.7703,413.9312 170.468,403.6079 158.4151,403.6079 146.3623,403.6079 136.06,413.9312 124.0071,413.9312 119.5047,413.9312 115.2468,412.4897 111.0503,410.6848 L 92.6007,137.7273 499.4941,137.7273 Z M 372.3099,470.8841 C 371.9732,464.867 383.254,462.7482 391.7828,463.0049 401.5701,463.3007 414.8172,467.7081 414.6201,477.0723 L 414.578,479.0651 C 414.2994,492.3011 413.8397,500.1655 413.4339,513.9377 413.0846,525.7925 400.0884,526.012 390.12,524.0986 L 382.5861,522.6525 C 353.8539,517.1373 325.7289,509.8476 296.0474,509.8476 266.366,509.8476 238.241,517.1373 209.5087,522.6525 L 201.9749,524.0986 C 192.0065,526.012 179.0103,525.7925 178.661,513.9377 178.2551,500.1655 177.7955,492.3011 177.5169,479.0651 L 177.4748,477.0723 C 177.2777,467.7081 190.5247,463.3007 200.3121,463.0049 208.8409,462.7482 220.1216,464.867 219.7849,470.8841 219.6558,473.2157 218.9787,476.0552 218.8007,478.4102 243.5361,473.0927 270.6867,467.1851 296.0474,467.1851 321.4082,467.1851 348.5585,473.0927 373.2942,478.4102 373.1161,476.0552 372.4391,473.2157 372.3099,470.8841 Z M 296.0474,142.3844 L 302.9921,163.6028 325.3187,163.6514 307.2851,176.8126 314.1382,198.0612 296.0477,184.9771 277.9567,198.0612 284.8097,176.8136 266.7762,163.6514 289.1021,163.6034 296.0474,142.3844 Z M 219.2336,396.4624 C 211.8216,388.9077 198.1714,383.4226 182.0725,382.074 L 177.5144,345.5558 C 172.2925,341.157 161.4709,337.6094 152.6801,335.3894 L 152.6804,283.7983 141.5048,184.5525 C 153.1859,221.7228 167.8784,245.9441 196.4262,259.4159 L 194.0724,186.3844 C 203.8834,216.5532 213.0041,246.1701 266.4742,262.0562 L 266.4742,257.0065 C 278.7097,236.9864 288.7387,214.5386 296.0471,190.298 303.3559,214.5386 313.3849,236.9864 325.6203,257.0065 L 325.6203,262.0559 C 379.0898,246.1701 388.2115,216.5529 398.0225,186.3844 L 395.6687,259.4159 C 424.2165,245.9441 438.909,221.7228 450.5901,184.5525 L 439.4145,283.7983 439.4148,335.3894 C 430.624,337.6094 419.8023,341.157 414.5804,345.5558 L 410.0224,382.074 C 393.9235,383.4226 380.2733,388.9077 372.8612,396.4624 L 219.2336,396.4624 Z M 480.3985,420.2419 L 479.7531,429.7912 C 475.9739,431.3338 472.1286,432.4958 468.0877,432.4958 456.0349,432.4958 445.7326,422.1725 433.6797,422.1725 421.6269,422.1725 411.3246,432.4958 399.2717,432.4958 387.2189,432.4958 376.9163,422.1725 364.8634,422.1725 352.8106,422.1725 342.5083,432.4958 330.4554,432.4958 318.4026,432.4958 308.1003,422.1725 296.0474,422.1725 283.9946,422.1725 273.6923,432.4958 261.6394,432.4958 249.5866,432.4958 239.2843,422.1725 227.2314,422.1725 215.1786,422.1725 204.876,432.4958 192.8231,432.4958 180.7703,432.4958 170.468,422.1725 158.4151,422.1725 146.3623,422.1725 136.06,432.4958 124.0071,432.4958 119.9657,432.4958 116.1216,431.3338 112.3417,429.7906 L 111.6963,420.2409 C 115.6843,421.9151 119.7354,423.2136 124.0071,423.2136 136.06,423.2136 146.3623,412.8904 158.4151,412.8904 170.468,412.8904 180.7703,423.2136 192.8231,423.2136 204.876,423.2136 215.1786,412.8904 227.2314,412.8904 239.2843,412.8904 249.5866,423.2136 261.6394,423.2136 273.6923,423.2136 283.9946,412.8904 296.0474,412.8904 308.1003,412.8904 318.4026,423.2136 330.4554,423.2136 342.5083,423.2136 352.8106,412.8904 364.8634,412.8904 376.9163,412.8904 387.2189,423.2136 399.2717,423.2136 411.3246,423.2136 421.6269,412.8904 433.6797,412.8904 445.7326,412.8904 456.0349,423.2136 468.0877,423.2136 472.3589,423.2136 476.4112,421.9161 480.3985,420.2419 Z M 479.108,439.3335 L 478.4639,448.8662 C 475.0988,450.1481 471.6702,451.061 468.0877,451.061 456.0349,451.061 445.7326,440.7371 433.6797,440.7371 421.6269,440.7371 411.3246,451.061 399.2717,451.061 387.2189,451.061 376.9163,440.7371 364.8634,440.7371 352.8106,440.7371 342.5083,451.061 330.4554,451.061 318.4026,451.061 308.1003,440.7371 296.0474,440.7371 283.9946,440.7371 273.6923,451.061 261.6394,451.061 249.5866,451.061 239.2843,440.7371 227.2314,440.7371 215.1786,440.7371 204.876,451.061 192.8231,451.061 180.7703,451.061 170.468,440.7371 158.4151,440.7371 146.3623,440.7371 136.06,451.061 124.0071,451.061 120.4241,451.061 116.9966,450.1481 113.631,448.8656 L 112.9868,439.3328 C 116.5594,440.7448 120.1953,441.7785 124.0071,441.7785 136.06,441.7785 146.3623,431.4553 158.4151,431.4553 170.468,431.4553 180.7703,441.7785 192.8231,441.7785 204.876,441.7785 215.1786,431.4553 227.2314,431.4553 239.2843,431.4553 249.5866,441.7785 261.6394,441.7785 273.6923,441.7785 283.9946,431.4553 296.0474,431.4553 308.1003,431.4553 318.4026,441.7785 330.4554,441.7785 342.5083,441.7785 352.8106,431.4553 364.8634,431.4553 376.9163,431.4553 387.2189,441.7785 399.2717,441.7785 411.3246,441.7785 421.6269,431.4553 433.6797,431.4553 445.7326,431.4553 456.0349,441.7785 468.0877,441.7785 471.8992,441.7785 475.5361,440.7454 479.108,439.3335 Z M 477.82,458.3878 L 474.9998,500.1138 296.0474,582.6743 117.095,500.1138 114.2745,458.3872 C 117.4336,459.5418 120.6523,460.3428 124.0071,460.3428 136.06,460.3428 146.3623,450.0192 158.4151,450.0192 170.468,450.0192 180.7703,460.3428 192.8231,460.3428 204.876,460.3428 215.1786,450.0192 227.2314,450.0192 239.2843,450.0192 249.5866,460.3428 261.6394,460.3428 273.6923,460.3428 283.9946,450.0192 296.0474,450.0192 308.1003,450.0192 318.4026,460.3428 330.4554,460.3428 342.5083,460.3428 352.8106,450.0192 364.8634,450.0192 376.9163,450.0192 387.2189,460.3428 399.2717,460.3428 411.3246,460.3428 421.6269,450.0192 433.6797,450.0192 445.7326,450.0192 456.0349,460.3428 468.0877,460.3428 471.442,460.3428 474.6613,459.5421 477.82,458.3878 Z" class="fil_2" />
      <path id="p_yellow" d="M 100.7117,99.098 L 108.0082,99.098 C 108.0632,101.0105 108.5582,102.4485 109.5003,103.4125 110.4425,104.3764 111.8178,104.8586 113.6331,104.8586 115.1736,104.8586 116.37,104.5708 117.2159,103.9955 118.0618,103.4202 118.4882,102.6041 118.4882,101.5547 118.4882,101.0258 118.3849,100.5517 118.1857,100.132 117.9793,99.72 117.6974,99.4011 117.333,99.1914 116.7826,98.8572 115.435,98.3283 113.2823,97.6211 111.137,96.9059 109.3217,96.2141 107.843,95.5454 105.7113,94.5894 104.0884,93.3223 102.9812,91.752 101.874,90.1817 101.3171,88.347 101.3171,86.2558 101.3171,83.0532 102.3828,80.5032 104.5078,78.6141 106.6396,76.7253 109.5209,75.7767 113.1658,75.7767 116.7347,75.7767 119.5678,76.772 121.6654,78.762 123.7627,80.752 124.8078,83.4341 124.8078,86.8234 L 117.6562,86.8234 C 117.4978,85.2608 117.0096,84.1026 116.1981,83.364 115.3796,82.6178 114.2106,82.2445 112.6775,82.2445 111.4602,82.2445 110.4631,82.5323 109.6996,83.0996 108.9364,83.6672 108.5512,84.3901 108.5512,85.2762 108.5512,86.761 110.3736,88.168 114.0113,89.4896 114.6715,89.7306 115.1736,89.9096 115.5241,90.0338 L 115.8202,90.1504 C 119.5816,91.5263 121.9335,92.6458 122.8753,93.4933 123.8313,94.3794 124.5532,95.4135 125.0553,96.6028 125.5504,97.7998 125.7979,99.1213 125.7979,100.5828 125.7979,103.9177 124.6636,106.522 122.4012,108.3801 120.1385,110.2379 116.9684,111.1708 112.8835,111.1708 109.0259,111.1708 106.0895,110.1758 104.0746,108.1778 102.06,106.1801 100.9389,103.156 100.7117,99.098 Z M 196.2346,516.0375 L 196.2346,497.844 190.4485,497.7299 190.4485,493.0956 207.1934,493.4259 207.1934,498.0602 201.4073,497.9461 201.4073,516.1395 196.2346,516.0375 Z M 210.1744,491.7028 L 215.1525,490.5073 215.1525,504.7647 C 215.1525,506.3359 215.4089,507.3906 215.9218,507.9339 216.4396,508.4763 217.2913,508.6048 218.4775,508.3201 219.6497,508.0384 220.4921,507.5028 221.0007,506.7141 221.5093,505.9254 221.7654,504.7478 221.7654,503.1766 L 221.7654,488.9192 226.7982,487.7102 226.7982,501.2693 C 226.7982,503.1791 226.6383,504.741 226.3179,505.9559 225.9926,507.1713 225.4613,508.2617 224.7193,509.2228 223.9408,510.2243 223.0338,511.056 222.0037,511.7106 220.9687,512.3668 219.8055,512.8523 218.5046,513.1647 217.2089,513.4762 216.0457,513.549 215.0104,513.3904 213.9801,513.2305 213.0733,512.8345 212.2951,512.2069 211.5439,511.5938 211.0034,510.7553 210.6695,509.693 210.3395,508.6294 210.1744,507.1504 210.1744,505.2619 L 210.1744,491.7028 Z M 236.7734,499.6203 L 241.1116,498.6674 238.9011,491.2809 236.7734,499.6203 Z M 236.3045,485.8096 L 241.852,484.5911 248.8514,505.8815 243.4005,507.0788 242.1872,503.1603 235.5647,504.615 234.4292,509.0491 229.167,510.2049 236.3045,485.8096 Z M 251.508,505.4479 L 251.508,482.6202 256.6543,481.8029 256.6543,489.9077 263.6645,488.7946 263.6645,480.6898 268.8107,479.8725 268.8107,502.7003 263.6645,503.5176 263.6645,493.8945 256.6543,495.0075 256.6543,504.6307 251.508,505.4479 Z M 281.1864,494.0138 L 286.151,493.8179 C 286.1885,495.1176 286.5252,496.0831 287.1659,496.7137 287.807,497.3444 288.743,497.6355 289.9784,497.5866 291.0266,497.5454 291.8408,497.3173 292.4164,496.9034 292.9914,496.4893 293.282,495.922 293.282,495.2077 293.282,494.8479 293.2116,494.5282 293.076,494.2481 292.9358,493.9732 292.7436,493.7641 292.4958,493.6306 292.1213,493.4179 291.2044,493.0944 289.7398,492.6707 288.2799,492.2418 287.0448,491.8196 286.0387,491.4045 284.588,490.8108 283.4839,489.9923 282.7303,488.9533 281.9769,487.9143 281.5981,486.6807 281.5981,485.2577 281.5981,483.078 282.3235,481.3143 283.7692,479.9716 285.2199,478.6288 287.1801,477.9059 289.6602,477.8081 292.0884,477.7125 294.0162,478.3133 295.4435,479.6115 296.8706,480.9097 297.5821,482.7066 297.5821,485.0133 L 292.7156,485.2051 C 292.608,484.1462 292.2759,483.371 291.7234,482.8901 291.1671,482.4043 290.3714,482.1817 289.3281,482.2229 288.4998,482.2555 287.8212,482.4781 287.3018,482.8849 286.7825,483.2917 286.5205,483.7938 286.5205,484.3968 286.5205,485.4071 287.7603,486.3161 290.2358,487.1176 290.685,487.264 291.0266,487.3722 291.2649,487.4473 L 291.4663,487.5186 C 294.0255,488.354 295.6262,489.0529 296.267,489.6039 296.9173,490.1817 297.4089,490.8658 297.7502,491.6619 298.0872,492.4631 298.2557,493.3558 298.2557,494.3504 298.2557,496.6199 297.4834,498.4227 295.9444,499.7479 294.4046,501.0728 292.2476,501.7929 289.468,501.9027 286.8434,502.0063 284.8454,501.4077 283.4744,500.1024 282.1036,498.7969 281.3405,496.7691 281.1864,494.0138 Z M 307.9438,492.3789 L 312.3524,492.7273 310.1059,484.6778 307.9438,492.3789 Z M 307.4672,478.4277 L 313.1045,478.8732 320.2177,502.2628 314.6781,501.8252 313.4451,497.543 306.7154,497.0114 305.5614,501.1048 300.2138,500.6823 307.4672,478.4277 Z M 323.1166,502.5825 L 323.1166,479.7548 328.1564,480.5551 328.1564,489.2632 335.2733,481.6851 341.4259,482.6623 333.3307,490.9682 341.6156,505.5202 335.5048,504.5498 329.8811,494.5149 328.1564,496.2091 328.1564,503.3829 323.1166,502.5825 Z M 349.6381,498.2001 L 353.9766,499.1529 351.7658,490.7954 349.6381,498.2001 Z M 349.1691,484.1834 L 354.7167,485.4019 361.7161,509.7671 356.2651,508.5698 355.0518,504.1187 348.4294,502.664 347.2941,506.5994 342.0317,505.4436 349.1691,484.1834 Z M 367.5615,511.104 L 367.5615,492.9105 361.923,491.4396 361.923,486.8052 378.2409,491.0623 378.2409,495.6966 372.6023,494.2256 372.6023,512.4191 367.5615,511.104 Z M 385.6695,504.0757 C 385.6695,506.4036 386.0849,508.2192 386.921,509.5232 387.757,510.8322 388.9528,511.5458 390.5126,511.6688 392.082,511.793 393.287,511.2691 394.1322,510.093 394.9778,508.9218 395.3978,507.1723 395.3978,504.8444 395.3978,502.5327 394.9778,500.7165 394.1322,499.4066 393.287,498.0964 392.082,497.3769 390.5126,497.2527 388.9528,497.1297 387.757,497.6543 386.921,498.8316 386.0849,500.0034 385.6695,501.7533 385.6695,504.0757 Z M 380.4292,503.6615 C 380.4292,499.953 381.335,497.0938 383.1473,495.0841 384.955,493.0735 387.4117,492.1886 390.5126,492.4333 393.6231,492.6793 396.094,493.9538 397.9247,496.2568 399.7511,498.5647 400.6665,501.563 400.6665,505.2607 400.6665,508.9639 399.7511,511.817 397.9247,513.8365 396.094,515.8505 393.6231,516.7345 390.5126,516.4885 387.4117,516.2438 384.955,514.9702 383.1473,512.6743 381.335,510.3777 380.4292,507.3755 380.4292,503.6615 Z M 296.0474,150.1122 L 301.2484,166.003 317.9691,166.0392 304.4634,175.8964 309.5958,191.8096 296.0477,182.0109 282.4993,191.8096 287.6315,175.8967 274.1258,166.0392 290.8461,166.0033 296.0474,150.1122 Z M 395.9165,483.7492 C 404.8712,483.1195 411.727,479.9992 410.2911,474.3865 408.8546,468.7738 400.2772,465.6028 390.7518,465.5838 381.2271,465.5647 374.7015,468.5592 375.8339,472.1761 376.5485,474.4573 384.1638,474.9575 388.1733,474.6891 394.2875,474.2801 396.2997,472.49 395.3548,471.4237 394.4093,470.357 390.2958,468.8092 387.1359,468.95 383.9763,469.0918 381.6161,470.012 381.8786,470.7952 382.1412,471.5783 385.7138,471.6226 388.7566,471.4959 388.6502,472.3267 388.7649,473.0822 388.8347,473.882 387.0953,474.4127 382.2402,474.0529 380.1279,473.5084 380.1137,473.4752 379.8487,471.1626 379.7887,470.8093 379.5289,469.2827 382.9757,468.0214 386.7429,467.9184 390.8312,467.8065 398.3871,469.5293 398.1897,473.0321 L 397.6858,481.9865 C 392.9706,482.6432 379.7205,481.3395 375.333,479.4562 375.1246,478.2408 374.0484,472.1429 374.0287,471.8692 373.6475,466.6842 382.3073,463.6516 391.3081,464.0688 402.0775,464.5685 411.926,469.8337 412.9929,475.6616 413.1381,476.4599 413.1098,477.2282 412.9281,477.9591 L 411.7332,512.6328 C 411.3504,523.7505 399.0045,523.773 389.656,521.9789 382.9425,520.6908 375.4813,518.9198 368.0092,517.2111 344.8589,511.916 319.8333,507.8988 296.0474,507.8988 272.2616,507.8988 247.2359,511.9157 224.0859,517.2111 216.6136,518.9198 209.1517,520.6908 202.4389,521.9789 193.0903,523.773 180.7445,523.7505 180.3617,512.6328 L 179.1668,477.9591 C 178.9851,477.2282 178.9568,476.4599 179.1019,475.6616 180.1689,469.8337 190.0174,464.5685 200.7868,464.0688 209.7876,463.6516 218.4474,466.6842 218.0661,471.8692 218.0465,472.1429 216.9703,478.2408 216.7618,479.4562 212.3744,481.3395 199.1243,482.6432 194.4091,481.9865 L 193.9052,473.0321 C 193.7078,469.5293 201.2637,467.8065 205.3519,467.9184 209.1192,468.0214 212.566,469.2827 212.3062,470.8093 212.2462,471.1626 211.9812,473.4752 211.967,473.5084 209.8546,474.0529 204.9996,474.4127 203.2602,473.882 203.33,473.0822 203.4447,472.3267 203.3383,471.4959 206.3811,471.6226 209.9536,471.5783 210.2162,470.7952 210.4788,470.012 208.1186,469.0918 204.959,468.95 201.799,468.8092 197.6856,470.357 196.7401,471.4237 195.7952,472.49 197.8074,474.2801 203.9215,474.6891 207.9311,474.9575 215.5464,474.4573 216.2609,472.1761 217.3934,468.5592 210.8678,465.5647 201.343,465.5838 191.8177,465.6028 183.2403,468.7738 181.8037,474.3865 180.3678,479.9992 187.2237,483.1195 196.1783,483.7492 199.1424,483.9574 203.1233,483.6007 207.6921,482.9098 212.261,482.2189 217.4183,481.1919 222.7346,480.0635 246.9488,474.9212 271.1513,468.9706 296.0474,468.9706 320.9436,468.9706 345.1467,474.9212 369.3609,480.0635 374.6772,481.1919 379.8342,482.2186 384.403,482.9098 388.9718,483.6007 392.9525,483.9574 395.9165,483.7492 Z M 130.0894,76.6942 L 137.5641,76.6942 137.5641,97.6445 C 137.5641,99.9531 137.9494,101.5934 138.7193,102.5731 139.4966,103.5524 140.7758,104.0422 142.5567,104.0422 144.317,104.0422 145.5822,103.5524 146.3457,102.5731 147.1092,101.5934 147.4938,99.9531 147.4938,97.6445 L 147.4938,76.6942 155.0516,76.6942 155.0516,96.6182 C 155.0516,99.4245 154.8109,101.6636 154.3294,103.3347 153.8414,105.0061 153.0435,106.4208 151.9295,107.5714 150.7605,108.7687 149.399,109.6703 147.8517,110.2689 146.2974,110.8676 144.551,111.1708 142.5979,111.1708 140.6515,111.1708 138.9051,110.8676 137.3511,110.2689 135.8035,109.6703 134.4423,108.7687 133.2733,107.5714 132.1452,106.4055 131.334,104.9828 130.8319,103.3036 130.3369,101.6245 130.0894,99.3934 130.0894,96.6182 L 130.0894,76.6942 Z M 160.6905,110.2379 L 160.6905,76.6942 171.1496,76.6942 175.0558,93.0191 C 175.4064,94.4649 175.7228,95.8642 176.0047,97.2245 176.2867,98.5851 176.5342,99.9066 176.7473,101.1971 177.0019,99.8288 177.2909,98.3984 177.6141,96.9059 177.9372,95.4055 178.3083,93.8041 178.721,92.0862 L 182.407,76.6942 192.8456,76.6942 192.8456,110.2379 185.9141,110.2379 185.9141,95.3667 C 185.9141,94.3173 185.9344,92.8479 185.9827,90.959 186.031,89.0699 186.0995,86.8856 186.1961,84.4134 L 180.4951,110.2379 172.9585,110.2379 167.3815,84.4134 C 167.4777,87.3907 167.5463,90.0649 167.6017,92.4438 167.6564,94.8148 167.6841,96.6726 167.6841,98.0098 L 167.6841,110.2379 160.6905,110.2379 Z M 207.1836,97.139 L 213.6754,97.139 210.3675,85.5717 207.1836,97.139 Z M 206.4822,76.6942 L 214.7823,76.6942 225.2556,110.2379 217.0997,110.2379 215.2844,104.0889 205.3753,104.0889 203.6765,110.2379 195.8029,110.2379 206.4822,76.6942 Z M 232.6483,110.2379 L 232.6483,83.5039 224.1487,83.5039 224.1487,76.6942 248.7466,76.6942 248.7466,83.5039 240.247,83.5039 240.247,110.2379 232.6483,110.2379 Z M 252.0886,110.2379 L 252.0886,76.6942 274.6371,76.6942 274.6371,83.574 259.6805,83.574 259.6805,89.4976 273.3445,89.4976 273.3445,96.2141 259.6805,96.2141 259.6805,103.3814 275.1187,103.3814 275.1187,110.2379 252.0886,110.2379 Z M 287.1666,91.0599 L 292.826,91.0599 C 294.3526,91.0599 295.4804,90.7413 296.1956,90.1039 296.9176,89.4665 297.2755,88.4482 297.2755,87.0565 297.2755,85.8205 296.9244,84.9109 296.2301,84.3123 295.5287,83.7139 294.4627,83.4108 293.0255,83.4108 L 287.1666,83.4108 287.1666,91.0599 Z M 279.6091,110.2379 L 279.6091,76.6942 293.8093,76.6942 C 297.571,76.6942 300.3423,77.4558 302.1235,78.9717 303.9044,80.4879 304.7915,82.8431 304.7915,86.0305 304.7915,87.9116 304.4133,89.5286 303.6498,90.8655 302.8934,92.2105 301.7176,93.3377 300.1154,94.2472 301.4151,94.8148 302.3363,95.5767 302.8728,96.5407 303.4091,97.5046 303.7187,99.1991 303.8014,101.6322 303.8423,102.3086 303.8838,103.2338 303.925,104.3841 304.0142,107.0896 304.4268,108.6519 305.1559,109.0796 L 305.1559,110.2379 297.1928,110.2379 C 296.8075,109.0562 296.5806,107.4315 296.5259,105.3637 296.4776,103.3036 296.4226,102.0055 296.3675,101.4692 296.2436,100.1631 295.8586,99.2068 295.1985,98.6005 294.5454,97.9941 293.555,97.6909 292.2415,97.6909 L 287.1666,97.6909 287.1666,110.2379 279.6091,110.2379 Z M 318.3866,97.139 L 324.8784,97.139 321.5706,85.5717 318.3866,97.139 Z M 317.685,76.6942 L 325.9853,76.6942 336.4586,110.2379 328.3028,110.2379 326.4874,104.0889 316.578,104.0889 314.8795,110.2379 307.0056,110.2379 317.685,76.6942 Z M 358.8286,89.8161 L 364.928,89.8161 C 366.2206,89.8161 367.1837,89.544 367.8094,89.0078 368.4419,88.4712 368.7583,87.6475 368.7583,86.559 368.7583,85.5407 368.4625,84.771 367.8712,84.2425 367.2799,83.7216 366.4067,83.4572 365.2512,83.4572 L 358.8286,83.4572 358.8286,89.8161 Z M 358.8286,103.5681 L 364.5704,103.5681 C 366.379,103.5681 367.6513,103.2803 368.3733,102.713 369.0952,102.1454 369.4596,101.1814 369.4596,99.8365 369.4596,98.6161 369.1158,97.7066 368.4216,97.0926 367.7337,96.4782 366.7021,96.1674 365.3339,96.1674 L 358.8286,96.1674 358.8286,103.5681 Z M 351.5527,110.2379 L 351.5527,76.6942 365.9593,76.6942 C 369.4116,76.6942 371.956,77.3937 373.5995,78.8007 375.2433,80.2078 376.0682,82.369 376.0682,85.2842 376.0682,87.0876 375.7039,88.5801 374.9678,89.754 374.239,90.9357 373.118,91.8452 371.619,92.4826 373.3381,92.9801 374.6517,93.8819 375.5661,95.1801 376.4806,96.4782 376.9347,98.0876 376.9347,100.0155 376.9347,101.8966 376.5565,103.5991 375.8001,105.115 375.0366,106.6309 373.9706,107.8125 372.6023,108.6442 371.6808,109.2195 370.5598,109.6315 369.2398,109.8726 367.9262,110.1133 365.8978,110.2379 363.1609,110.2379 L 351.5527,110.2379 Z M 390.0898,97.139 L 396.5813,97.139 393.2738,85.5717 390.0898,97.139 Z M 389.3882,76.6942 L 397.6885,76.6942 408.1615,110.2379 400.006,110.2379 398.1906,104.0889 388.2812,104.0889 386.5827,110.2379 378.7088,110.2379 389.3882,76.6942 Z M 418.6007,91.0599 L 424.2598,91.0599 C 425.7868,91.0599 426.9143,90.7413 427.6295,90.1039 428.3518,89.4665 428.7094,88.4482 428.7094,87.0565 428.7094,85.8205 428.3585,84.9109 427.6639,84.3123 426.9626,83.7139 425.8965,83.4108 424.4594,83.4108 L 418.6007,83.4108 418.6007,91.0599 Z M 411.0429,110.2379 L 411.0429,76.6942 425.2432,76.6942 C 429.0048,76.6942 431.7764,77.4558 433.5574,78.9717 435.3383,80.4879 436.2253,82.8431 436.2253,86.0305 436.2253,87.9116 435.8471,89.5286 435.0837,90.8655 434.3273,92.2105 433.1515,93.3377 431.5492,94.2472 432.8489,94.8148 433.7704,95.5767 434.3067,96.5407 434.8429,97.5046 435.1526,99.1991 435.2353,101.6322 435.2765,102.3086 435.3177,103.2338 435.3592,104.3841 435.4483,107.0896 435.861,108.6519 436.5897,109.0796 L 436.5897,110.2379 428.6266,110.2379 C 428.2414,109.0562 428.0145,107.4315 427.9597,105.3637 427.9114,103.3036 427.8567,102.0055 427.8014,101.4692 427.6775,100.1631 427.2925,99.2068 426.6323,98.6005 425.9793,97.9941 424.9889,97.6909 423.6753,97.6909 L 418.6007,97.6909 418.6007,110.2379 411.0429,110.2379 Z M 449.8205,97.139 L 456.3123,97.139 453.0044,85.5717 449.8205,97.139 Z M 449.1191,76.6942 L 457.4192,76.6942 467.8925,110.2379 459.7366,110.2379 457.9213,104.0889 448.0119,104.0889 446.3134,110.2379 438.4398,110.2379 449.1191,76.6942 Z M 475.2849,110.2379 L 475.2849,83.5039 466.7853,83.5039 466.7853,76.6942 491.3832,76.6942 491.3832,83.5039 482.8836,83.5039 482.8836,110.2379 475.2849,110.2379 Z" class="fil_3" />
      <path id="p_black" d="M 71.0014,46.1457 L 521.0935,46.1457 489.7234,510.2529 296.0474,599.6056 102.3715,510.2529 71.0014,46.1457 Z M 296.0474,142.3844 L 302.9921,163.6028 325.3187,163.6514 307.2851,176.8126 314.1382,198.0612 296.0477,184.9771 277.9567,198.0612 284.8097,176.8136 266.7762,163.6514 289.1021,163.6034 296.0474,142.3844 Z M 405.9972,377.3988 C 390.884,378.8566 377.9672,384.0754 370.3233,391.2981 L 221.7725,391.2981 C 214.1286,384.0754 201.2114,378.8566 186.0977,377.3988 L 181.3905,339.6873 410.7044,339.6873 405.9972,377.3988 Z M 224.8645,386.7987 C 217.1311,379.9893 204.614,375.097 190.0611,373.6934 L 189.4175,368.5364 233.0738,368.5364 235.3184,386.7987 224.8645,386.7987 Z M 237.7536,368.5364 L 354.3409,368.5364 352.0963,386.7987 239.9982,386.7987 237.7536,368.5364 Z M 359.0207,368.5364 L 402.6771,368.5364 402.0335,373.6934 C 387.4809,375.097 374.9632,379.9893 367.2301,386.7987 L 356.7761,386.7987 359.0207,368.5364 Z M 188.8558,364.0371 L 186.3781,344.1866 230.0808,344.1866 232.5207,364.0371 188.8558,364.0371 Z M 234.7607,344.1866 L 357.3339,344.1866 354.8941,364.0371 237.2005,364.0371 234.7607,344.1866 Z M 362.0137,344.1866 L 405.7165,344.1866 403.2388,364.0371 359.5739,364.0371 362.0137,344.1866 Z M 341.7313,308.4755 C 346.4704,320.5443 357.3256,330.2268 371.0994,334.7846 L 220.9955,334.7846 C 234.7693,330.2268 245.6245,320.5443 250.3636,308.4755 L 341.7313,308.4755 Z M 268.605,258.004 C 279.9341,239.662 289.2359,219.1557 296.0474,197.0435 302.859,219.1563 312.1602,239.6633 323.4898,258.0052 L 323.4898,270.8704 268.605,270.8704 268.605,258.004 Z M 267.9796,275.8063 C 263.2405,287.8748 252.3853,297.5576 238.6115,302.1151 L 353.4834,302.1151 C 339.7096,297.5576 328.8544,287.8748 324.1152,275.8063 L 267.9796,275.8063 Z M 296.0474,150.1122 L 301.2484,166.003 317.9691,166.0392 304.4634,175.8964 309.5958,191.8096 296.0477,182.0109 282.4993,191.8096 287.6315,175.8967 274.1258,166.0392 290.8461,166.0033 296.0474,150.1122 Z M 219.2336,396.4624 C 211.8216,388.9077 198.1714,383.4226 182.0725,382.074 L 177.5144,345.5558 C 172.2925,341.157 161.4709,337.6094 152.6801,335.3894 L 152.6804,283.7983 141.5048,184.5525 C 153.1859,221.7228 167.8784,245.9441 196.4262,259.4159 L 194.0724,186.3844 C 203.8834,216.5532 213.0041,246.1701 266.4742,262.0562 L 266.4742,257.0065 C 278.7097,236.9864 288.7387,214.5386 296.0471,190.298 303.3559,214.5386 313.3849,236.9864 325.6203,257.0065 L 325.6203,262.0559 C 379.0898,246.1701 388.2115,216.5529 398.0225,186.3844 L 395.6687,259.4159 C 424.2165,245.9441 438.909,221.7228 450.5901,184.5525 L 439.4145,283.7983 439.4148,335.3894 C 430.624,337.6094 419.8023,341.157 414.5804,345.5558 L 410.0224,382.074 C 393.9235,383.4226 380.2733,388.9077 372.8612,396.4624 L 219.2336,396.4624 Z M 372.3099,470.8841 C 371.9732,464.867 383.254,462.7482 391.7828,463.0049 401.5701,463.3007 414.8172,467.7081 414.6201,477.0723 L 414.578,479.0651 C 414.2994,492.3011 413.8397,500.1655 413.4339,513.9377 413.0846,525.7925 400.0884,526.012 390.12,524.0986 L 382.5861,522.6525 C 353.8539,517.1373 325.7289,509.8476 296.0474,509.8476 266.366,509.8476 238.241,517.1373 209.5087,522.6525 L 201.9749,524.0986 C 192.0065,526.012 179.0103,525.7925 178.661,513.9377 178.2551,500.1655 177.7955,492.3011 177.5169,479.0651 L 177.4748,477.0723 C 177.2777,467.7081 190.5247,463.3007 200.3121,463.0049 208.8409,462.7482 220.1216,464.867 219.7849,470.8841 219.6558,473.2157 218.9787,476.0552 218.8007,478.4102 243.5361,473.0927 270.6867,467.1851 296.0474,467.1851 321.4082,467.1851 348.5585,473.0927 373.2942,478.4102 373.1161,476.0552 372.4391,473.2157 372.3099,470.8841 Z M 395.9165,483.7492 C 404.8712,483.1195 411.727,479.9992 410.2911,474.3865 408.8546,468.7738 400.2772,465.6028 390.7518,465.5838 381.2271,465.5647 374.7015,468.5592 375.8339,472.1761 376.5485,474.4573 384.1638,474.9575 388.1733,474.6891 394.2875,474.2801 396.2997,472.49 395.3548,471.4237 394.4093,470.357 390.2958,468.8092 387.1359,468.95 383.9763,469.0918 381.6161,470.012 381.8786,470.7952 382.1412,471.5783 385.7138,471.6226 388.7566,471.4959 388.6502,472.3267 388.7649,473.0822 388.8347,473.882 387.0953,474.4127 382.2402,474.0529 380.1279,473.5084 380.1137,473.4752 379.8487,471.1626 379.7887,470.8093 379.5289,469.2827 382.9757,468.0214 386.7429,467.9184 390.8312,467.8065 398.3871,469.5293 398.1897,473.0321 L 397.6858,481.9865 C 392.9706,482.6432 379.7205,481.3395 375.333,479.4562 375.1246,478.2408 374.0484,472.1429 374.0287,471.8692 373.6475,466.6842 382.3073,463.6516 391.3081,464.0688 402.0775,464.5685 411.926,469.8337 412.9929,475.6616 413.1381,476.4599 413.1098,477.2282 412.9281,477.9591 L 411.7332,512.6328 C 411.3504,523.7505 399.0045,523.773 389.656,521.9789 382.9425,520.6908 375.4813,518.9198 368.0092,517.2111 344.8589,511.916 319.8333,507.8988 296.0474,507.8988 272.2616,507.8988 247.2359,511.9157 224.0859,517.2111 216.6136,518.9198 209.1517,520.6908 202.4389,521.9789 193.0903,523.773 180.7445,523.7505 180.3617,512.6328 L 179.1668,477.9591 C 178.9851,477.2282 178.9568,476.4599 179.1019,475.6616 180.1689,469.8337 190.0174,464.5685 200.7868,464.0688 209.7876,463.6516 218.4474,466.6842 218.0661,471.8692 218.0465,472.1429 216.9703,478.2408 216.7618,479.4562 212.3744,481.3395 199.1243,482.6432 194.4091,481.9865 L 193.9052,473.0321 C 193.7078,469.5293 201.2637,467.8065 205.3519,467.9184 209.1192,468.0214 212.566,469.2827 212.3062,470.8093 212.2462,471.1626 211.9812,473.4752 211.967,473.5084 209.8546,474.0529 204.9996,474.4127 203.2602,473.882 203.33,473.0822 203.4447,472.3267 203.3383,471.4959 206.3811,471.6226 209.9536,471.5783 210.2162,470.7952 210.4788,470.012 208.1186,469.0918 204.959,468.95 201.799,468.8092 197.6856,470.357 196.7401,471.4237 195.7952,472.49 197.8074,474.2801 203.9215,474.6891 207.9311,474.9575 215.5464,474.4573 216.2609,472.1761 217.3934,468.5592 210.8678,465.5647 201.343,465.5838 191.8177,465.6028 183.2403,468.7738 181.8037,474.3865 180.3678,479.9992 187.2237,483.1195 196.1783,483.7492 199.1424,483.9574 203.1233,483.6007 207.6921,482.9098 212.261,482.2189 217.4183,481.1919 222.7346,480.0635 246.9488,474.9212 271.1513,468.9706 296.0474,468.9706 320.9436,468.9706 345.1467,474.9212 369.3609,480.0635 374.6772,481.1919 379.8342,482.2186 384.403,482.9098 388.9718,483.6007 392.9525,483.9574 395.9165,483.7492 Z M 74.2911,49.2205 L 517.8038,49.2205 486.7787,508.2251 296.0474,596.2194 105.3162,508.2251 74.2911,49.2205 Z" class="fil_4" />
      <path id="p_white" d="M 74.2911,49.2208 L 517.8038,49.2208 486.7784,508.2248 296.0471,596.2194 105.3165,508.2248 74.2911,49.2208 Z M 341.7313,308.4755 C 346.4707,320.5443 357.3256,330.2271 371.0997,334.7846 L 220.9952,334.7846 C 234.7693,330.2271 245.6241,320.5443 250.3636,308.4755 L 341.7313,308.4755 Z M 268.605,258.004 C 279.9344,239.6617 289.2359,219.1557 296.0471,197.0438 302.859,219.1566 312.1602,239.6633 323.4898,258.0052 L 323.4898,270.8704 268.605,270.8704 268.605,258.004 Z M 267.9796,275.8063 C 263.2405,287.8748 252.3853,297.5573 238.6112,302.1151 L 353.4837,302.1151 C 339.7096,297.5573 328.8547,287.8748 324.1152,275.8063 L 267.9796,275.8063 Z M 499.4938,137.7273 L 481.0445,410.6851 C 476.8484,412.4897 472.5898,413.9309 468.0877,413.9309 456.0349,413.9309 445.7326,403.6079 433.6797,403.6079 421.6272,403.6079 411.3246,413.9309 399.2717,413.9309 387.2186,413.9309 376.9163,403.6079 364.8634,403.6079 352.8109,403.6079 342.5083,413.9309 330.4554,413.9309 318.4023,413.9309 308.1003,403.6079 296.0471,403.6079 283.9946,403.6079 273.6926,413.9309 261.6394,413.9309 249.5866,413.9309 239.284,403.6079 227.2314,403.6079 215.1786,403.6079 204.8763,413.9309 192.8231,413.9309 180.7703,413.9309 170.468,403.6079 158.4151,403.6079 146.3623,403.6079 136.06,413.9309 124.0071,413.9309 119.5047,413.9309 115.2468,412.4897 111.0503,410.6848 L 92.6004,137.7273 499.4938,137.7273 Z M 480.3985,420.2419 L 479.7531,429.7912 C 475.9739,431.3341 472.1286,432.4958 468.0877,432.4958 456.0349,432.4958 445.7326,422.1722 433.6797,422.1722 421.6272,422.1722 411.3246,432.4958 399.2717,432.4958 387.2186,432.4958 376.9163,422.1722 364.8634,422.1722 352.8109,422.1722 342.5083,432.4958 330.4554,432.4958 318.4023,432.4958 308.1003,422.1722 296.0471,422.1722 283.9946,422.1722 273.6926,432.4958 261.6394,432.4958 249.5866,432.4958 239.284,422.1722 227.2314,422.1722 215.1786,422.1722 204.8763,432.4958 192.8231,432.4958 180.7703,432.4958 170.468,422.1722 158.4151,422.1722 146.3623,422.1722 136.06,432.4958 124.0071,432.4958 119.9657,432.4958 116.1216,431.3341 112.3417,429.7906 L 111.6963,420.2409 C 115.6846,421.9151 119.735,423.2139 124.0071,423.2139 136.06,423.2139 146.3623,412.8904 158.4151,412.8904 170.468,412.8904 180.7703,423.2139 192.8231,423.2139 204.8763,423.2139 215.1786,412.8904 227.2314,412.8904 239.284,412.8904 249.5866,423.2139 261.6394,423.2139 273.6926,423.2139 283.9946,412.8904 296.0471,412.8904 308.1003,412.8904 318.4023,423.2139 330.4554,423.2139 342.5083,423.2139 352.8109,412.8904 364.8634,412.8904 376.9163,412.8904 387.2186,423.2139 399.2717,423.2139 411.3246,423.2139 421.6272,412.8904 433.6797,412.8904 445.7326,412.8904 456.0349,423.2139 468.0877,423.2139 472.3589,423.2139 476.4112,421.9161 480.3985,420.2419 Z M 479.108,439.3335 L 478.4636,448.8659 C 475.0988,450.1481 471.6702,451.061 468.0877,451.061 456.0349,451.061 445.7326,440.7371 433.6797,440.7371 421.6272,440.7371 411.3246,451.061 399.2717,451.061 387.2186,451.061 376.9163,440.7371 364.8634,440.7371 352.8109,440.7371 342.5083,451.061 330.4554,451.061 318.4023,451.061 308.1003,440.7371 296.0471,440.7371 283.9946,440.7371 273.6926,451.061 261.6394,451.061 249.5866,451.061 239.284,440.7371 227.2314,440.7371 215.1786,440.7371 204.8763,451.061 192.8231,451.061 180.7703,451.061 170.468,440.7371 158.4151,440.7371 146.3623,440.7371 136.06,451.061 124.0071,451.061 120.4241,451.061 116.997,450.1481 113.6313,448.8656 L 112.9868,439.3328 C 116.5594,440.7451 120.1953,441.7785 124.0071,441.7785 136.06,441.7785 146.3623,431.4553 158.4151,431.4553 170.468,431.4553 180.7703,441.7785 192.8231,441.7785 204.8763,441.7785 215.1786,431.4553 227.2314,431.4553 239.284,431.4553 249.5866,441.7785 261.6394,441.7785 273.6926,441.7785 283.9946,431.4553 296.0471,431.4553 308.1003,431.4553 318.4023,441.7785 330.4554,441.7785 342.5083,441.7785 352.8109,431.4553 364.8634,431.4553 376.9163,431.4553 387.2186,441.7785 399.2717,441.7785 411.3246,441.7785 421.6272,431.4553 433.6797,431.4553 445.7326,431.4553 456.0349,441.7785 468.0877,441.7785 471.8992,441.7785 475.5361,440.7454 479.108,439.3335 Z M 477.8203,458.3875 L 474.9995,500.1138 296.0471,582.6743 117.0947,500.1138 114.2745,458.3872 C 117.4333,459.5415 120.6519,460.3425 124.0071,460.3425 136.06,460.3425 146.3623,450.0192 158.4151,450.0192 170.468,450.0192 180.7703,460.3425 192.8231,460.3425 204.8763,460.3425 215.1786,450.0192 227.2314,450.0192 239.284,450.0192 249.5866,460.3425 261.6394,460.3425 273.6926,460.3425 283.9946,450.0192 296.0471,450.0192 308.1003,450.0192 318.4023,460.3425 330.4554,460.3425 342.5083,460.3425 352.8109,450.0192 364.8634,450.0192 376.9163,450.0192 387.2186,460.3425 399.2717,460.3425 411.3246,460.3425 421.6272,450.0192 433.6797,450.0192 445.7326,450.0192 456.0349,460.3425 468.0877,460.3425 471.442,460.3425 474.6616,459.5421 477.8203,458.3875 Z M 87.4496,61.5196 L 504.6453,61.5196 500.3249,125.4282 91.7699,125.4282 87.4496,61.5196 Z" class="fil_5" />
    </g>
  </g>
</svg>
