<?xml version="1.0" encoding="UTF-8" standalone="no"?>
<!--
================================================================================
 *  BISMILLAAHIRRAHMAANIRRAHIIM - In the Name of Allah, Most Gracious, Most Merciful
================================================================================
FILENAME      : 15_jambi.svg
AUTHOR        : CAHYA DSN
CREATED DATE  : 2026-01-01 22:34:29
UPDATED DATE  : 2026-01-02 14:05:19
SOURCE CODE   : https://github.com/cahyadsn/wilayah_logo
================================================================================
This program is free software; you can redistribute it and/or modify it under the
terms of the MIT License.

THE SOFTWARE IS PROVIDED "AS IS", WITHOUT WARRANTY OF ANY KIND, EXPRESS OR
IMPLIED, INCLUDING BUT NOT LIMITED TO THE WARRANTIES OF MERCHANTABILITY,
FITNESS FOR A PARTICULAR PURPOSE AND NONINFRINGEMENT. IN NO EVENT SHALL THE
AUTHORS OR COPYRIGHT HOLDERS BE LIABLE FOR ANY CLAIM, DAMAGES OR OTHER
LIABILITY, WHETHER IN AN ACTION OF CONTRACT, TORT OR OTHERWISE, ARISING FROM,
OUT OF OR IN CONNECTION WITH THE SOFTWARE OR THE USE OR OTHER DEALINGS IN THE
SOFTWARE.

See the MIT License for more details

copyright (c) 2025 by cahya dsn; cahyadsn@gmail.com
================================================================================
-->
<svg
   xmlns:dc="http://purl.org/dc/elements/1.1/"
   xmlns:cc="http://creativecommons.org/ns#"
   xmlns:rdf="http://www.w3.org/1999/02/22-rdf-syntax-ns#"
   xmlns:svg="http://www.w3.org/2000/svg"
   xmlns="http://www.w3.org/2000/svg"
   id="706aaba0-dee4-11f0-b933-0242ac110006"
   version="1.1"
   width="595.275590551pt"
   height="841.88976378pt"
   viewBox="0 0 595.275590551 841.88976378">
  <metadata id="author">cahya dsn</metadata>
  <metadata
     id="metadata83">
    <rdf:RDF>
      <cc:Work
         rdf:about="">
        <dc:format>image/svg+xml</dc:format>
        <dc:type
           rdf:resource="http://purl.org/dc/dcmitype/StillImage" />
      </cc:Work>
    </rdf:RDF>
  </metadata>
  <defs>
    <style type="text/css">
     <![CDATA[
      path {fill-rule:evenodd;}
      .c_01 {fill:#FFFFFF;}
      .c_2 {fill:#000000;}
      .c_3 {fill:#fef502;}
      .c_4 {fill:#007cc4;}
      .c_5 {fill:#da251c;}
      .c_6 {fill:#252b25;}
      .c_7 {fill:#feea1f;}
      .c_8 {fill:#241443;}
      .c_9 {fill:#fbf501;}
     ]]>
    </style>
  </defs>
  <g id="main_symbol">
    <g id="g_shield">
      <path id="bg_segilima" d="M 47.6886,211.4365 C 53.4739,247.0728 100.5273,288.9578 188.8477,337.0918 L 188.8477,337.092 188.8478,337.0918 C 277.1685,288.958 324.2218,247.0728 330.0071,211.4365 L 330.0071,33.7322 306.2598,11.2842 71.4359,11.2842 47.6886,33.7322 47.6886,211.4365 Z M 54.9779,209.5131 C 60.4644,243.3091 105.0881,283.0313 188.8477,328.6797 L 188.8477,328.6798 188.8478,328.6797 C 272.6078,283.0314 317.2313,243.3091 322.7178,209.5131 L 322.7178,40.9852 300.1968,19.6963 77.4989,19.6963 54.9779,40.9852 54.9779,209.5131 Z" class="c_01" />
      <path id="fr_segilima" d="M 48.9728,211.348 C 51.8554,228.8331 64.921,247.9237 88.1702,268.6194 111.5214,289.4055 145.082,311.7443 188.8478,335.6337 232.614,311.7442 266.1745,289.4055 289.5257,268.6194 312.7748,247.9237 325.8403,228.8331 328.7229,211.348 L 328.7229,34.2811 305.7535,12.5683 71.9422,12.5683 48.9728,34.2811 48.9728,211.348 Z M 86.4649,270.5356 C 69.7336,255.6421 50.1424,234.5213 46.4045,211.5189 L 46.4045,33.7322 46.4045,33.1835 46.8108,32.7992 70.558,10.3512 70.9296,10 71.4359,10 306.2598,10 306.7661,10 307.1377,10.3512 330.8849,32.7992 331.2912,33.1835 331.2912,33.7322 331.2912,211.5189 C 327.5533,234.5213 307.9622,255.6421 291.231,270.5356 267.6695,291.5091 233.8042,314.0371 189.6368,338.1187 188.8722,338.2785 188.177,338.2018 187.5635,337.8482 143.639,313.8685 109.9378,291.4305 86.4649,270.5356 Z M 56.262,209.4244 C 58.9953,225.9894 71.3787,244.0794 93.413,263.6936 115.5493,283.3984 147.3621,304.5748 188.8478,327.2216 230.3336,304.5749 262.1466,283.3985 284.2826,263.6936 306.317,244.0794 318.7003,225.9894 321.4337,209.4244 L 321.4337,41.5341 299.6905,20.9804 78.0052,20.9804 56.262,41.5341 56.262,209.4244 Z M 91.7077,265.6099 C 75.8226,251.4697 57.2424,231.4336 53.6938,209.5954 L 53.6938,40.9852 53.6938,40.4364 54.1001,40.0522 76.621,18.7633 76.9926,18.4121 77.4989,18.4121 300.1968,18.4121 300.7031,18.4121 301.0747,18.7633 323.5956,40.0522 324.0019,40.4364 324.0019,40.9852 324.0019,209.5954 C 320.4533,231.4336 301.8731,251.4697 285.988,265.6099 263.6418,285.5019 231.5239,306.8679 189.6368,329.7066 189.0608,329.832 188.3826,329.7751 187.5635,329.4361 145.9191,306.6991 113.9657,285.4232 91.7077,265.6099 Z" class="c_2" />
      <path id="bg_sky_yellow" d="M 54.9779,162.1672 L 322.7178,162.1672 322.7178,40.9852 300.1968,19.6963 77.4989,19.6963 54.9779,40.9852 54.9779,162.1672 Z" class="c_3" />
      <path id="bg_water_blue" d="M 322.3192,190.6293 L 322.3192,209.513 C 316.8327,243.3088 272.6077,283.0314 188.8479,328.6795 L 188.8477,328.6799 188.8477,328.6795 C 105.0881,283.0312 60.8629,243.3088 55.3766,209.513 L 55.3766,190.6335 C 55.5906,190.8373 55.8729,190.966 56.1788,190.9856 64.4535,192.0777 71.6469,194.3876 77.7576,197.9148 83.858,201.436 88.8942,206.1839 92.8652,212.1574 93.1113,212.5295 93.5184,212.7313 93.9334,212.7317 L 93.9334,212.7345 168.7545,212.7345 176.0896,227.5709 C 176.3124,228.0229 176.7663,228.2849 177.2383,228.2853 L 177.2383,228.2881 200.4574,228.2881 C 200.9955,228.2881 201.4564,227.9571 201.6474,227.4876 L 208.9413,212.7345 283.7621,212.7345 C 284.2382,212.7345 284.6533,212.4755 284.8752,212.0909 288.8394,206.1486 293.8605,201.4228 299.938,197.9148 306.0692,194.3759 313.2899,192.0622 321.5991,190.9746 321.8808,190.938 322.1289,190.812 322.3192,190.6293 Z" class="c_4" />
      <path id="bg_soil_red" d="M 55.3766,174.2488 L 322.3192,174.2488 322.3192,188.7815 C 322.1297,188.6 321.8858,188.4778 321.619,188.439 L 321.6192,188.4366 C 312.576,187.1023 303.9697,187.6449 295.8011,190.0644 287.9752,192.382 280.5679,196.4181 273.5805,202.1709 L 263.8528,192.5677 C 263.3541,192.0769 262.5544,192.0785 262.0573,192.5677 L 252.4005,202.1007 242.7441,192.5677 C 242.2454,192.0769 241.4453,192.0785 240.9486,192.5677 L 231.292,202.1007 221.6357,192.5677 C 221.1367,192.0769 220.3369,192.0785 219.8399,192.5677 L 210.1833,202.1007 200.5268,192.5677 C 200.0226,192.0722 199.2118,192.0785 198.7163,192.5829 L 198.7023,192.597 188.8479,201.7068 178.9345,192.5426 C 178.4315,192.0771 177.654,192.0937 177.1708,192.5695 L 177.169,192.5677 167.5124,202.1007 157.8559,192.5677 C 157.3569,192.0769 156.5571,192.0785 156.0601,192.5677 L 146.4036,202.1007 136.7472,192.5677 C 136.2484,192.0769 135.4486,192.0785 134.9514,192.5677 L 125.2951,202.1007 115.6385,192.5677 C 115.1396,192.0769 114.3399,192.0785 113.8428,192.5677 L 104.1153,202.1709 C 97.1277,196.4181 89.7204,192.382 81.8947,190.0644 73.7258,187.6449 65.1198,187.1023 56.0766,188.4366 55.803,188.4764 55.5623,188.6002 55.3766,188.7777 L 55.3766,174.2488 Z" class="c_5" />
      <path id="bg_masjid" d="M 188.8478,34.394 C 208.6194,44.9009 223.1471,56.8074 227.5051,71.8431 229.2426,77.8378 228.9118,83.8538 227.5051,88.5293 224.2196,99.4491 219.4313,106.7729 213.9568,110.7823 L 251.9997,110.7823 C 251.9997,114.2971 256.8017,117.8493 261.6036,117.8493 L 261.6036,123.648 C 256.8017,123.648 251.9997,127.1627 251.9997,130.6744 L 125.6962,130.6744 C 125.6962,127.1627 120.8942,123.648 116.0922,123.648 L 116.0922,117.8493 C 120.8942,117.8493 125.6962,114.2971 125.6962,110.7823 L 163.7389,110.7823 C 158.2644,106.7729 153.4761,99.4491 150.1906,88.5293 148.7839,83.8538 148.4531,77.8378 150.1906,71.8431 154.5486,56.8074 169.0763,44.9009 188.8478,34.394 Z M 109.3231,138.3657 C 114.5718,138.3657 119.8207,134.5044 119.8207,130.684 L 257.8752,130.684 C 257.8752,134.5044 263.124,138.3657 268.3727,138.3657 L 268.3727,144.6687 C 263.124,144.6687 257.8752,148.4891 257.8752,152.3062 L 248.6044,152.3062 248.6044,140.5503 237.4301,140.5503 237.4301,152.3062 226.7087,152.3062 226.7087,140.5503 215.5344,140.5503 215.5344,152.3062 206.172,152.3062 206.172,140.5503 194.9976,140.5503 194.9976,152.3062 183.6723,152.3062 183.6723,140.5503 172.4979,140.5503 172.4979,152.3062 163.1355,152.3062 163.1355,140.5503 151.9612,140.5503 151.9612,152.3062 141.24,152.3062 141.24,140.5503 130.0657,140.5503 130.0657,152.3062 119.8207,152.3062 C 119.8207,148.4891 114.5718,144.6687 109.3231,144.6687 L 109.3231,138.3657 Z" class="c_01" />
      <path id="fr_masjid" d="M 189.4498,33.2603 C 199.4235,38.5604 208.0885,44.2265 214.8295,50.4821 221.6407,56.803 226.4855,63.7284 228.7341,71.487 229.5958,74.4603 229.9715,77.4258 229.9715,80.2353 229.9715,83.3647 229.5085,86.3213 228.7341,88.8955 227.1019,94.3206 225.0983,98.888 222.8214,102.6275 221.1639,105.3501 219.359,107.6364 217.4445,109.4982 L 251.9997,109.4982 253.2838,109.4982 253.2838,110.7823 C 253.2838,112.112 254.277,113.5105 255.7656,114.6058 257.361,115.7798 259.4841,116.5652 261.6036,116.5652 L 262.8878,116.5652 262.8878,117.8493 262.8878,123.648 262.8878,124.9321 261.6036,124.9321 C 259.4795,124.9321 257.3538,125.7105 255.7589,126.8771 254.7477,127.617 253.9661,128.4962 253.5703,129.3999 L 257.8752,129.3999 259.1593,129.3999 259.1593,130.684 C 259.1593,132.1654 260.2644,133.7178 261.9211,134.93 263.6829,136.2191 266.0288,137.0816 268.3727,137.0816 L 269.6569,137.0816 269.6569,138.3657 269.6569,144.6687 269.6569,145.9529 268.3727,145.9529 C 266.0252,145.9529 263.6742,146.8095 261.9087,148.0939 260.2594,149.294 259.1593,150.8319 259.1593,152.3062 L 259.1593,153.5904 257.8752,153.5904 248.6044,153.5904 247.3203,153.5904 247.3203,152.3062 247.3203,141.8344 238.7142,141.8344 238.7142,152.3062 238.7142,153.5904 237.4301,153.5904 226.7087,153.5904 225.4246,153.5904 225.4246,152.3062 225.4246,141.8344 216.8185,141.8344 216.8185,152.3062 216.8185,153.5904 215.5344,153.5904 206.172,153.5904 204.8879,153.5904 204.8879,152.3062 204.8879,141.8344 196.2818,141.8344 196.2818,152.3062 196.2818,153.5904 194.9976,153.5904 183.6723,153.5904 182.3881,153.5904 182.3881,152.3062 182.3881,141.8344 173.782,141.8344 173.782,152.3062 173.782,153.5904 172.4979,153.5904 163.1355,153.5904 161.8514,153.5904 161.8514,152.3062 161.8514,141.8344 153.2453,141.8344 153.2453,152.3062 153.2453,153.5904 151.9612,153.5904 141.24,153.5904 139.9559,153.5904 139.9559,152.3062 139.9559,141.8344 131.3498,141.8344 131.3498,152.3062 131.3498,153.5904 130.0657,153.5904 119.8207,153.5904 118.5365,153.5904 118.5365,152.3062 C 118.5365,150.8319 117.4365,149.294 115.7871,148.0939 114.0217,146.8095 111.6707,145.9529 109.3231,145.9529 L 108.039,145.9529 108.039,144.6687 108.039,138.3657 108.039,137.0816 109.3231,137.0816 C 111.6671,137.0816 114.013,136.2191 115.7748,134.93 117.4315,133.7178 118.5365,132.1654 118.5365,130.684 L 118.5365,129.3999 119.8207,129.3999 124.1256,129.3999 C 123.7297,128.4962 122.9481,127.617 121.9369,126.8771 120.342,125.7105 118.2164,124.9321 116.0922,124.9321 L 114.8081,124.9321 114.8081,123.648 114.8081,117.8493 114.8081,116.5652 116.0922,116.5652 C 118.2117,116.5652 120.3348,115.7798 121.9302,114.6058 123.4188,113.5105 124.412,112.112 124.412,110.7823 L 124.412,109.4982 125.6962,109.4982 160.2512,109.4982 C 158.3366,107.6364 156.5318,105.3501 154.8743,102.6275 152.5974,98.888 150.5938,94.3206 148.9616,88.8955 148.1872,86.3213 147.7242,83.3647 147.7242,80.2353 147.7242,77.4258 148.0999,74.4603 148.9616,71.487 151.2102,63.7284 156.055,56.803 162.8662,50.4821 169.6072,44.2265 178.2722,38.5604 188.2458,33.2603 L 188.8478,32.9405 189.4498,33.2603 Z M 214.3716,112.0664 L 213.9568,112.0664 163.7389,112.0664 163.3241,112.0664 126.8209,112.0664 C 126.3954,113.7927 125.1479,115.4194 123.4452,116.6724 121.7626,117.9106 119.608,118.8044 117.3764,119.0593 L 117.3764,122.4373 C 119.6097,122.6902 121.7672,123.5781 123.4519,124.8105 125.151,126.0536 126.3954,127.6695 126.8206,129.3903 L 250.8753,129.3903 C 251.3004,127.6695 252.5448,126.0536 254.244,124.8105 255.9286,123.5781 258.0861,122.6902 260.3195,122.4373 L 260.3195,119.0593 C 258.0878,118.8044 255.9332,117.9106 254.2507,116.6724 252.5479,115.4194 251.3004,113.7927 250.8749,112.0664 L 214.3716,112.0664 Z M 117.2897,136.9966 C 115.4385,138.3511 113.0622,139.3233 110.6073,139.5815 L 110.6073,143.4522 C 113.0646,143.7079 115.4421,144.6715 117.2921,146.0174 119.1584,147.3752 120.5172,149.1442 120.9543,151.0221 L 128.7815,151.0221 128.7815,140.5503 128.7815,139.2661 130.0657,139.2661 141.24,139.2661 142.5242,139.2661 142.5242,140.5503 142.5242,151.0221 150.677,151.0221 150.677,140.5503 150.677,139.2661 151.9612,139.2661 163.1355,139.2661 164.4197,139.2661 164.4197,140.5503 164.4197,151.0221 171.2138,151.0221 171.2138,140.5503 171.2138,139.2661 172.4979,139.2661 183.6723,139.2661 184.9564,139.2661 184.9564,140.5503 184.9564,151.0221 193.7135,151.0221 193.7135,140.5503 193.7135,139.2661 194.9976,139.2661 206.172,139.2661 207.4561,139.2661 207.4561,140.5503 207.4561,151.0221 214.2502,151.0221 214.2502,140.5503 214.2502,139.2661 215.5344,139.2661 226.7087,139.2661 227.9929,139.2661 227.9929,140.5503 227.9929,151.0221 236.1459,151.0221 236.1459,140.5503 236.1459,139.2661 237.4301,139.2661 248.6044,139.2661 249.8886,139.2661 249.8886,140.5503 249.8886,151.0221 256.7416,151.0221 C 257.1787,149.1442 258.5375,147.3752 260.4037,146.0174 262.2537,144.6715 264.6313,143.7079 267.0886,143.4522 L 267.0886,139.5815 C 264.6337,139.3233 262.2573,138.3511 260.4061,136.9966 258.5383,135.63 257.1783,133.8505 256.7412,131.9681 L 120.9546,131.9681 C 120.5175,133.8505 119.1575,135.63 117.2897,136.9966 Z M 213.0837,52.3583 C 206.6636,46.4003 198.3912,40.9621 188.8478,35.849 179.3045,40.9621 171.0321,46.4003 164.612,52.3583 158.1274,58.3759 153.5287,64.9225 151.4196,72.1992 150.6348,74.9077 150.2925,77.6338 150.2925,80.2353 150.2925,83.1128 150.7142,85.8182 151.4196,88.1631 152.9881,93.3766 154.8994,97.7425 157.0614,101.2934 159.214,104.8291 161.611,107.5531 164.161,109.4982 L 213.5347,109.4982 C 216.0847,107.5531 218.4817,104.8291 220.6343,101.2934 222.7962,97.7425 224.7075,93.3766 226.2761,88.1631 226.9815,85.8182 227.4032,83.1128 227.4032,80.2353 227.4032,77.6338 227.0609,74.9077 226.2761,72.1992 224.167,64.9225 219.5683,58.3759 213.0837,52.3583 Z" class="c_2" />
      <path id="bg_brick" d="M 56.262,163.4513 L 94.1436,163.4513 132.0254,163.4513 169.907,163.4513 207.7887,163.4513 245.6703,163.4513 283.5521,163.4513 321.4337,163.4513 321.4337,172.9647 283.5521,172.9647 245.6703,172.9647 207.7887,172.9647 169.907,172.9647 132.0254,172.9647 94.1436,172.9647 56.262,172.9647 56.262,163.4513 Z M 75.4244,152.579 L 120.7939,152.579 166.1632,152.579 211.5327,152.579 256.902,152.579 302.2715,152.579 302.2715,162.0924 256.902,162.0924 211.5327,162.0924 166.1632,162.0924 120.7939,162.0924 75.4244,162.0924 75.4244,152.579 Z" class="c_01" />
      <path id="fr_brick" d="M 303.5556,162.1672 L 321.4337,162.1672 322.7178,162.1672 322.7178,163.4513 322.7178,172.9647 322.7178,174.2488 321.4337,174.2488 284.8362,174.2488 283.5521,174.2488 282.2679,174.2488 246.9544,174.2488 245.6703,174.2488 244.3861,174.2488 209.0728,174.2488 207.7887,174.2488 206.5045,174.2488 171.1912,174.2488 169.907,174.2488 168.6229,174.2488 133.3096,174.2488 132.0254,174.2488 130.7413,174.2488 95.4278,174.2488 94.1436,174.2488 92.8595,174.2488 56.262,174.2488 54.9779,174.2488 54.9779,172.9647 54.9779,163.4513 54.9779,162.1672 56.262,162.1672 74.1402,162.1672 74.1402,162.0924 74.1402,152.579 74.1402,151.2949 75.4244,151.2949 119.5097,151.2949 120.7939,151.2949 122.078,151.2949 164.8791,151.2949 166.1632,151.2949 167.4473,151.2949 210.2485,151.2949 211.5327,151.2949 212.8168,151.2949 255.6179,151.2949 256.902,151.2949 258.1861,151.2949 302.2715,151.2949 303.5556,151.2949 303.5556,152.579 303.5556,162.0924 303.5556,162.1672 Z M 119.5097,160.8082 L 119.5097,153.8631 76.7085,153.8631 76.7085,160.8082 119.5097,160.8082 Z M 164.8791,160.8082 L 164.8791,153.8631 122.078,153.8631 122.078,160.8082 164.8791,160.8082 Z M 210.2485,160.8082 L 210.2485,153.8631 167.4473,153.8631 167.4473,160.8082 210.2485,160.8082 Z M 255.6179,160.8082 L 255.6179,153.8631 212.8168,153.8631 212.8168,160.8082 255.6179,160.8082 Z M 300.9873,153.8631 L 258.1861,153.8631 258.1861,160.8082 300.9873,160.8082 300.9873,153.8631 Z M 92.8595,171.6806 L 92.8595,164.7355 57.5462,164.7355 57.5462,171.6806 92.8595,171.6806 Z M 130.7413,171.6806 L 130.7413,164.7355 95.4278,164.7355 95.4278,171.6806 130.7413,171.6806 Z M 168.6229,171.6806 L 168.6229,164.7355 133.3096,164.7355 133.3096,171.6806 168.6229,171.6806 Z M 206.5045,171.6806 L 206.5045,164.7355 171.1912,164.7355 171.1912,171.6806 206.5045,171.6806 Z M 244.3861,171.6806 L 244.3861,164.7355 209.0728,164.7355 209.0728,171.6806 244.3861,171.6806 Z M 282.2679,171.6806 L 282.2679,164.7355 246.9544,164.7355 246.9544,171.6806 282.2679,171.6806 Z M 320.1495,164.7355 L 284.8362,164.7355 284.8362,171.6806 320.1495,171.6806 320.1495,164.7355 Z" class="c_2" />
      <path id="bg_ring" d="M 188.7566,210.4339 C 204.4817,210.4339 217.2287,223.1815 217.2287,238.906 217.2287,242.3574 216.6142,245.6652 215.4893,248.7264 206.8571,245.5467 198.2576,243.2509 189.1699,243.1324 179.4372,243.0055 170.5654,245.176 161.874,248.3037 160.8455,245.3613 160.2844,242.1994 160.2844,238.906 160.2844,223.1815 173.0314,210.4339 188.7566,210.4339 Z" class="c_3" />
      <path id="fr_ring_0_0" d="M 188.7566,209.5778 C 196.8552,209.5778 204.1876,212.8607 209.4947,218.1678 214.8019,223.4752 218.0848,230.8074 218.0848,238.906 218.0848,240.659 217.9302,242.3787 217.6342,244.0506 217.3311,245.7619 216.8788,247.4236 216.292,249.0207 L 215.9967,249.8244 215.195,249.5291 C 210.9038,247.9484 206.6287,246.5891 202.3131,245.614 198.0008,244.6398 193.637,244.0432 189.1598,243.985 184.3571,243.9224 179.7644,244.4271 175.2987,245.3335 170.8244,246.2417 166.4724,247.5551 162.1617,249.1063 L 161.3523,249.3977 161.0681,248.5846 C 160.531,247.0483 160.1178,245.4558 159.8411,243.82 159.5699,242.2165 159.4283,240.5742 159.4283,238.906 159.4283,230.8074 162.7113,223.4752 168.0185,218.1678 173.3256,212.8607 180.658,209.5778 188.7566,209.5778 Z M 208.2842,219.3783 C 203.287,214.3811 196.3826,211.29 188.7566,211.29 181.1305,211.29 174.2262,214.3811 169.229,219.3783 164.2317,224.3758 161.1405,231.2802 161.1405,238.906 161.1405,240.4913 161.273,242.0395 161.5266,243.5392 161.7389,244.794 162.0355,246.0191 162.4096,247.2079 166.5217,245.759 170.6827,244.5305 174.9641,243.6614 179.5401,242.7326 184.2501,242.2155 189.18,242.2797 193.7904,242.3398 198.2706,242.9507 202.6877,243.9487 206.8254,244.8834 210.8995,246.1535 214.9687,247.626 215.3847,246.3742 215.714,245.082 215.9487,243.7565 216.2271,242.1837 216.3727,240.5626 216.3727,238.906 216.3727,231.2802 213.2815,224.3758 208.2842,219.3783 Z" class="c_6" />
      <path id="bg_cerana" d="M 188.8478,203.4471 L 178.0668,193.4807 167.5124,203.9 156.958,193.4807 146.4036,203.9 135.8494,193.4807 125.295,203.9 114.7406,193.4807 104.1862,203.9 C 89.9574,191.8225 73.9826,187.091 56.262,189.7055 73.2152,191.9247 85.7723,199.1729 93.9336,211.4502 L 169.5485,211.4502 177.2382,227.004 C 184.978,227.004 192.7177,227.004 200.4574,227.004 L 208.1472,211.4502 283.7621,211.4502 C 291.9234,199.1729 304.4805,191.9247 321.4337,189.7055 303.7131,187.091 287.7383,191.8225 273.5094,203.9 L 262.9551,193.4807 252.4007,203.9 241.8463,193.4807 231.2921,203.9 220.7377,193.4807 210.1833,203.9 199.6289,193.4807 188.8478,203.4471 Z" class="c_3" />
      <path id="fr_cerana" d="M 187.976,204.3813 L 178.0976,195.2496 168.4102,204.813 C 167.9113,205.3038 167.1116,205.3021 166.6145,204.813 L 156.958,195.2801 147.3015,204.813 C 146.8026,205.3038 146.0028,205.3021 145.5057,204.813 L 135.8494,195.2801 126.1929,204.813 C 125.694,205.3038 124.8942,205.3021 124.3972,204.813 L 114.7406,195.2801 105.0841,204.813 C 104.6081,205.2812 103.8587,205.3011 103.3591,204.8775 L 103.3586,204.8782 C 96.3801,198.9549 88.9845,194.8359 81.1725,192.5222 76.2308,191.0587 71.1147,190.3152 65.8237,190.2911 70.651,191.5994 75.0542,193.4015 79.0318,195.6975 85.29,199.3097 90.484,204.1329 94.6128,210.1661 L 169.5485,210.1661 C 170.0866,210.1661 170.5474,210.497 170.7385,210.9667 L 178.0324,225.7199 199.6633,225.7199 206.9985,210.8833 C 207.2214,210.4315 207.6751,210.1693 208.1472,210.169 L 208.1472,210.1661 283.0829,210.1661 C 287.2117,204.1329 292.4057,199.3097 298.6639,195.6975 302.6415,193.4015 307.0447,191.5994 311.872,190.2911 306.581,190.3152 301.4649,191.0587 296.5232,192.5222 288.7112,194.8359 281.3156,198.9549 274.3371,204.8782 273.8137,205.321 273.0381,205.2715 272.5748,204.7765 L 262.9551,195.2801 253.2985,204.813 C 252.7996,205.3038 251.9998,205.3021 251.5028,204.813 L 241.8463,195.2801 232.1899,204.813 C 231.691,205.3038 230.8913,205.3021 230.3942,204.813 L 220.7377,195.2801 211.0812,204.813 C 210.5822,205.3038 209.7825,205.3021 209.2854,204.813 L 199.5981,195.2496 189.7156,204.3852 C 189.2208,204.8429 188.4607,204.8345 187.976,204.3813 Z M 178.9345,192.5426 L 188.8478,201.7069 198.7023,192.5971 198.716,192.5829 C 199.2118,192.0788 200.0227,192.0719 200.5268,192.5678 L 210.1833,202.1007 219.8398,192.5678 C 220.3369,192.0786 221.1366,192.0769 221.6356,192.5678 L 231.2921,202.1007 240.9484,192.5678 C 241.4455,192.0786 242.2452,192.0769 242.7442,192.5678 L 252.4007,202.1007 262.0572,192.5678 C 262.5542,192.0786 263.354,192.0769 263.8529,192.5678 L 273.5805,202.1709 C 280.5679,196.4181 287.9753,192.382 295.801,190.0642 303.9698,187.6449 312.5759,187.1023 321.6193,188.4365 L 321.6189,188.439 C 322.1718,188.5197 322.6269,188.9585 322.7027,189.54 322.7942,190.2408 322.3,190.8832 321.5992,190.9746 313.2899,192.0622 306.0691,194.3759 299.9381,197.9148 293.8604,201.4228 288.8393,206.1486 284.8752,212.0907 284.6533,212.4755 284.2381,212.7343 283.7621,212.7343 L 208.9413,212.7343 201.6474,227.4875 C 201.4563,227.9572 200.9956,228.2881 200.4574,228.2881 L 177.2382,228.2881 177.2382,228.2852 C 176.7662,228.2849 176.3125,228.0227 176.0895,227.5709 L 168.7544,212.7343 93.9336,212.7343 93.9336,212.7316 C 93.5183,212.7313 93.1114,212.5296 92.8652,212.1575 88.8943,206.1839 83.8581,201.436 77.7576,197.9148 71.647,194.3875 64.4534,192.0778 56.1788,190.9856 55.5871,190.9477 55.0822,190.5012 54.993,189.8911 54.8906,189.1903 55.3756,188.5389 56.0764,188.4365 65.1198,187.1023 73.7259,187.6449 81.8947,190.0642 89.7204,192.382 97.1278,196.4181 104.1152,202.1709 L 113.8428,192.5678 C 114.3398,192.0786 115.1396,192.0769 115.6385,192.5678 L 125.295,202.1007 134.9515,192.5678 C 135.4486,192.0786 136.2483,192.0769 136.7473,192.5678 L 146.4036,202.1007 156.0601,192.5678 C 156.5572,192.0786 157.3569,192.0769 157.8559,192.5678 L 167.5124,202.1007 177.1689,192.5678 177.1708,192.5697 C 177.654,192.0937 178.4315,192.0773 178.9345,192.5426 Z" class="c_6" />
      <path id="bg_ring_0" d="M 220.8512,255.4102 C 214.8605,267.0373 202.7376,274.9888 188.7566,274.9888 174.6056,274.9888 162.3596,266.8418 156.4476,254.9836 167.022,250.6468 177.538,247.245 189.1199,247.396 199.8953,247.5366 210.2129,251.0509 220.8512,255.4102 Z" class="c_7" />
      <path id="fr_ring_0_2" d="M 221.6104,255.8015 C 218.4929,261.8521 213.7525,266.931 207.965,270.4613 202.366,273.8768 195.7894,275.8449 188.7566,275.8449 181.6382,275.8449 174.9869,273.8276 169.343,270.3329 163.5091,266.7205 158.7565,261.5323 155.6817,255.3649 L 155.2724,254.5435 156.1231,254.1944 C 161.4521,252.0088 166.7643,250.0593 172.1954,248.6774 177.6543,247.2883 183.2502,246.4668 189.13,246.5434 194.5973,246.6146 199.9409,247.5399 205.2611,248.9983 210.5615,250.4516 215.8311,252.4309 221.1757,254.6211 L 222.0367,254.974 221.6104,255.8015 Z M 207.0754,269.0032 C 212.3312,265.797 216.6819,261.2524 219.6534,255.8431 214.66,253.8162 209.7373,251.9939 204.8129,250.6437 199.6214,249.2205 194.4176,248.3177 189.1098,248.2487 183.4077,248.1744 177.9541,248.9781 172.6166,250.3362 167.5451,251.6267 162.5916,253.4126 157.6352,255.4208 160.5743,260.949 164.9398,265.6004 170.2392,268.8817 175.6158,272.2108 181.9597,274.1327 188.7566,274.1327 195.4688,274.1327 201.7406,272.2576 207.0754,269.0032 Z" class="c_6" />
      <path id="bg_ring_bottom" d="M 213.7099,252.6249 C 208.8648,261.4191 199.5072,267.3782 188.7566,267.3782 177.8452,267.3782 168.3688,261.2397 163.5893,252.2283 171.8081,249.2962 180.144,247.2791 189.1199,247.396 197.4709,247.5049 205.5466,249.6404 213.7099,252.6249 Z" class="c_7" />
      <path id="fr_ring_0_1" d="M 214.459,253.0361 C 211.9205,257.6439 208.1792,261.4962 203.6587,264.1689 199.2899,266.7517 194.1951,268.2343 188.7566,268.2343 183.2345,268.2343 178.0669,266.7062 173.6545,264.0501 169.0927,261.3039 165.3381,257.3484 162.8335,252.6262 L 162.3712,251.7544 163.3016,251.4224 C 167.4336,249.9482 171.6095,248.7011 175.9034,247.8326 180.1919,246.9654 184.5789,246.4841 189.13,246.5434 193.3716,246.5987 197.5368,247.1671 201.6726,248.0994 205.7972,249.0293 209.8905,250.3194 214.0008,251.8222 L 214.9387,252.1653 214.459,253.0361 Z M 202.7893,262.6974 C 206.7598,260.3499 210.0919,257.0363 212.4617,253.0813 208.7317,251.7479 205.0211,250.6041 201.298,249.7647 197.2675,248.8562 193.2185,248.3021 189.1098,248.2487 184.6852,248.191 180.4155,248.66 176.238,249.5048 172.3885,250.2833 168.5991,251.3885 164.8267,252.6997 167.1715,256.7594 170.5215,260.1682 174.5373,262.5855 178.6886,265.0844 183.5538,266.5221 188.7566,266.5221 193.882,266.5221 198.6792,265.1274 202.7893,262.6974 Z" class="c_6" />
      <path id="fr_4_lines" d="M 99.5714,269.0039 C 99.931,268.5714 100.4592,268.2805 101.0644,268.2379 117.9597,267.0056 131.9867,260.8988 145.4058,255.057 159.6737,248.8457 173.2735,242.925 189.1699,243.1324 203.4786,243.3188 216.5769,248.9024 230.4985,254.8368 244.3964,260.7611 259.1371,267.0447 276.4554,268.3897 277.0583,268.4346 277.5841,268.7257 277.9419,269.157 276.6316,270.2516 275.2913,271.3506 273.9228,272.4541 256.8794,270.7234 242.4565,264.5764 228.8264,258.7663 215.2952,252.9983 202.5641,247.5714 189.1199,247.396 174.145,247.2009 160.952,252.9442 147.1111,258.9697 133.9417,264.7029 120.2004,270.6842 103.5947,272.3103 102.2243,271.2035 100.8833,270.1016 99.5714,269.0039 Z M 153.2047,306.6751 C 153.4395,306.2895 153.7978,305.9752 154.2507,305.7983 164.6861,301.7187 175.5387,299.4716 186.8966,299.449 198.2287,299.4264 210.0338,301.6238 222.3939,306.4311 222.8507,306.6076 223.2118,306.9244 223.4476,307.3129 222.0806,308.1464 220.6983,308.9823 219.3029,309.82 208.0121,305.619 197.2343,303.6921 186.8966,303.7127 176.6665,303.7331 166.8388,305.6656 157.3468,309.1906 155.9519,308.3499 154.5711,307.5115 153.2047,306.6751 Z M 130.939,292.3861 C 131.1618,292.0543 131.4798,291.781 131.8749,291.6129 152.3697,282.8251 172.0031,278.7804 190.8571,279.0215 209.7395,279.2629 227.8028,283.8007 245.1338,292.1755 245.4889,292.3469 245.7749,292.6037 245.9793,292.9093 244.7123,293.762 243.4304,294.6167 242.1317,295.4742 225.7015,287.7148 208.6185,283.5129 190.8071,283.2852 172.9479,283.0568 154.3185,286.8217 134.8399,294.9946 133.5236,294.1226 132.2225,293.2532 130.939,292.3861 Z" class="c_8" />
      <path id="fr_ring_1" d="M 188.7566,216.6905 C 194.8912,216.6905 200.4451,219.1773 204.4653,223.1973 208.4853,227.2175 210.9721,232.7715 210.9721,238.906 210.9721,245.0406 208.4853,250.5946 204.4653,254.6148 200.4451,258.6348 194.8912,261.1215 188.7566,261.1215 182.622,261.1215 177.0681,258.6348 173.0479,254.6148 169.0278,250.5946 166.5411,245.0406 166.5411,238.906 166.5411,232.7715 169.0278,227.2175 173.0479,223.1973 177.0681,219.1773 182.622,216.6905 188.7566,216.6905 Z M 203.2548,224.4078 C 199.5445,220.6977 194.4184,218.4027 188.7566,218.4027 183.0948,218.4027 177.9687,220.6977 174.2584,224.4078 170.5482,228.1181 168.2532,233.2442 168.2532,238.906 168.2532,244.5679 170.5482,249.694 174.2584,253.4042 177.9687,257.1144 183.0948,259.4094 188.7566,259.4094 194.4184,259.4094 199.5445,257.1144 203.2548,253.4042 206.9649,249.694 209.2599,244.5679 209.2599,238.906 209.2599,233.2442 206.9649,228.1181 203.2548,224.4078 Z" class="c_6" />
      <path id="fr_ring_2" d="M 188.7566,222.6703 C 193.2399,222.6703 197.2988,224.4876 200.2369,227.4257 203.175,230.3638 204.9923,234.423 204.9923,238.906 204.9923,243.389 203.175,247.4483 200.2369,250.3864 197.2988,253.3245 193.2399,255.1418 188.7566,255.1418 184.2732,255.1418 180.2144,253.3245 177.2763,250.3864 174.3382,247.4483 172.5208,243.389 172.5208,238.906 172.5208,234.423 174.3382,230.3638 177.2763,227.4257 180.2144,224.4876 184.2732,222.6703 188.7566,222.6703 Z M 199.0264,228.6362 C 196.3984,226.0082 192.7672,224.3825 188.7566,224.3825 184.746,224.3825 181.1148,226.0082 178.4868,228.6362 175.8587,231.2642 174.233,234.8954 174.233,238.906 174.233,242.9166 175.8587,246.5478 178.4868,249.1758 181.1148,251.8039 184.746,253.4296 188.7566,253.4296 192.7672,253.4296 196.3984,251.8039 199.0264,249.1758 201.6544,246.5478 203.2801,242.9166 203.2801,238.906 203.2801,234.8954 201.6544,231.2642 199.0264,228.6362 Z" class="c_6" />
      <path id="bg_circle" d="M 191.1122,229.7863 C 195.173,230.8322 198.1736,234.5187 198.1736,238.906 198.1736,240.6718 197.6871,242.3239 196.8415,243.7363 L 196.8305,243.7347 C 195.187,246.4386 192.1864,248.2487 188.7566,248.2487 185.2723,248.2487 182.2306,246.3809 180.6051,243.6053 L 180.595,243.6065 C 179.7966,242.2232 179.3396,240.618 179.3396,238.906 179.3396,234.5187 182.3402,230.8322 186.401,229.7863 L 186.401,209.5778 191.1122,209.5778 191.1122,229.7863 Z" class="c_01" />
      <path id="fr_circle" d="M 188.7566,228.8451 C 189.3404,228.8451 189.9128,228.8935 190.4701,228.9862 L 190.4701,210.2198 187.043,210.2198 187.043,228.9862 C 187.6004,228.8935 188.1727,228.8451 188.7566,228.8451 Z M 191.7543,229.285 C 193.3793,229.7748 194.8336,230.6525 196.0063,231.8087 197.8674,233.6436 199.0189,236.1775 199.0189,238.9749 199.0189,241.7722 197.8674,244.3062 196.0063,246.1412 194.1493,247.9722 191.5856,249.1048 188.7566,249.1048 185.9276,249.1048 183.3639,247.9722 181.5069,246.1412 179.6457,244.3062 178.4943,241.7722 178.4943,238.9749 178.4943,236.1775 179.6457,233.6436 181.5069,231.8087 182.6795,230.6525 184.1339,229.7748 185.7589,229.285 L 185.7589,209.5778 185.7589,208.9357 186.401,208.9357 191.1122,208.9357 191.7543,208.9357 191.7543,209.5778 191.7543,229.285 Z M 194.8091,233.0261 C 193.2622,231.5007 191.1221,230.5573 188.7566,230.5573 186.391,230.5573 184.251,231.5007 182.704,233.0261 181.161,234.5473 180.2065,236.6506 180.2065,238.9749 180.2065,241.2991 181.161,243.4026 182.704,244.9238 184.251,246.4492 186.391,247.3926 188.7566,247.3926 191.1221,247.3926 193.2622,246.4492 194.8091,244.9238 196.3522,243.4026 197.3067,241.2991 197.3067,238.9749 197.3067,236.6506 196.3522,234.5473 194.8091,233.0261 Z" class="c_6" />
      <path id="bg_keris" d="M 175.3766,215.3435 L 202.1366,215.3435 C 196.1155,211.0984 191.1782,201.1269 191.4493,197.4274 191.6584,194.573 193.7793,187.5316 193.9095,184.7601 194.1012,180.6835 190.2281,178.588 190.1863,175.112 190.1303,170.4485 192.5366,169.1571 192.8008,164.1476 192.9286,161.7243 189.3967,157.6683 188.8732,154.2719 188.3554,150.9131 189.3162,148.3928 188.7566,145.4711 188.2583,148.6158 186.0767,153.4287 186.3523,157.2657 186.5777,160.4044 189.2908,162.5136 188.8732,165.6738 188.3327,169.7647 184.5969,173.7974 184.5723,177.0151 184.5373,181.6118 188.5156,181.8211 188.07,186.332 187.7398,189.6763 182.7832,192.9826 182.4528,196.2256 182.0328,200.3458 186.1549,203.1203 184.9067,207.2015 183.9672,210.2741 178.3547,213.3267 175.3766,215.3435 Z" class="c_01" />
      <path id="fr_keris" d="M 177.5379,214.7015 L 200.2914,214.7015 C 198.0342,212.728 195.9905,210.0671 194.3861,207.3775 192.0705,203.4954 190.6544,199.5031 190.8098,197.3823 190.9146,195.9511 191.4709,193.5595 192.0316,191.1472 192.6158,188.6346 193.2057,186.098 193.2699,184.7299 193.362,182.7714 192.3749,181.2529 191.4223,179.7876 190.4809,178.3394 189.5687,176.9365 189.5469,175.1195 189.5166,172.6017 190.1573,171.0392 190.8263,169.407 191.4201,167.9592 192.0381,166.4516 192.1613,164.1151 192.2172,163.0505 191.3642,161.4575 190.4498,159.7503 189.5106,157.9972 188.5111,156.1309 188.239,154.3696 L 188.2387,154.3696 C 188.0126,152.9035 188.056,151.6058 188.1397,150.3684 187.4771,152.6614 186.8412,155.1224 186.9918,157.2205 187.0841,158.5086 187.6625,159.6565 188.2316,160.7862 189.0043,162.3204 189.7627,163.8261 189.5077,165.7566 189.2252,167.8955 188.1459,169.96 187.1239,171.9151 186.1459,173.7859 185.223,175.551 185.2119,177.0176 185.1965,179.0399 186.0686,180.1504 186.9162,181.2292 187.9537,182.5502 188.9603,183.8314 188.7071,186.3947 188.5218,188.2711 187.1182,190.0235 185.7257,191.7619 184.4753,193.3227 183.2341,194.872 183.0898,196.2884 182.9134,198.0206 183.6562,199.5607 184.3876,201.0765 185.3329,203.0354 186.2611,204.9597 185.5187,207.387 184.679,210.1334 180.6506,212.7135 177.5379,214.7015 Z M 202.1366,215.9856 L 175.3766,215.9856 173.2879,215.9856 175.0179,214.8143 C 175.5531,214.452 176.1669,214.0597 176.8227,213.6409 179.7659,211.7611 183.5911,209.3177 184.2948,207.0158 184.8907,205.0674 184.0698,203.3656 183.234,201.6333 182.4246,199.956 181.6028,198.2521 181.8156,196.163 181.9988,194.3652 183.3581,192.6685 184.7275,190.9592 186.0013,189.3689 187.2851,187.7662 187.4329,186.2694 187.6353,184.2206 186.7848,183.1376 185.908,182.0216 184.9252,180.7707 183.9142,179.4831 183.9329,177.0125 183.9462,175.2322 184.9384,173.3345 185.99,171.3231 186.9607,169.4662 187.9858,167.5054 188.2387,165.5912 188.4421,164.0518 187.7712,162.7201 187.0879,161.3632 186.4607,160.1182 185.8235,158.8534 185.7128,157.3109 185.5269,154.7228 186.3893,151.7815 187.1607,149.1504 187.5711,147.7508 187.9549,146.4413 188.1246,145.3707 L 188.6975,141.7555 189.3862,145.3507 C 189.6829,146.9002 189.5781,148.3057 189.469,149.7678 189.3668,151.1415 189.2603,152.5689 189.5077,154.1741 L 189.5077,154.1765 C 189.7469,155.7291 190.6912,157.4919 191.5784,159.1483 192.5802,161.0187 193.5149,162.7637 193.4403,164.1802 193.3057,166.7339 192.6448,168.3458 192.0101,169.8936 191.3915,171.403 190.7989,172.8483 190.8259,175.1044 190.843,176.5483 191.6565,177.7992 192.4958,179.0904 193.5591,180.7257 194.6603,182.4199 194.5489,184.7902 194.479,186.2788 193.8769,188.8681 193.2805,191.4331 192.7312,193.7954 192.1866,196.1377 192.0888,197.4727 191.9507,199.3576 193.2954,203.0503 195.4846,206.7203 197.3516,209.85 199.8229,212.928 202.5052,214.8193 L 204.1593,215.9856 202.1366,215.9856 Z" class="c_6" />
     </g>
     <g id="g_banner">
      <path id="bg_left_right_banner" d="M 296.3814,325.9645 C 316.2495,327.5705 338.4349,322.0928 362.9335,309.807 357.1256,306.4344 352.1365,302.579 348.2072,297.6968 353.9716,289.2388 363.9642,281.9887 365.5005,272.3228 347.5631,285.4997 312.3744,287.7858 296.3814,295.8194 L 296.3814,325.9645 Z M 80.494,325.9645 C 60.6259,327.5705 38.4405,322.0928 13.9419,309.807 19.7498,306.4344 24.7389,302.579 28.6682,297.6968 22.9038,289.2388 12.9112,281.9887 11.3749,272.3228 29.3123,285.4997 64.501,287.7858 80.494,295.8194 L 80.494,325.9645 Z" class="c_9" />
      <path id="fr_right_banner" d="M 297.6655,324.7721 C 307.1209,325.3979 317.1063,324.4145 327.6201,321.8512 337.9868,319.3238 348.8696,315.2634 360.2673,309.6995 358.0704,308.3327 355.9962,306.8806 354.0582,305.3112 351.525,303.26 349.2314,301.0124 347.209,298.4994 346.8469,298.0491 346.8391,297.4285 347.1491,296.9746 L 347.1487,296.9744 C 349.1211,294.08 351.5375,291.367 353.9531,288.6544 357.7829,284.3541 361.612,280.0536 363.3901,275.2886 352.601,281.9848 337.3283,285.6345 323.3405,288.9761 313.3618,291.3598 304.0473,293.5855 297.6655,296.6157 L 297.6655,324.7721 Z M 328.2221,324.3393 C 317.0106,327.0726 306.3798,328.0537 296.3314,327.2476 295.6453,327.2214 295.0973,326.6569 295.0973,325.9645 L 295.0973,295.8194 295.1026,295.8194 C 295.1031,295.3506 295.3618,294.8994 295.8095,294.6756 302.4603,291.3348 312.2417,288.9979 322.7484,286.488 337.7804,282.8969 354.3217,278.9452 364.7431,271.2895 L 364.7439,271.2905 C 365.0096,271.0957 365.35,271.003 365.7012,271.0587 366.3993,271.1695 366.8754,271.8254 366.7646,272.5235 365.6808,279.3427 360.7751,284.8515 355.8694,290.3597 353.7293,292.763 351.5887,295.1662 349.8158,297.6336 351.5704,299.7076 353.5302,301.5892 355.6735,303.3247 358.0789,305.2725 360.7237,307.0424 363.5755,308.6984 L 363.5743,308.7004 C 363.7837,308.8215 363.9611,309.0028 364.0772,309.2351 364.3929,309.8668 364.1369,310.635 363.5053,310.9507 351.1679,317.1379 339.4064,321.6125 328.2221,324.3393 Z" class="c_6" />
      <path id="bg_back_banner" d="M 322.7565,314.3876 C 326.536,312.1621 307.8578,301.5276 296.3814,295.8194 L 296.3814,325.9645 C 305.2354,322.5252 314.0273,318.6669 322.7565,314.3876 Z M 54.1189,314.3876 C 50.3394,312.1621 69.0176,301.5276 80.494,295.8194 L 80.494,325.9645 C 71.64,322.5252 62.8481,318.6669 54.1189,314.3876 Z" class="c_9" />
      <path id="fr_rght_banner_1" d="M 324.1115,314.8756 C 323.9305,315.1153 323.697,315.3213 323.4087,315.4911 L 323.4071,315.4885 C 323.3784,315.5055 323.3487,315.5214 323.3183,315.5363 318.9166,317.694 314.5209,319.7363 310.1321,321.6627 305.7587,323.5823 301.3623,325.4012 296.9437,327.1192 296.7738,327.2019 296.5831,327.2486 296.3814,327.2486 295.6722,327.2486 295.0973,326.6737 295.0973,325.9645 L 295.0973,295.8194 295.0981,295.8194 C 295.098,295.6269 295.1411,295.4314 295.2327,295.2475 295.5484,294.6131 296.3189,294.3549 296.9533,294.6707 303.9241,298.138 313.547,303.4197 319.2647,307.5695 321.0229,308.8458 322.4326,310.0303 323.3167,311.0458 324.5695,312.4847 324.9315,313.7882 324.1115,314.8756 Z M 322.0656,313.3021 C 322.0261,313.2331 321.717,313.1179 321.3806,312.7312 320.6255,311.864 319.3624,310.8095 317.7597,309.6461 312.6599,305.9447 304.317,301.2901 297.6655,297.9026 L 297.6655,324.0868 C 301.4861,322.5773 305.3008,320.9867 309.1089,319.3153 313.4645,317.4034 317.7838,315.3986 322.0656,313.3021 Z" class="c_6" />
      <path id="fr_left_banner_1" d="M 53.4667,315.4911 C 53.1784,315.3213 52.9448,315.1153 52.7639,314.8756 51.9439,313.7882 52.3059,312.4847 53.5587,311.0458 54.4428,310.0303 55.8525,308.8458 57.6107,307.5695 63.3284,303.4197 72.9513,298.138 79.9221,294.6707 80.5565,294.3549 81.3269,294.6131 81.6427,295.2475 81.7343,295.4314 81.7774,295.6269 81.7773,295.8194 L 81.7781,295.8194 81.7781,325.9645 C 81.7781,326.6737 81.2032,327.2486 80.494,327.2486 80.2923,327.2486 80.1015,327.2019 79.9317,327.1192 75.5131,325.4012 71.1167,323.5823 66.7433,321.6627 62.3545,319.7363 57.9588,317.694 53.5571,315.5363 53.5266,315.5214 53.497,315.5055 53.4683,315.4885 L 53.4667,315.4911 Z M 55.4948,312.7312 C 55.1583,313.1179 54.8493,313.2331 54.8098,313.3021 59.0916,315.3986 63.4109,317.4034 67.7665,319.3153 71.5745,320.9867 75.3893,322.5773 79.2098,324.0868 L 79.2098,297.9026 C 72.5584,301.2901 64.2154,305.9447 59.1157,309.6461 57.5129,310.8095 56.2499,311.864 55.4948,312.7312 Z" class="c_6" />
      <path id="fr_left_banner" d="M 80.544,327.2476 C 70.4955,328.0537 59.8648,327.0726 48.6533,324.3393 37.469,321.6125 25.7075,317.1379 13.3701,310.9507 12.7384,310.635 12.4825,309.8668 12.7982,309.2351 12.9143,309.0028 13.0917,308.8215 13.3011,308.7004 L 13.2999,308.6984 C 16.1517,307.0424 18.7965,305.2725 21.2019,303.3247 23.3452,301.5892 25.305,299.7076 27.0596,297.6336 25.2866,295.1662 23.1461,292.763 21.006,290.3597 16.1003,284.8515 11.1946,279.3427 10.1108,272.5235 10,271.8254 10.4761,271.1695 11.1742,271.0587 11.5254,271.003 11.8657,271.0957 12.1315,271.2905 L 12.1323,271.2895 C 22.5537,278.9452 39.095,282.8969 54.1269,286.488 64.6337,288.9979 74.4151,291.3348 81.0658,294.6756 81.5136,294.8994 81.7723,295.3506 81.7728,295.8194 L 81.7781,295.8194 81.7781,325.9645 C 81.7781,326.6569 81.23,327.2214 80.544,327.2476 Z M 49.2553,321.8512 C 59.7691,324.4145 69.7545,325.3979 79.2098,324.7721 L 79.2098,296.6157 C 72.828,293.5855 63.5136,291.3598 53.5349,288.9761 39.547,285.6345 24.2744,281.9848 13.4853,275.2886 15.2634,280.0536 19.0925,284.3541 22.9223,288.6544 25.3378,291.367 27.7542,294.08 29.7267,296.9744 L 29.7263,296.9746 C 30.0362,297.4285 30.0285,298.0491 29.6664,298.4994 27.644,301.0124 25.3503,303.26 22.8172,305.3112 20.8792,306.8806 18.805,308.3327 16.6081,309.6995 28.0058,315.2634 38.8885,319.3238 49.2553,321.8512 Z" class="c_6" />
      <path id="bg_main_banner" d="M 54.1189,314.3876 C 137.5821,355.3032 226.6839,358.2889 322.7565,314.3876 L 322.7565,351.5164 C 229.0659,386.5645 139.7037,385.0133 54.1189,351.5164 L 54.1189,314.3876 Z" class="c_9" />
      <path id="fr_main_banner" d="M 54.7856,313.2899 C 96.3135,333.6308 139.2369,344.5437 183.7194,344.9147 228.2502,345.2863 274.3635,335.0945 322.2249,313.2238 322.8674,312.9304 323.6268,313.2134 323.9203,313.856 323.999,314.0286 324.0364,314.2095 324.0362,314.3876 L 324.0406,314.3876 324.0406,351.5164 C 324.0406,352.1083 323.6398,352.6069 323.095,352.7553 276.1412,370.3065 230.2627,378.6941 185.393,378.5 140.4769,378.3053 96.5862,369.5141 53.6523,352.7103 53.1464,352.5127 52.837,352.0288 52.8368,351.5164 L 52.8348,351.5164 52.8348,314.3876 C 52.8348,313.6784 53.4097,313.1035 54.1189,313.1035 54.363,313.1035 54.5913,313.1716 54.7856,313.2899 Z M 183.6992,347.4731 C 139.4438,347.1039 96.7314,336.3987 55.403,316.4342 L 55.403,350.6399 C 97.7928,367.1253 141.1041,375.7497 185.4029,375.9416 229.7318,376.1336 275.0662,367.8848 321.4724,350.6284 L 321.4724,316.3746 C 273.9103,337.8368 228.0384,347.8432 183.6992,347.4731 Z" class="c_6" />
      <path id="tx_slogan" d="M 63.9362,338.3425 L 65.9655,338.8461 C 65.9125,339.9427 66.025,340.8069 66.3065,341.4482 66.5882,342.0896 67.0366,342.5351 67.6516,342.7884 68.3017,343.056 68.8286,343.0399 69.2299,342.7389 69.6314,342.4381 69.8815,341.9956 69.9776,341.4109 70.0396,341.0334 70.0218,340.6865 69.9276,340.3632 69.8329,340.0436 69.6273,339.7142 69.3131,339.3791 69.0987,339.1486 68.5988,338.6978 67.8117,338.0182 66.7996,337.143 66.1261,336.3047 65.7917,335.4991 65.3206,334.3689 65.1903,333.1733 65.3977,331.9114 65.5311,331.101 65.8014,330.3984 66.205,329.8101 66.6113,329.2226 67.1157,328.8574 67.7213,328.7115 68.3269,328.5658 69.0121,328.6504 69.7836,328.968 71.0393,329.4851 71.9139,330.3155 72.4022,331.4609 72.8928,332.6071 73.0314,333.9207 72.8214,335.4108 L 70.769,334.6841 C 70.8174,333.827 70.7294,333.1625 70.5055,332.687 70.2815,332.2117 69.8858,331.8549 69.32,331.6221 68.7354,331.3813 68.2456,331.3851 67.8524,331.634 67.599,331.7943 67.4374,332.0795 67.3693,332.4939 67.3071,332.8714 67.3547,333.2348 67.5121,333.584 67.7103,334.0331 68.2714,334.6435 69.195,335.419 70.1192,336.1907 70.7832,336.8748 71.1886,337.4608 71.596,338.0511 71.8771,338.7399 72.0312,339.5344 72.1851,340.3287 72.1798,341.2274 72.0149,342.2302 71.8653,343.1406 71.5656,343.9299 71.1147,344.5935 70.6635,345.2573 70.1147,345.6636 69.4669,345.8078 68.8186,345.9557 68.0574,345.8477 67.1852,345.4885 65.9155,344.9657 65.0166,344.1016 64.4887,342.8926 63.9605,341.6874 63.778,340.1699 63.9362,338.3425 Z M 72.9758,347.5933 L 75.4018,331.621 82.8722,334.4631 82.4621,337.1623 77.0355,335.0978 76.4969,338.6447 81.5429,340.5644 81.133,343.2637 76.087,341.344 75.4297,345.6715 81.0535,347.811 80.6436,350.5103 72.9758,347.5933 Z M 82.3781,351.1642 L 84.6666,335.1411 87.9447,336.3138 C 89.1865,336.7581 89.9837,337.1257 90.3378,337.421 90.883,337.8707 91.2939,338.5667 91.5701,339.5121 91.8461,340.4578 91.8931,341.5683 91.711,342.8438 91.5704,343.8285 91.3394,344.6124 91.0196,345.2036 90.6975,345.7939 90.3373,346.2179 89.936,346.4781 89.5353,346.7346 89.1456,346.8618 88.7698,346.8567 88.2601,346.8351 87.5442,346.6615 86.6205,346.3309 L 85.2913,345.8556 84.4284,351.8975 82.3781,351.1642 Z M 86.3301,338.5824 L 85.6781,343.1478 86.7927,343.5464 C 87.5964,343.834 88.1436,343.9395 88.4387,343.8686 88.7335,343.7977 88.983,343.6124 89.1877,343.3056 89.392,343.0022 89.529,342.6161 89.5971,342.1386 89.6808,341.5532 89.6411,341.0332 89.481,340.5761 89.3185,340.1181 89.0816,339.7825 88.7631,339.5666 88.5304,339.4089 88.0481,339.1971 87.3127,338.9339 L 86.3301,338.5824 Z M 93.8851,338.3893 L 95.945,339.0524 94.8241,347.7758 C 94.6458,349.1621 94.5566,350.066 94.5539,350.4904 94.557,351.178 94.6944,351.7766 94.9701,352.279 95.2476,352.7858 95.6697,353.1284 96.2378,353.3113 96.8133,353.4965 97.2728,353.4494 97.6151,353.1654 97.9572,352.8815 98.1917,352.4769 98.3217,351.9451 98.4518,351.4133 98.5996,350.5129 98.7633,349.2387 L 99.9084,340.3281 101.9681,340.9911 100.8804,349.4559 C 100.6319,351.3895 100.4016,352.7396 100.1878,353.5018 99.9739,354.2643 99.6837,354.8731 99.3146,355.328 98.9478,355.7836 98.4943,356.0901 97.9551,356.256 97.4136,356.4213 96.7438,356.3773 95.9411,356.1191 94.9727,355.8073 94.2614,355.3948 93.8077,354.8782 93.3538,354.3613 93.0177,353.7732 92.7996,353.1099 92.5816,352.4466 92.4683,351.7936 92.4565,351.1382 92.4398,350.173 92.5489,348.7877 92.7806,346.9853 L 93.8851,338.3893 Z M 109.3175,353.6965 L 111.1969,355.2594 C 110.6795,356.9459 110.0123,358.1131 109.1973,358.7654 108.3826,359.4141 107.4291,359.5778 106.3343,359.2522 104.9785,358.8488 103.952,357.7847 103.2521,356.059 102.5549,354.3341 102.3559,352.2012 102.6581,349.6569 102.9773,346.97 103.6647,345.0113 104.7175,343.7837 105.7705,342.5562 107.0129,342.1556 108.4426,342.5809 109.6914,342.9524 110.6357,343.8403 111.2757,345.2407 111.6589,346.0706 111.8878,347.1659 111.9666,348.5317 L 109.8382,348.6921 C 109.8161,347.8218 109.643,347.0856 109.3183,346.487 108.9911,345.8879 108.5544,345.5089 108.0082,345.3464 107.2507,345.121 106.5848,345.3664 106.0126,346.0871 105.4382,346.8034 105.0381,348.124 104.8095,350.048 104.5676,352.085 104.6275,353.6083 104.9879,354.6105 105.35,355.617 105.9019,356.2286 106.6451,356.4498 107.1937,356.613 107.6986,356.4793 108.1585,356.0441 108.6182,355.609 109.0059,354.8293 109.3175,353.6965 Z M 113.9104,344.3833 L 115.9898,344.8706 115.1658,353.6765 C 115.0348,355.076 114.9764,355.9862 114.988,356.4103 115.0142,357.0967 115.1719,357.6826 115.4642,358.1608 115.7585,358.6435 116.1915,358.9498 116.7651,359.0842 117.3461,359.2203 117.8034,359.1344 118.1354,358.8217 118.4675,358.5091 118.6881,358.0853 118.7997,357.5432 118.9115,357.0012 119.0286,356.0894 119.149,354.8032 L 119.9905,345.8083 122.07,346.2956 121.2704,354.8406 C 121.0879,356.7925 120.9036,358.16 120.7158,358.9394 120.5281,359.7187 120.2588,360.3516 119.9058,360.837 119.5551,361.3231 119.1125,361.6675 118.5797,361.879 118.0446,362.0899 117.3741,362.1029 116.5639,361.9131 115.5864,361.684 114.8622,361.3325 114.3915,360.8549 113.9208,360.3774 113.5652,359.8186 113.3252,359.1746 113.0848,358.531 112.9495,357.8884 112.9155,357.2351 112.8663,356.2725 112.9281,354.88 113.0985,353.0604 L 113.9104,344.3833 Z M 122.772,363.0977 L 124.0766,346.8009 126.1621,347.2191 125.584,354.4382 130.3638,348.0617 133.1587,348.6223 128.7651,354.1896 132.0552,364.9594 129.3659,364.42 127.1452,356.2004 125.2519,358.5882 124.8572,363.516 122.772,363.0977 Z M 141.9526,350.1283 L 144.0425,350.485 143.3374,360.8335 C 143.2452,362.1868 143.0996,363.216 142.8986,363.9201 142.6322,364.8361 142.2149,365.5379 141.6448,366.025 141.077,366.5091 140.3583,366.6786 139.4888,366.5303 138.4702,366.3563 137.7177,365.7742 137.2315,364.7796 136.7428,363.7848 136.5567,362.4146 136.6706,360.6724 L 138.67,360.6445 C 138.6305,361.58 138.6697,362.2523 138.7925,362.6615 138.9758,363.2852 139.2948,363.6357 139.7511,363.7136 140.21,363.7918 140.5509,363.6386 140.7695,363.2489 140.9877,362.8632 141.1431,362.0089 141.2332,360.6859 L 141.9526,350.1283 Z M 154.4801,368.2415 L 152.2221,367.9862 151.4963,364.155 147.3439,363.6855 146.3151,367.3186 144.098,367.0679 148.8572,351.137 151.0719,351.3873 154.4801,368.2415 Z M 150.9416,361.3092 L 149.7764,355.082 148.105,360.9885 150.9416,361.3092 Z M 155.5645,368.425 L 156.1194,352.0213 159.2631,352.2875 160.7424,363.6328 162.9568,352.6005 166.1075,352.8673 165.5528,369.271 163.6131,369.1068 164.0427,356.1925 161.5624,368.933 159.5454,368.7621 157.9483,355.6763 157.5044,368.5892 155.5645,368.425 Z M 167.987,352.9841 L 172.1358,353.1955 C 172.9592,353.2375 173.569,353.3222 173.97,353.4496 174.3736,353.5813 174.7289,353.8251 175.0407,354.1814 175.3525,354.5416 175.6088,355.0099 175.8098,355.5903 176.0106,356.1704 176.1038,356.818 176.0894,357.5251 176.074,358.2894 175.9291,358.9899 175.6553,359.6148 175.3816,360.2435 175.0169,360.7031 174.5635,361.0015 175.1877,361.3278 175.6606,361.8492 175.9868,362.5699 176.3106,363.2903 176.463,364.1243 176.4436,365.076 176.4282,365.8252 176.3048,366.5457 176.0707,367.2417 175.8365,367.9374 175.5257,368.4877 175.1355,368.8924 174.7477,369.2936 174.2739,369.5297 173.7141,369.6006 173.3653,369.6401 172.5217,369.6355 171.186,369.5828 L 167.6531,369.4028 167.987,352.9841 Z M 170.0325,355.8199 L 169.9555,359.6037 171.3271,359.6735 C 172.1409,359.715 172.6484,359.7216 172.8472,359.6936 173.2059,359.6468 173.4923,359.4662 173.7043,359.1518 173.9161,358.8375 174.0262,358.4185 174.037,357.8912 174.0473,357.3826 173.9663,356.9693 173.7964,356.643 173.6266,356.3168 173.3674,356.1124 173.021,356.0297 172.814,355.9809 172.2178,355.9314 171.235,355.8812 L 170.0325,355.8199 Z M 169.9,362.3326 L 169.8105,366.7351 171.7519,366.834 C 172.5054,366.8724 172.9866,366.8625 173.1908,366.808 173.5042,366.7322 173.7622,366.5272 173.9647,366.1892 174.1676,365.8477 174.276,365.3902 174.288,364.8055 174.2981,364.3087 174.2317,363.8884 174.0865,363.5366 173.9437,363.185 173.7291,362.9215 173.4473,362.7503 173.1657,362.5793 172.5467,362.4673 171.5927,362.4187 L 169.9,362.3326 Z M 178.0454,369.8576 L 178.2221,353.4328 180.3238,353.4895 180.1471,369.9143 178.0454,369.8576 Z M 185.6081,364.6729 L 187.6512,364.3389 C 187.7772,365.4205 188.0257,366.2105 188.4013,366.7166 188.777,367.2227 189.2826,367.472 189.9181,367.4681 190.5898,367.4638 191.0966,367.2352 191.436,366.7816 191.7757,366.3284 191.9459,365.7997 191.9443,365.1955 191.9435,364.8055 191.87,364.4771 191.7269,364.2028 191.5837,363.9321 191.3317,363.6966 190.9737,363.4999 190.7294,363.3638 190.1731,363.1303 189.3024,362.7916 188.1827,362.355 187.3961,361.8168 186.9427,361.1734 186.3049,360.2713 185.9858,359.1681 185.9825,357.8643 185.9803,357.0269 186.1282,356.2381 186.4234,355.5061 186.7213,354.7738 187.15,354.2167 187.712,353.8307 188.2739,353.4448 188.9501,353.2493 189.7473,353.2443 191.0447,353.2363 192.0244,353.6852 192.6814,354.595 193.3409,355.5047 193.687,356.7187 193.7246,358.2442 L 191.6229,358.3719 C 191.5313,357.5237 191.3389,356.9168 191.0458,356.5478 190.7525,356.1788 190.3123,355.9941 189.7277,355.9977 189.1235,356.0014 188.6506,356.2033 188.3109,356.6031 188.0917,356.8606 187.9813,357.2017 187.9823,357.6299 187.9834,358.0199 188.0882,358.3519 188.2965,358.6259 188.5607,358.9799 189.2019,359.3431 190.2202,359.7191 191.238,360.0913 191.9905,360.4843 192.4773,360.8864 192.9663,361.2926 193.3495,361.8446 193.6267,362.5503 193.9037,363.2561 194.0436,364.1271 194.0462,365.1633 194.0486,366.104 193.8864,366.9883 193.5575,367.8124 193.2286,368.6366 192.7638,369.2513 192.1609,369.6528 191.5579,370.0581 190.8044,370.2617 189.9034,370.2671 188.5914,370.2753 187.5827,369.8036 186.8771,368.8484 186.1719,367.8968 185.7503,366.5038 185.6081,364.6729 Z M 195.8404,369.8163 L 195.5824,353.3941 203.263,353.0919 203.3067,355.8672 197.7272,356.0867 197.7846,359.7336 202.9726,359.5294 203.0163,362.3046 197.8282,362.5089 197.8981,366.9583 203.6803,366.7308 203.7239,369.5061 195.8404,369.8163 Z M 205.4799,369.4746 L 204.8502,353.0777 207.9927,352.7753 210.279,363.78 211.6849,352.4202 214.8344,352.1173 215.464,368.5142 213.5251,368.7007 213.0223,355.7931 211.4753,368.8979 209.4591,369.0917 206.9305,356.3791 207.4188,369.2881 205.4799,369.4746 Z M 216.7457,351.9691 L 220.8837,351.4515 C 221.7051,351.3486 222.3172,351.3258 222.7247,351.3823 223.1347,351.4422 223.5049,351.6224 223.8398,351.9216 224.1749,352.225 224.4624,352.6456 224.7028,353.1871 224.9431,353.7285 225.0811,354.3555 225.1164,355.0609 225.1544,355.8232 225.0596,356.5447 224.8312,357.2138 224.6031,357.8867 224.2728,358.4076 223.8432,358.7834 224.4865,358.9984 224.993,359.4337 225.3676,360.0925 225.7398,360.7519 225.9496,361.554 225.997,362.5031 226.0343,363.2505 225.9621,363.9882 225.778,364.7209 225.5941,365.4533 225.3236,366.0548 224.9642,366.5257 224.6069,366.9922 224.1526,367.31 223.6011,367.4785 223.2572,367.5792 222.4185,367.7225 221.0873,367.9043 L 217.5637,368.345 216.7457,351.9691 Z M 218.9772,354.4286 L 219.1657,358.2024 220.5338,358.0314 C 221.3453,357.9299 221.8503,357.8475 222.046,357.7847 222.3992,357.6753 222.6713,357.4457 222.8598,357.096 223.0483,356.7464 223.1284,356.3106 223.102,355.7847 223.0769,355.2775 222.9673,354.8808 222.7755,354.5865 222.5839,354.292 222.312,354.1343 221.9619,354.1129 221.7528,354.1007 221.157,354.156 220.1766,354.2786 L 218.9772,354.4286 Z M 219.3017,360.9243 L 219.521,365.3155 221.4573,365.0732 C 222.2088,364.9792 222.6865,364.8851 222.8854,364.795 223.1918,364.6647 223.4337,364.4158 223.6114,364.0444 223.7891,363.6694 223.8648,363.1957 223.8357,362.6123 223.8109,362.1168 223.7155,361.7107 223.5467,361.3867 223.3801,361.0623 223.1484,360.8382 222.8563,360.7173 222.5644,360.5967 221.9415,360.594 220.9901,360.713 L 219.3017,360.9243 Z M 227.9271,367.0378 L 226.9252,350.6873 229.0174,350.3663 230.0194,366.7168 227.9271,367.0378 Z M 232.0658,366.4026 L 231.0722,350.1891 233.1645,349.8681 233.9888,363.3183 239.1686,362.5231 239.3379,365.2864 232.0658,366.4026 Z M 250.0981,363.1857 L 247.8499,363.6045 246.6834,360.0562 242.549,360.8265 241.9685,364.7002 239.761,365.1114 242.55,348.0513 244.7551,347.6405 250.0981,363.1857 Z M 245.8016,357.4254 L 243.9199,351.654 242.9774,357.9516 245.8016,357.4254 Z M 251.2071,362.9392 L 249.6336,346.7019 251.6444,346.2138 256.9212,356.0706 255.8666,345.189 257.7868,344.723 259.3603,360.9602 257.2848,361.464 252.0928,351.7996 253.1271,362.4731 251.2071,362.9392 Z M 265.5867,359.3806 L 263.843,343.3265 265.9146,342.763 267.3612,356.081 272.4902,354.6856 272.7874,357.4217 265.5867,359.3806 Z M 272.3527,340.8283 L 274.4193,340.2198 275.4483,348.9716 C 275.6117,350.3625 275.7433,351.2532 275.8414,351.6484 276.0072,352.2839 276.2767,352.757 276.6511,353.059 277.0287,353.3642 277.501,353.4311 278.0712,353.2631 278.6484,353.0931 279.0634,352.7767 279.3132,352.3101 279.563,351.8437 279.6844,351.3296 279.6788,350.7594 279.6735,350.1893 279.5967,349.2669 279.4466,347.9886 L 278.3957,339.049 280.4623,338.4405 281.4605,346.9329 C 281.6885,348.8726 281.7952,350.2608 281.7777,351.0943 281.7603,351.928 281.6354,352.6649 281.401,353.3056 281.1692,353.9456 280.8215,354.4992 280.3611,354.9731 279.8983,355.4477 279.2668,355.8049 278.4616,356.042 277.4901,356.3279 276.7331,356.3682 276.19,356.1586 275.6468,355.949 275.1956,355.6035 274.8364,355.1179 274.477,354.6327 274.2171,354.0947 274.0507,353.4943 273.8065,352.6093 273.5793,351.2606 273.3666,349.4522 L 272.3527,340.8283 Z M 284.5307,353.8427 L 282.4225,337.758 286.7448,336.3391 C 287.8306,335.9826 288.64,335.8693 289.1699,335.9962 289.702,336.1222 290.1619,336.506 290.5544,337.1466 290.9473,337.7909 291.2067,338.5845 291.3313,339.5354 291.4899,340.7447 291.3979,341.8136 291.054,342.7466 290.7098,343.6797 290.1075,344.3929 289.2449,344.8909 289.7409,345.1537 290.1641,345.4835 290.5146,345.8801 290.8675,346.2757 291.3697,347.0209 292.021,348.1114 L 293.6721,350.8419 291.2185,351.6474 289.2868,348.6183 C 288.596,347.5448 288.1309,346.8774 287.8917,346.6161 287.6556,346.3578 287.4204,346.2006 287.187,346.1523 286.9512,346.1047 286.598,346.1583 286.1249,346.3136 L 285.7085,346.4502 286.5889,353.1671 284.5307,353.8427 Z M 285.373,343.8891 L 286.8917,343.3907 C 287.8758,343.0676 288.4797,342.799 288.7086,342.5872 288.9351,342.3763 289.0992,342.084 289.1942,341.7171 289.2914,341.3493 289.3072,340.9224 289.2438,340.4394 289.1726,339.8965 289.0235,339.4924 288.7971,339.2152 288.5715,338.9418 288.2861,338.8168 287.9436,338.8394 287.7707,338.8572 287.269,339.0022 286.4386,339.2748 L 284.837,339.8006 285.373,343.8891 Z M 303.8873,347.1097 L 301.6787,347.8967 300.2852,344.56 296.2239,346.0069 295.9013,349.9552 293.7328,350.7279 295.3847,333.301 297.5508,332.5292 303.8873,347.1097 Z M 299.2351,342.0886 L 296.9843,336.6584 296.4609,343.077 299.2351,342.0886 Z M 304.9791,346.7129 L 302.3198,330.8339 304.3518,329.9816 305.3991,336.2357 309.3507,334.5781 308.3033,328.3241 310.3352,327.4717 312.9943,343.3507 310.9625,344.203 309.8001,337.2616 305.8486,338.9192 307.011,345.8605 304.9791,346.7129 Z" class="c_6" />
    </g>
  </g>
</svg>