<?xml version="1.0" encoding="UTF-8" standalone="no"?>
<svg
   xmlns:dc="http://purl.org/dc/elements/1.1/"
   xmlns:cc="http://creativecommons.org/ns#"
   xmlns:rdf="http://www.w3.org/1999/02/22-rdf-syntax-ns#"
   xmlns:svg="http://www.w3.org/2000/svg"
   xmlns="http://www.w3.org/2000/svg"
   id="706aaba0-dee4-11f0-b933-0242ac110006"
   version="1.1"
   width="595.275590551pt"
   viewBox="0 0 595.275590551 841.88976378"
   height="841.88976378pt">
  <metadata id="author">cahya dsn</metadata>  
  <metadata
     id="metadata83">
    <rdf:RDF>
      <cc:Work
         rdf:about="">
        <dc:format>image/svg+xml</dc:format>
        <dc:type
           rdf:resource="http://purl.org/dc/dcmitype/StillImage" />
      </cc:Work>
    </rdf:RDF>
  </metadata>
  <defs>
    <style type="text/css">
     <![CDATA[
      .fil_1 {fill:#FFFFFF;fill-rule:evenodd;}
      .fil_2 {fill:#000000;fill-rule:evenodd;}
      .fil_3 {fill:#fef502;fill-rule:evenodd;}
      .fil_4 {fill:#007cc4;fill-rule:evenodd;}
      .fil_5 {fill:#da251c;fill-rule:evenodd;}
      .fil_6 {fill:#252b25;fill-rule:evenodd;}
      .fil_7 {fill:#feea1f;fill-rule:evenodd;}
      .fil_8 {fill:#241443;fill-rule:evenodd;}
      .fil_9 {fill:#fbf501;fill-rule:evenodd;}
     ]]>    
    </style>
  </defs>
  <g
     id="main_symbol">
    <g
       id="g_shield">
      <path
         id="bg_segilima"
         d="M 183.1516,395.9406 C 188.9369,431.5769 235.9903,473.4619 324.3107,521.5959 L 324.3107,521.5961 324.3108,521.5959 C 412.6315,473.4621 459.6848,431.5769 465.4701,395.9406 L 465.4701,218.2363 441.7228,195.7883 206.8989,195.7883 183.1516,218.2363 183.1516,395.9406 Z M 190.4409,394.0172 C 195.9274,427.8132 240.5511,467.5354 324.3107,513.1838 L 324.3107,513.1839 324.3108,513.1838 C 408.0708,467.5355 452.6943,427.8132 458.1808,394.0172 L 458.1808,225.4893 435.6598,204.2004 212.9619,204.2004 190.4409,225.4893 190.4409,394.0172 Z"
         class="fil_1" />
      <path
         id="fr_segilima"
         d="M 184.4358,395.8521 C 187.3184,413.3372 200.384,432.4278 223.6332,453.1235 246.9844,473.9096 280.545,496.2484 324.3108,520.1378 368.077,496.2483 401.6375,473.9096 424.9887,453.1235 448.2378,432.4278 461.3033,413.3372 464.1859,395.8521 L 464.1859,218.7852 441.2165,197.0724 207.4052,197.0724 184.4358,218.7852 184.4358,395.8521 Z M 221.9279,455.0397 C 205.1966,440.1462 185.6054,419.0254 181.8675,396.023 L 181.8675,218.2363 181.8675,217.6876 182.2738,217.3033 206.021,194.8553 206.3926,194.5041 206.8989,194.5041 441.7228,194.5041 442.2291,194.5041 442.6007,194.8553 466.3479,217.3033 466.7542,217.6876 466.7542,218.2363 466.7542,396.023 C 463.0163,419.0254 443.4252,440.1462 426.694,455.0397 403.1325,476.0132 369.2672,498.5412 325.0998,522.6228 324.3352,522.7826 323.64,522.7059 323.0265,522.3523 279.102,498.3726 245.4008,475.9346 221.9279,455.0397 Z M 191.725,393.9285 C 194.4583,410.4935 206.8417,428.5835 228.876,448.1977 251.0123,467.9025 282.8251,489.0789 324.3108,511.7257 365.7966,489.079 397.6096,467.9026 419.7456,448.1977 441.78,428.5835 454.1633,410.4935 456.8967,393.9285 L 456.8967,226.0382 435.1535,205.4845 213.4682,205.4845 191.725,226.0382 191.725,393.9285 Z M 227.1707,450.114 C 211.2856,435.9738 192.7054,415.9377 189.1568,394.0995 L 189.1568,225.4893 189.1568,224.9405 189.5631,224.5563 212.084,203.2674 212.4556,202.9162 212.9619,202.9162 435.6598,202.9162 436.1661,202.9162 436.5377,203.2674 459.0586,224.5563 459.4649,224.9405 459.4649,225.4893 459.4649,394.0995 C 455.9163,415.9377 437.3361,435.9738 421.451,450.114 399.1048,470.006 366.9869,491.372 325.0998,514.2107 324.5238,514.3361 323.8456,514.2792 323.0265,513.9402 281.3821,491.2032 249.4287,469.9273 227.1707,450.114 Z"
				 class="fil_2" />       
      <path
         id="bg_sky_yellow"
         d="M 190.4409,346.6713 L 458.1808,346.6713 458.1808,225.4893 435.6598,204.2004 212.9619,204.2004 190.4409,225.4893 190.4409,346.6713 Z"				 class="fil_3" />
      <path
         id="bg_water_blue"
         d="M 457.7822,375.1334 L 457.7822,394.0171 C 452.2957,427.8129 408.0707,467.5355 324.3109,513.1836 L 324.3107,513.184 324.3107,513.1836 C 240.5511,467.5353 196.3259,427.8129 190.8396,394.0171 L 190.8396,375.1376 C 191.0536,375.3414 191.3359,375.4701 191.6418,375.4897 199.9165,376.5818 207.1099,378.8917 213.2206,382.4189 219.321,385.9401 224.3572,390.688 228.3282,396.6615 228.5743,397.0336 228.9814,397.2354 229.3964,397.2358 L 229.3964,397.2386 304.2175,397.2386 311.5526,412.075 C 311.7754,412.527 312.2293,412.789 312.7013,412.7894 L 312.7013,412.7922 335.9204,412.7922 C 336.4585,412.7922 336.9194,412.4612 337.1104,411.9917 L 344.4043,397.2386 419.2251,397.2386 C 419.7012,397.2386 420.1163,396.9796 420.3382,396.595 424.3024,390.6527 429.3235,385.9269 435.401,382.4189 441.5322,378.88 448.7529,376.5663 457.0621,375.4787 457.3438,375.4421 457.5919,375.3161 457.7822,375.1334 Z"
				 class="fil_4" />
      <path
         id="bg_soil_red"
         d="M 190.8396,358.7529 L 457.7822,358.7529 457.7822,373.2856 C 457.5927,373.1041 457.3488,372.9819 457.082,372.9431 L 457.0822,372.9407 C 448.039,371.6064 439.4327,372.149 431.2641,374.5685 423.4382,376.8861 416.0309,380.9222 409.0435,386.675 L 399.3158,377.0718 C 398.8171,376.581 398.0174,376.5826 397.5203,377.0718 L 387.8635,386.6048 378.2071,377.0718 C 377.7084,376.581 376.9083,376.5826 376.4116,377.0718 L 366.755,386.6048 357.0987,377.0718 C 356.5997,376.581 355.7999,376.5826 355.3029,377.0718 L 345.6463,386.6048 335.9898,377.0718 C 335.4856,376.5763 334.6748,376.5826 334.1793,377.087 L 334.1653,377.1011 324.3109,386.2109 314.3975,377.0467 C 313.8945,376.5812 313.117,376.5978 312.6338,377.0736 L 312.632,377.0718 302.9754,386.6048 293.3189,377.0718 C 292.8199,376.581 292.0201,376.5826 291.5231,377.0718 L 281.8666,386.6048 272.2102,377.0718 C 271.7114,376.581 270.9116,376.5826 270.4144,377.0718 L 260.7581,386.6048 251.1015,377.0718 C 250.6026,376.581 249.8029,376.5826 249.3058,377.0718 L 239.5783,386.675 C 232.5907,380.9222 225.1834,376.8861 217.3577,374.5685 209.1888,372.149 200.5828,371.6064 191.5396,372.9407 191.266,372.9805 191.0253,373.1043 190.8396,373.2818 L 190.8396,358.7529 Z"
				 class="fil_5" />
      <path
         id="bg_masjid"
         d="M 324.3108,218.8981 C 344.0824,229.405 358.6101,241.3115 362.9681,256.3472 364.7056,262.3419 364.3748,268.3579 362.9681,273.0334 359.6826,283.9532 354.8943,291.277 349.4198,295.2864 L 387.4627,295.2864 C 387.4627,298.8012 392.2647,302.3534 397.0666,302.3534 L 397.0666,308.1521 C 392.2647,308.1521 387.4627,311.6668 387.4627,315.1785 L 261.1592,315.1785 C 261.1592,311.6668 256.3572,308.1521 251.5552,308.1521 L 251.5552,302.3534 C 256.3572,302.3534 261.1592,298.8012 261.1592,295.2864 L 299.2019,295.2864 C 293.7274,291.277 288.9391,283.9532 285.6536,273.0334 284.2469,268.3579 283.9161,262.3419 285.6536,256.3472 290.0116,241.3115 304.5393,229.405 324.3108,218.8981 Z M 244.7861,322.8698 C 250.0348,322.8698 255.2837,319.0085 255.2837,315.1881 L 393.3382,315.1881 C 393.3382,319.0085 398.587,322.8698 403.8357,322.8698 L 403.8357,329.1728 C 398.587,329.1728 393.3382,332.9932 393.3382,336.8103 L 384.0674,336.8103 384.0674,325.0544 372.8931,325.0544 372.8931,336.8103 362.1717,336.8103 362.1717,325.0544 350.9974,325.0544 350.9974,336.8103 341.635,336.8103 341.635,325.0544 330.4606,325.0544 330.4606,336.8103 319.1353,336.8103 319.1353,325.0544 307.9609,325.0544 307.9609,336.8103 298.5985,336.8103 298.5985,325.0544 287.4242,325.0544 287.4242,336.8103 276.703,336.8103 276.703,325.0544 265.5287,325.0544 265.5287,336.8103 255.2837,336.8103 C 255.2837,332.9932 250.0348,329.1728 244.7861,329.1728 L 244.7861,322.8698 Z"
         class="fil_1" />
      <path
         id="fr_masjid"
         d="M 324.9128,217.7644 C 334.8865,223.0645 343.5515,228.7306 350.2925,234.9862 357.1037,241.3071 361.9485,248.2325 364.1971,255.9911 365.0588,258.9644 365.4345,261.9299 365.4345,264.7394 365.4345,267.8688 364.9715,270.8254 364.1971,273.3996 362.5649,278.8247 360.5613,283.3921 358.2844,287.1316 356.6269,289.8542 354.822,292.1405 352.9075,294.0023 L 387.4627,294.0023 388.7468,294.0023 388.7468,295.2864 C 388.7468,296.6161 389.74,298.0146 391.2286,299.1099 392.824,300.2839 394.9471,301.0693 397.0666,301.0693 L 398.3508,301.0693 398.3508,302.3534 398.3508,308.1521 398.3508,309.4362 397.0666,309.4362 C 394.9425,309.4362 392.8168,310.2146 391.2219,311.3812 390.2107,312.1211 389.4291,313.0003 389.0333,313.904 L 393.3382,313.904 394.6223,313.904 394.6223,315.1881 C 394.6223,316.6695 395.7274,318.2219 397.3841,319.4341 399.1459,320.7232 401.4918,321.5857 403.8357,321.5857 L 405.1199,321.5857 405.1199,322.8698 405.1199,329.1728 405.1199,330.457 403.8357,330.457 C 401.4882,330.457 399.1372,331.3136 397.3717,332.598 395.7224,333.7981 394.6223,335.336 394.6223,336.8103 L 394.6223,338.0945 393.3382,338.0945 384.0674,338.0945 382.7833,338.0945 382.7833,336.8103 382.7833,326.3385 374.1772,326.3385 374.1772,336.8103 374.1772,338.0945 372.8931,338.0945 362.1717,338.0945 360.8876,338.0945 360.8876,336.8103 360.8876,326.3385 352.2815,326.3385 352.2815,336.8103 352.2815,338.0945 350.9974,338.0945 341.635,338.0945 340.3509,338.0945 340.3509,336.8103 340.3509,326.3385 331.7448,326.3385 331.7448,336.8103 331.7448,338.0945 330.4606,338.0945 319.1353,338.0945 317.8511,338.0945 317.8511,336.8103 317.8511,326.3385 309.245,326.3385 309.245,336.8103 309.245,338.0945 307.9609,338.0945 298.5985,338.0945 297.3144,338.0945 297.3144,336.8103 297.3144,326.3385 288.7083,326.3385 288.7083,336.8103 288.7083,338.0945 287.4242,338.0945 276.703,338.0945 275.4189,338.0945 275.4189,336.8103 275.4189,326.3385 266.8128,326.3385 266.8128,336.8103 266.8128,338.0945 265.5287,338.0945 255.2837,338.0945 253.9995,338.0945 253.9995,336.8103 C 253.9995,335.336 252.8995,333.7981 251.2501,332.598 249.4847,331.3136 247.1337,330.457 244.7861,330.457 L 243.502,330.457 243.502,329.1728 243.502,322.8698 243.502,321.5857 244.7861,321.5857 C 247.1301,321.5857 249.476,320.7232 251.2378,319.4341 252.8945,318.2219 253.9995,316.6695 253.9995,315.1881 L 253.9995,313.904 255.2837,313.904 259.5886,313.904 C 259.1927,313.0003 258.4111,312.1211 257.3999,311.3812 255.805,310.2146 253.6794,309.4362 251.5552,309.4362 L 250.2711,309.4362 250.2711,308.1521 250.2711,302.3534 250.2711,301.0693 251.5552,301.0693 C 253.6747,301.0693 255.7978,300.2839 257.3932,299.1099 258.8818,298.0146 259.875,296.6161 259.875,295.2864 L 259.875,294.0023 261.1592,294.0023 295.7142,294.0023 C 293.7996,292.1405 291.9948,289.8542 290.3373,287.1316 288.0604,283.3921 286.0568,278.8247 284.4246,273.3996 283.6502,270.8254 283.1872,267.8688 283.1872,264.7394 283.1872,261.9299 283.5629,258.9644 284.4246,255.9911 286.6732,248.2325 291.518,241.3071 298.3292,234.9862 305.0702,228.7306 313.7352,223.0645 323.7088,217.7644 L 324.3108,217.4446 324.9128,217.7644 Z M 349.8346,296.5705 L 349.4198,296.5705 299.2019,296.5705 298.7871,296.5705 262.2839,296.5705 C 261.8584,298.2968 260.6109,299.9235 258.9082,301.1765 257.2256,302.4147 255.071,303.3085 252.8394,303.5634 L 252.8394,306.9414 C 255.0727,307.1943 257.2302,308.0822 258.9149,309.3146 260.614,310.5577 261.8584,312.1736 262.2836,313.8944 L 386.3383,313.8944 C 386.7634,312.1736 388.0078,310.5577 389.707,309.3146 391.3916,308.0822 393.5491,307.1943 395.7825,306.9414 L 395.7825,303.5634 C 393.5508,303.3085 391.3962,302.4147 389.7137,301.1765 388.0109,299.9235 386.7634,298.2968 386.3379,296.5705 L 349.8346,296.5705 Z M 252.7527,321.5007 C 250.9015,322.8552 248.5252,323.8274 246.0703,324.0856 L 246.0703,327.9563 C 248.5276,328.212 250.9051,329.1756 252.7551,330.5215 254.6214,331.8793 255.9802,333.6483 256.4173,335.5262 L 264.2445,335.5262 264.2445,325.0544 264.2445,323.7702 265.5287,323.7702 276.703,323.7702 277.9872,323.7702 277.9872,325.0544 277.9872,335.5262 286.14,335.5262 286.14,325.0544 286.14,323.7702 287.4242,323.7702 298.5985,323.7702 299.8827,323.7702 299.8827,325.0544 299.8827,335.5262 306.6768,335.5262 306.6768,325.0544 306.6768,323.7702 307.9609,323.7702 319.1353,323.7702 320.4194,323.7702 320.4194,325.0544 320.4194,335.5262 329.1765,335.5262 329.1765,325.0544 329.1765,323.7702 330.4606,323.7702 341.635,323.7702 342.9191,323.7702 342.9191,325.0544 342.9191,335.5262 349.7132,335.5262 349.7132,325.0544 349.7132,323.7702 350.9974,323.7702 362.1717,323.7702 363.4559,323.7702 363.4559,325.0544 363.4559,335.5262 371.6089,335.5262 371.6089,325.0544 371.6089,323.7702 372.8931,323.7702 384.0674,323.7702 385.3516,323.7702 385.3516,325.0544 385.3516,335.5262 392.2046,335.5262 C 392.6417,333.6483 394.0005,331.8793 395.8667,330.5215 397.7167,329.1756 400.0943,328.212 402.5516,327.9563 L 402.5516,324.0856 C 400.0967,323.8274 397.7203,322.8552 395.8691,321.5007 394.0013,320.1341 392.6413,318.3546 392.2042,316.4722 L 256.4176,316.4722 C 255.9805,318.3546 254.6205,320.1341 252.7527,321.5007 Z M 348.5467,236.8624 C 342.1266,230.9044 333.8542,225.4662 324.3108,220.3531 314.7675,225.4662 306.4951,230.9044 300.075,236.8624 293.5904,242.88 288.9917,249.4266 286.8826,256.7033 286.0978,259.4118 285.7555,262.1379 285.7555,264.7394 285.7555,267.6169 286.1772,270.3223 286.8826,272.6672 288.4511,277.8807 290.3624,282.2466 292.5244,285.7975 294.677,289.3332 297.074,292.0572 299.624,294.0023 L 348.9977,294.0023 C 351.5477,292.0572 353.9447,289.3332 356.0973,285.7975 358.2592,282.2466 360.1705,277.8807 361.7391,272.6672 362.4445,270.3223 362.8662,267.6169 362.8662,264.7394 362.8662,262.1379 362.5239,259.4118 361.7391,256.7033 359.63,249.4266 355.0313,242.88 348.5467,236.8624 Z"
				 class="fil_2" />
      <path
         id="bg_brick"
         d="M 191.725,347.9554 L 229.6066,347.9554 267.4884,347.9554 305.37,347.9554 343.2517,347.9554 381.1333,347.9554 419.0151,347.9554 456.8967,347.9554 456.8967,357.4688 419.0151,357.4688 381.1333,357.4688 343.2517,357.4688 305.37,357.4688 267.4884,357.4688 229.6066,357.4688 191.725,357.4688 191.725,347.9554 Z M 210.8874,337.0831 L 256.2569,337.0831 301.6262,337.0831 346.9957,337.0831 392.365,337.0831 437.7345,337.0831 437.7345,346.5965 392.365,346.5965 346.9957,346.5965 301.6262,346.5965 256.2569,346.5965 210.8874,346.5965 210.8874,337.0831 Z"
         class="fil_1" />
      <path
         id="fr_brick"
         d="M 439.0186,346.6713 L 456.8967,346.6713 458.1808,346.6713 458.1808,347.9554 458.1808,357.4688 458.1808,358.7529 456.8967,358.7529 420.2992,358.7529 419.0151,358.7529 417.7309,358.7529 382.4174,358.7529 381.1333,358.7529 379.8491,358.7529 344.5358,358.7529 343.2517,358.7529 341.9675,358.7529 306.6542,358.7529 305.37,358.7529 304.0859,358.7529 268.7726,358.7529 267.4884,358.7529 266.2043,358.7529 230.8908,358.7529 229.6066,358.7529 228.3225,358.7529 191.725,358.7529 190.4409,358.7529 190.4409,357.4688 190.4409,347.9554 190.4409,346.6713 191.725,346.6713 209.6032,346.6713 209.6032,346.5965 209.6032,337.0831 209.6032,335.799 210.8874,335.799 254.9727,335.799 256.2569,335.799 257.541,335.799 300.3421,335.799 301.6262,335.799 302.9103,335.799 345.7115,335.799 346.9957,335.799 348.2798,335.799 391.0809,335.799 392.365,335.799 393.6491,335.799 437.7345,335.799 439.0186,335.799 439.0186,337.0831 439.0186,346.5965 439.0186,346.6713 Z M 254.9727,345.3123 L 254.9727,338.3672 212.1715,338.3672 212.1715,345.3123 254.9727,345.3123 Z M 300.3421,345.3123 L 300.3421,338.3672 257.541,338.3672 257.541,345.3123 300.3421,345.3123 Z M 345.7115,345.3123 L 345.7115,338.3672 302.9103,338.3672 302.9103,345.3123 345.7115,345.3123 Z M 391.0809,345.3123 L 391.0809,338.3672 348.2798,338.3672 348.2798,345.3123 391.0809,345.3123 Z M 436.4503,338.3672 L 393.6491,338.3672 393.6491,345.3123 436.4503,345.3123 436.4503,338.3672 Z M 228.3225,356.1847 L 228.3225,349.2396 193.0092,349.2396 193.0092,356.1847 228.3225,356.1847 Z M 266.2043,356.1847 L 266.2043,349.2396 230.8908,349.2396 230.8908,356.1847 266.2043,356.1847 Z M 304.0859,356.1847 L 304.0859,349.2396 268.7726,349.2396 268.7726,356.1847 304.0859,356.1847 Z M 341.9675,356.1847 L 341.9675,349.2396 306.6542,349.2396 306.6542,356.1847 341.9675,356.1847 Z M 379.8491,356.1847 L 379.8491,349.2396 344.5358,349.2396 344.5358,356.1847 379.8491,356.1847 Z M 417.7309,356.1847 L 417.7309,349.2396 382.4174,349.2396 382.4174,356.1847 417.7309,356.1847 Z M 455.6125,349.2396 L 420.2992,349.2396 420.2992,356.1847 455.6125,356.1847 455.6125,349.2396 Z"
				class="fil_2" />
      <path
         id="bg_ring"
         d="M 324.2196,394.938 C 339.9447,394.938 352.6917,407.6856 352.6917,423.4101 352.6917,426.8615 352.0772,430.1693 350.9523,433.2305 342.3201,430.0508 333.7206,427.755 324.6329,427.6365 314.9002,427.5096 306.0284,429.6801 297.337,432.8078 296.3085,429.8654 295.7474,426.7035 295.7474,423.4101 295.7474,407.6856 308.4944,394.938 324.2196,394.938 Z"
				 class="fil_3" />
      <path
         id="fr_ring_0_0"
         d="M 324.2196,394.0819 C 332.3182,394.0819 339.6506,397.3648 344.9577,402.6719 350.2649,407.9793 353.5478,415.3115 353.5478,423.4101 353.5478,425.1631 353.3932,426.8828 353.0972,428.5547 352.7941,430.266 352.3418,431.9277 351.755,433.5248 L 351.4597,434.3285 350.658,434.0332 C 346.3668,432.4525 342.0917,431.0932 337.7761,430.1181 333.4638,429.1439 329.1,428.5473 324.6228,428.4891 319.8201,428.4265 315.2274,428.9312 310.7617,429.8376 306.2874,430.7458 301.9354,432.0592 297.6247,433.6104 L 296.8153,433.9018 296.5311,433.0887 C 295.994,431.5524 295.5808,429.9599 295.3041,428.3241 295.0329,426.7206 294.8913,425.0783 294.8913,423.4101 294.8913,415.3115 298.1743,407.9793 303.4815,402.6719 308.7886,397.3648 316.121,394.0819 324.2196,394.0819 Z M 343.7472,403.8824 C 338.75,398.8852 331.8456,395.7941 324.2196,395.7941 316.5935,395.7941 309.6892,398.8852 304.692,403.8824 299.6947,408.8799 296.6035,415.7843 296.6035,423.4101 296.6035,424.9954 296.736,426.5436 296.9896,428.0433 297.2019,429.2981 297.4985,430.5232 297.8726,431.712 301.9847,430.2631 306.1457,429.0346 310.4271,428.1655 315.0031,427.2367 319.7131,426.7196 324.643,426.7838 329.2534,426.8439 333.7336,427.4548 338.1507,428.4528 342.2884,429.3875 346.3625,430.6576 350.4317,432.1301 350.8477,430.8783 351.177,429.5861 351.4117,428.2606 351.6901,426.6878 351.8357,425.0667 351.8357,423.4101 351.8357,415.7843 348.7445,408.8799 343.7472,403.8824 Z"
				 class="fil_6" />
      <path
         id="bg_cerana"
         d="M 324.3108,387.9512 L 313.5298,377.9848 302.9754,388.4041 292.421,377.9848 281.8666,388.4041 271.3124,377.9848 260.758,388.4041 250.2036,377.9848 239.6492,388.4041 C 225.4204,376.3266 209.4456,371.5951 191.725,374.2096 208.6782,376.4288 221.2353,383.677 229.3966,395.9543 L 305.0115,395.9543 312.7012,411.5081 C 320.441,411.5081 328.1807,411.5081 335.9204,411.5081 L 343.6102,395.9543 419.2251,395.9543 C 427.3864,383.677 439.9435,376.4288 456.8967,374.2096 439.1761,371.5951 423.2013,376.3266 408.9724,388.4041 L 398.4181,377.9848 387.8637,388.4041 377.3093,377.9848 366.7551,388.4041 356.2007,377.9848 345.6463,388.4041 335.0919,377.9848 324.3108,387.9512 Z"
				 class="fil_3" />
      <path
         id="fr_cerana"
         d="M 323.439,388.8854 L 313.5606,379.7537 303.8732,389.3171 C 303.3743,389.8079 302.5746,389.8062 302.0775,389.3171 L 292.421,379.7842 282.7645,389.3171 C 282.2656,389.8079 281.4658,389.8062 280.9687,389.3171 L 271.3124,379.7842 261.6559,389.3171 C 261.157,389.8079 260.3572,389.8062 259.8602,389.3171 L 250.2036,379.7842 240.5471,389.3171 C 240.0711,389.7853 239.3217,389.8052 238.8221,389.3816 L 238.8216,389.3823 C 231.8431,383.459 224.4475,379.34 216.6355,377.0263 211.6938,375.5628 206.5777,374.8193 201.2867,374.7952 206.114,376.1035 210.5172,377.9056 214.4948,380.2016 220.753,383.8138 225.947,388.637 230.0758,394.6702 L 305.0115,394.6702 C 305.5496,394.6702 306.0104,395.0011 306.2015,395.4708 L 313.4954,410.224 335.1263,410.224 342.4615,395.3874 C 342.6844,394.9356 343.1381,394.6734 343.6102,394.6731 L 343.6102,394.6702 418.5459,394.6702 C 422.6747,388.637 427.8687,383.8138 434.1269,380.2016 438.1045,377.9056 442.5077,376.1035 447.335,374.7952 442.044,374.8193 436.9279,375.5628 431.9862,377.0263 424.1742,379.34 416.7786,383.459 409.8001,389.3823 409.2767,389.8251 408.5011,389.7756 408.0378,389.2806 L 398.4181,379.7842 388.7615,389.3171 C 388.2626,389.8079 387.4628,389.8062 386.9658,389.3171 L 377.3093,379.7842 367.6529,389.3171 C 367.154,389.8079 366.3543,389.8062 365.8572,389.3171 L 356.2007,379.7842 346.5442,389.3171 C 346.0452,389.8079 345.2455,389.8062 344.7484,389.3171 L 335.0611,379.7537 325.1786,388.8893 C 324.6838,389.347 323.9237,389.3386 323.439,388.8854 Z M 314.3975,377.0467 L 324.3108,386.211 334.1653,377.1012 334.179,377.087 C 334.6748,376.5829 335.4857,376.576 335.9898,377.0719 L 345.6463,386.6048 355.3028,377.0719 C 355.7999,376.5827 356.5996,376.581 357.0986,377.0719 L 366.7551,386.6048 376.4114,377.0719 C 376.9085,376.5827 377.7082,376.581 378.2072,377.0719 L 387.8637,386.6048 397.5202,377.0719 C 398.0172,376.5827 398.817,376.581 399.3159,377.0719 L 409.0435,386.675 C 416.0309,380.9222 423.4383,376.8861 431.264,374.5683 439.4328,372.149 448.0389,371.6064 457.0823,372.9406 L 457.0819,372.9431 C 457.6348,373.0238 458.0899,373.4626 458.1657,374.0441 458.2572,374.7449 457.763,375.3873 457.0622,375.4787 448.7529,376.5663 441.5321,378.88 435.4011,382.4189 429.3234,385.9269 424.3023,390.6527 420.3382,396.5948 420.1163,396.9796 419.7011,397.2384 419.2251,397.2384 L 344.4043,397.2384 337.1104,411.9916 C 336.9193,412.4613 336.4586,412.7922 335.9204,412.7922 L 312.7012,412.7922 312.7012,412.7893 C 312.2292,412.789 311.7755,412.5268 311.5525,412.075 L 304.2174,397.2384 229.3966,397.2384 229.3966,397.2357 C 228.9813,397.2354 228.5744,397.0337 228.3282,396.6616 224.3573,390.688 219.3211,385.9401 213.2206,382.4189 207.11,378.8916 199.9164,376.5819 191.6418,375.4897 191.0501,375.4518 190.5452,375.0053 190.456,374.3952 190.3536,373.6944 190.8386,373.043 191.5394,372.9406 200.5828,371.6064 209.1889,372.149 217.3577,374.5683 225.1834,376.8861 232.5908,380.9222 239.5782,386.675 L 249.3058,377.0719 C 249.8028,376.5827 250.6026,376.581 251.1015,377.0719 L 260.758,386.6048 270.4145,377.0719 C 270.9116,376.5827 271.7113,376.581 272.2103,377.0719 L 281.8666,386.6048 291.5231,377.0719 C 292.0202,376.5827 292.8199,376.581 293.3189,377.0719 L 302.9754,386.6048 312.6319,377.0719 312.6338,377.0738 C 313.117,376.5978 313.8945,376.5814 314.3975,377.0467 Z"
				 class="fil_6" />
      <path
         id="bg_ring_0"
         d="M 356.3142,439.9143 C 350.3235,451.5414 338.2006,459.4929 324.2196,459.4929 310.0686,459.4929 297.8226,451.3459 291.9106,439.4877 302.485,435.1509 313.001,431.7491 324.5829,431.9001 335.3583,432.0407 345.6759,435.555 356.3142,439.9143 Z"
				 class="fil_7" />
      <path
         id="fr_ring_0_2"
         d="M 357.0734,440.3056 C 353.9559,446.3562 349.2155,451.4351 343.428,454.9654 337.829,458.3809 331.2524,460.349 324.2196,460.349 317.1012,460.349 310.4499,458.3317 304.806,454.837 298.9721,451.2246 294.2195,446.0364 291.1447,439.869 L 290.7354,439.0476 291.5861,438.6985 C 296.9151,436.5129 302.2273,434.5634 307.6584,433.1815 313.1173,431.7924 318.7132,430.9709 324.593,431.0475 330.0603,431.1187 335.4039,432.044 340.7241,433.5024 346.0245,434.9557 351.2941,436.935 356.6387,439.1252 L 357.4997,439.4781 357.0734,440.3056 Z M 342.5384,453.5073 C 347.7942,450.3011 352.1449,445.7565 355.1164,440.3472 350.123,438.3203 345.2003,436.498 340.2759,435.1478 335.0844,433.7246 329.8806,432.8218 324.5728,432.7528 318.8707,432.6785 313.4171,433.4822 308.0796,434.8403 303.0081,436.1308 298.0546,437.9167 293.0982,439.9249 296.0373,445.4531 300.4028,450.1045 305.7022,453.3858 311.0788,456.7149 317.4227,458.6368 324.2196,458.6368 330.9318,458.6368 337.2036,456.7617 342.5384,453.5073 Z"
				 class="fil_6" />
      <path
         id="bg_ring_bottom"
         d="M 349.1729,437.129 C 344.3278,445.9232 334.9702,451.8823 324.2196,451.8823 313.3082,451.8823 303.8318,445.7438 299.0523,436.7324 307.2711,433.8003 315.607,431.7832 324.5829,431.9001 332.9339,432.009 341.0096,434.1445 349.1729,437.129 Z"
				 class="fil_7" />
      <path
         id="fr_ring_0_1"
         d="M 349.922,437.5402 C 347.3835,442.148 343.6422,446.0003 339.1217,448.673 334.7529,451.2558 329.6581,452.7384 324.2196,452.7384 318.6975,452.7384 313.5299,451.2103 309.1175,448.5542 304.5557,445.808 300.8011,441.8525 298.2965,437.1303 L 297.8342,436.2585 298.7646,435.9265 C 302.8966,434.4523 307.0725,433.2052 311.3664,432.3367 315.6549,431.4695 320.0419,430.9882 324.593,431.0475 328.8346,431.1028 332.9998,431.6712 337.1356,432.6035 341.2602,433.5334 345.3535,434.8235 349.4638,436.3263 L 350.4017,436.6694 349.922,437.5402 Z M 338.2523,447.2015 C 342.2228,444.854 345.5549,441.5404 347.9247,437.5854 344.1947,436.252 340.4841,435.1082 336.761,434.2688 332.7305,433.3603 328.6815,432.8062 324.5728,432.7528 320.1482,432.6951 315.8785,433.1641 311.701,434.0089 307.8515,434.7874 304.0621,435.8926 300.2897,437.2038 302.6345,441.2635 305.9845,444.6723 310.0003,447.0896 314.1516,449.5885 319.0168,451.0262 324.2196,451.0262 329.345,451.0262 334.1422,449.6315 338.2523,447.2015 Z"
				 class="fil_6" />
      <path
         id="fr_4_lines"
         d="M 235.0344,453.508 C 235.394,453.0755 235.9222,452.7846 236.5274,452.742 253.4227,451.5097 267.4497,445.4029 280.8688,439.5611 295.1367,433.3498 308.7365,427.4291 324.6329,427.6365 338.9416,427.8229 352.0399,433.4065 365.9615,439.3409 379.8594,445.2652 394.6001,451.5488 411.9184,452.8938 412.5213,452.9387 413.0471,453.2298 413.4049,453.6611 412.0946,454.7557 410.7543,455.8547 409.3858,456.9582 392.3424,455.2275 377.9195,449.0805 364.2894,443.2704 350.7582,437.5024 338.0271,432.0755 324.5829,431.9001 309.608,431.705 296.415,437.4483 282.5741,443.4738 269.4047,449.207 255.6634,455.1883 239.0577,456.8144 237.6873,455.7076 236.3463,454.6057 235.0344,453.508 Z M 288.6677,491.1792 C 288.9025,490.7936 289.2608,490.4793 289.7137,490.3024 300.1491,486.2228 311.0017,483.9757 322.3596,483.9531 333.6917,483.9305 345.4968,486.1279 357.8569,490.9352 358.3137,491.1117 358.6748,491.4285 358.9106,491.817 357.5436,492.6505 356.1613,493.4864 354.7659,494.3241 343.4751,490.1231 332.6973,488.1962 322.3596,488.2168 312.1295,488.2372 302.3018,490.1697 292.8098,493.6947 291.4149,492.854 290.0341,492.0156 288.6677,491.1792 Z M 266.402,476.8902 C 266.6248,476.5584 266.9428,476.2851 267.3379,476.117 287.8327,467.3292 307.4661,463.2845 326.3201,463.5256 345.2025,463.767 363.2658,468.3048 380.5968,476.6796 380.9519,476.851 381.2379,477.1078 381.4423,477.4134 380.1753,478.2661 378.8934,479.1208 377.5947,479.9783 361.1645,472.2189 344.0815,468.017 326.2701,467.7893 308.4109,467.5609 289.7815,471.3258 270.3029,479.4987 268.9866,478.6267 267.6855,477.7573 266.402,476.8902 Z"
				 class="fil_8" />
      <path
         id="fr_ring_1"
         d="M 324.2196,401.1946 C 330.3542,401.1946 335.9081,403.6814 339.9283,407.7014 343.9483,411.7216 346.4351,417.2756 346.4351,423.4101 346.4351,429.5447 343.9483,435.0987 339.9283,439.1189 335.9081,443.1389 330.3542,445.6256 324.2196,445.6256 318.085,445.6256 312.5311,443.1389 308.5109,439.1189 304.4908,435.0987 302.0041,429.5447 302.0041,423.4101 302.0041,417.2756 304.4908,411.7216 308.5109,407.7014 312.5311,403.6814 318.085,401.1946 324.2196,401.1946 Z M 338.7178,408.9119 C 335.0075,405.2018 329.8814,402.9068 324.2196,402.9068 318.5578,402.9068 313.4317,405.2018 309.7214,408.9119 306.0112,412.6222 303.7162,417.7483 303.7162,423.4101 303.7162,429.072 306.0112,434.1981 309.7214,437.9083 313.4317,441.6185 318.5578,443.9135 324.2196,443.9135 329.8814,443.9135 335.0075,441.6185 338.7178,437.9083 342.4279,434.1981 344.7229,429.072 344.7229,423.4101 344.7229,417.7483 342.4279,412.6222 338.7178,408.9119 Z"
				 class="fil_6" />
      <path
         id="fr_ring_2"
         d="M 324.2196,407.1744 C 328.7029,407.1744 332.7618,408.9917 335.6999,411.9298 338.638,414.8679 340.4553,418.9271 340.4553,423.4101 340.4553,427.8931 338.638,431.9524 335.6999,434.8905 332.7618,437.8286 328.7029,439.6459 324.2196,439.6459 319.7362,439.6459 315.6774,437.8286 312.7393,434.8905 309.8012,431.9524 307.9838,427.8931 307.9838,423.4101 307.9838,418.9271 309.8012,414.8679 312.7393,411.9298 315.6774,408.9917 319.7362,407.1744 324.2196,407.1744 Z M 334.4894,413.1403 C 331.8614,410.5123 328.2302,408.8866 324.2196,408.8866 320.209,408.8866 316.5778,410.5123 313.9498,413.1403 311.3217,415.7683 309.696,419.3995 309.696,423.4101 309.696,427.4207 311.3217,431.0519 313.9498,433.6799 316.5778,436.308 320.209,437.9337 324.2196,437.9337 328.2302,437.9337 331.8614,436.308 334.4894,433.6799 337.1174,431.0519 338.7431,427.4207 338.7431,423.4101 338.7431,419.3995 337.1174,415.7683 334.4894,413.1403 Z"
				 class="fil_6" />
      <path
         id="bg_circle"
         d="M 326.5752,414.2904 C 330.636,415.3363 333.6366,419.0228 333.6366,423.4101 333.6366,425.1759 333.1501,426.828 332.3045,428.2404 L 332.2935,428.2388 C 330.65,430.9427 327.6494,432.7528 324.2196,432.7528 320.7353,432.7528 317.6936,430.885 316.0681,428.1094 L 316.058,428.1106 C 315.2596,426.7273 314.8026,425.1221 314.8026,423.4101 314.8026,419.0228 317.8032,415.3363 321.864,414.2904 L 321.864,394.0819 326.5752,394.0819 326.5752,414.2904 Z"
         class="fil_1" />
      <path
         id="fr_circle"
         d="M 324.2196,413.3492 C 324.8034,413.3492 325.3758,413.3976 325.9331,413.4903 L 325.9331,394.7239 322.506,394.7239 322.506,413.4903 C 323.0634,413.3976 323.6357,413.3492 324.2196,413.3492 Z M 327.2173,413.7891 C 328.8423,414.2789 330.2966,415.1566 331.4693,416.3128 333.3304,418.1477 334.4819,420.6816 334.4819,423.479 334.4819,426.2763 333.3304,428.8103 331.4693,430.6453 329.6123,432.4763 327.0486,433.6089 324.2196,433.6089 321.3906,433.6089 318.8269,432.4763 316.9699,430.6453 315.1087,428.8103 313.9573,426.2763 313.9573,423.479 313.9573,420.6816 315.1087,418.1477 316.9699,416.3128 318.1425,415.1566 319.5969,414.2789 321.2219,413.7891 L 321.2219,394.0819 321.2219,393.4398 321.864,393.4398 326.5752,393.4398 327.2173,393.4398 327.2173,394.0819 327.2173,413.7891 Z M 330.2721,417.5302 C 328.7252,416.0048 326.5851,415.0614 324.2196,415.0614 321.854,415.0614 319.714,416.0048 318.167,417.5302 316.624,419.0514 315.6695,421.1547 315.6695,423.479 315.6695,425.8032 316.624,427.9067 318.167,429.4279 319.714,430.9533 321.854,431.8967 324.2196,431.8967 326.5851,431.8967 328.7252,430.9533 330.2721,429.4279 331.8152,427.9067 332.7697,425.8032 332.7697,423.479 332.7697,421.1547 331.8152,419.0514 330.2721,417.5302 Z"
				 class="fil_6" />
      <path
         id="bg_keris"
         d="M 310.8396,399.8476 L 337.5996,399.8476 C 331.5785,395.6025 326.6412,385.631 326.9123,381.9315 327.1214,379.0771 329.2423,372.0357 329.3725,369.2642 329.5642,365.1876 325.6911,363.0921 325.6493,359.6161 325.5933,354.9526 327.9996,353.6612 328.2638,348.6517 328.3916,346.2284 324.8597,342.1724 324.3362,338.776 323.8184,335.4172 324.7792,332.8969 324.2196,329.9752 323.7213,333.1199 321.5397,337.9328 321.8153,341.7698 322.0407,344.9085 324.7538,347.0177 324.3362,350.1779 323.7957,354.2688 320.0599,358.3015 320.0353,361.5192 320.0003,366.1159 323.9786,366.3252 323.533,370.8361 323.2028,374.1804 318.2462,377.4867 317.9158,380.7297 317.4958,384.8499 321.6179,387.6244 320.3697,391.7056 319.4302,394.7782 313.8177,397.8308 310.8396,399.8476 Z"
         class="fil_1" />
      <path
         id="fr_keris"
         d="M 313.0009,399.2056 L 335.7544,399.2056 C 333.4972,397.2321 331.4535,394.5712 329.8491,391.8816 327.5335,387.9995 326.1174,384.0072 326.2728,381.8864 326.3776,380.4552 326.9339,378.0636 327.4946,375.6513 328.0788,373.1387 328.6687,370.6021 328.7329,369.234 328.825,367.2755 327.8379,365.757 326.8853,364.2917 325.9439,362.8435 325.0317,361.4406 325.0099,359.6236 324.9796,357.1058 325.6203,355.5433 326.2893,353.9111 326.8831,352.4633 327.5011,350.9557 327.6243,348.6192 327.6802,347.5546 326.8272,345.9616 325.9128,344.2544 324.9736,342.5013 323.9741,340.635 323.702,338.8737 L 323.7017,338.8737 C 323.4756,337.4076 323.519,336.1099 323.6027,334.8725 322.9401,337.1655 322.3042,339.6265 322.4548,341.7246 322.5471,343.0127 323.1255,344.1606 323.6946,345.2903 324.4673,346.8245 325.2257,348.3302 324.9707,350.2607 324.6882,352.3996 323.6089,354.4641 322.5869,356.4192 321.6089,358.29 320.686,360.0551 320.6749,361.5217 320.6595,363.544 321.5316,364.6545 322.3792,365.7333 323.4167,367.0543 324.4233,368.3355 324.1701,370.8988 323.9848,372.7752 322.5812,374.5276 321.1887,376.266 319.9383,377.8268 318.6971,379.3761 318.5528,380.7925 318.3764,382.5247 319.1192,384.0648 319.8506,385.5806 320.7959,387.5395 321.7241,389.4638 320.9817,391.8911 320.142,394.6375 316.1136,397.2176 313.0009,399.2056 Z M 337.5996,400.4897 L 310.8396,400.4897 308.7509,400.4897 310.4809,399.3184 C 311.0161,398.9561 311.6299,398.5638 312.2857,398.145 315.2289,396.2652 319.0541,393.8218 319.7578,391.5199 320.3537,389.5715 319.5328,387.8697 318.697,386.1374 317.8876,384.4601 317.0658,382.7562 317.2786,380.6671 317.4618,378.8693 318.8211,377.1726 320.1905,375.4633 321.4643,373.873 322.7481,372.2703 322.8959,370.7735 323.0983,368.7247 322.2478,367.6417 321.371,366.5257 320.3882,365.2748 319.3772,363.9872 319.3959,361.5166 319.4092,359.7363 320.4014,357.8386 321.453,355.8272 322.4237,353.9703 323.4488,352.0095 323.7017,350.0953 323.9051,348.5559 323.2342,347.2242 322.5509,345.8673 321.9237,344.6223 321.2865,343.3575 321.1758,341.815 320.9899,339.2269 321.8523,336.2856 322.6237,333.6545 323.0341,332.2549 323.4179,330.9454 323.5876,329.8748 L 324.1605,326.2596 324.8492,329.8548 C 325.1459,331.4043 325.0411,332.8098 324.932,334.2719 324.8298,335.6456 324.7233,337.073 324.9707,338.6782 L 324.9707,338.6806 C 325.2099,340.2332 326.1542,341.996 327.0414,343.6524 328.0432,345.5228 328.9779,347.2678 328.9033,348.6843 328.7687,351.238 328.1078,352.8499 327.4731,354.3977 326.8545,355.9071 326.2619,357.3524 326.2889,359.6085 326.306,361.0524 327.1195,362.3033 327.9588,363.5945 329.0221,365.2298 330.1233,366.924 330.0119,369.2943 329.942,370.7829 329.3399,373.3722 328.7435,375.9372 328.1942,378.2995 327.6496,380.6418 327.5518,381.9768 327.4137,383.8617 328.7584,387.5544 330.9476,391.2244 332.8146,394.3541 335.2859,397.4321 337.9682,399.3234 L 339.6223,400.4897 337.5996,400.4897 Z"
				 class="fil_6" />
     </g>
     <g id="g_banner"> 
      <path
         id="bg_left_right_banner"
         d="M 431.8444,510.4686 C 451.7125,512.0746 473.8979,506.5969 498.3965,494.3111 492.5886,490.9385 487.5995,487.0831 483.6702,482.2009 489.4346,473.7429 499.4272,466.4928 500.9635,456.8269 483.0261,470.0038 447.8374,472.2899 431.8444,480.3235 L 431.8444,510.4686 Z M 215.957,510.4686 C 196.0889,512.0746 173.9035,506.5969 149.4049,494.3111 155.2128,490.9385 160.2019,487.0831 164.1312,482.2009 158.3668,473.7429 148.3742,466.4928 146.8379,456.8269 164.7753,470.0038 199.964,472.2899 215.957,480.3235 L 215.957,510.4686 Z"
				 class="fil_9" />
      <path
         id="fr_right_banner"
         d="M 433.1285,509.2762 C 442.5839,509.902 452.5693,508.9186 463.0831,506.3553 473.4498,503.8279 484.3326,499.7675 495.7303,494.2036 493.5334,492.8368 491.4592,491.3847 489.5212,489.8153 486.988,487.7641 484.6944,485.5165 482.672,483.0035 482.3099,482.5532 482.3021,481.9326 482.6121,481.4787 L 482.6117,481.4785 C 484.5841,478.5841 487.0005,475.8711 489.4161,473.1585 493.2459,468.8582 497.075,464.5577 498.8531,459.7927 488.064,466.4889 472.7913,470.1386 458.8035,473.4802 448.8248,475.8639 439.5103,478.0896 433.1285,481.1198 L 433.1285,509.2762 Z M 463.6851,508.8434 C 452.4736,511.5767 441.8428,512.5578 431.7944,511.7517 431.1083,511.7255 430.5603,511.161 430.5603,510.4686 L 430.5603,480.3235 430.5656,480.3235 C 430.5661,479.8547 430.8248,479.4035 431.2725,479.1797 437.9233,475.8389 447.7047,473.502 458.2114,470.9921 473.2434,467.401 489.7847,463.4493 500.2061,455.7936 L 500.2069,455.7946 C 500.4726,455.5998 500.813,455.5071 501.1642,455.5628 501.8623,455.6736 502.3384,456.3295 502.2276,457.0276 501.1438,463.8468 496.2381,469.3556 491.3324,474.8638 489.1923,477.2671 487.0517,479.6703 485.2788,482.1377 487.0334,484.2117 488.9932,486.0933 491.1365,487.8288 493.5419,489.7766 496.1867,491.5465 499.0385,493.2025 L 499.0373,493.2045 C 499.2467,493.3256 499.4241,493.5069 499.5402,493.7392 499.8559,494.3709 499.5999,495.1391 498.9683,495.4548 486.6309,501.642 474.8694,506.1166 463.6851,508.8434 Z"
				 class="fil_6" />
      <path
         id="bg_back_banner"
         d="M 458.2195,498.8917 C 461.999,496.6662 443.3208,486.0317 431.8444,480.3235 L 431.8444,510.4686 C 440.6984,507.0293 449.4903,503.171 458.2195,498.8917 Z M 189.5819,498.8917 C 185.8024,496.6662 204.4806,486.0317 215.957,480.3235 L 215.957,510.4686 C 207.103,507.0293 198.3111,503.171 189.5819,498.8917 Z"
				 class="fil_9" />
      <path
         id="fr_rght_banner_1"
         d="M 459.5745,499.3797 C 459.3935,499.6194 459.16,499.8254 458.8717,499.9952 L 458.8701,499.9926 C 458.8414,500.0096 458.8117,500.0255 458.7813,500.0404 454.3796,502.1981 449.9839,504.2404 445.5951,506.1668 441.2217,508.0864 436.8253,509.9053 432.4067,511.6233 432.2368,511.706 432.0461,511.7527 431.8444,511.7527 431.1352,511.7527 430.5603,511.1778 430.5603,510.4686 L 430.5603,480.3235 430.5611,480.3235 C 430.561,480.131 430.6041,479.9355 430.6957,479.7516 431.0114,479.1172 431.7819,478.859 432.4163,479.1748 439.3871,482.6421 449.01,487.9238 454.7277,492.0736 456.4859,493.3499 457.8956,494.5344 458.7797,495.5499 460.0325,496.9888 460.3945,498.2923 459.5745,499.3797 Z M 457.5286,497.8062 C 457.4891,497.7372 457.18,497.622 456.8436,497.2353 456.0885,496.3681 454.8254,495.3136 453.2227,494.1502 448.1229,490.4488 439.78,485.7942 433.1285,482.4067 L 433.1285,508.5909 C 436.9491,507.0814 440.7638,505.4908 444.5719,503.8194 448.9275,501.9075 453.2468,499.9027 457.5286,497.8062 Z"
				 class="fil_6" />
      <path
         id="fr_left_banner_1"
         d="M 188.9297,499.9952 C 188.6414,499.8254 188.4078,499.6194 188.2269,499.3797 187.4069,498.2923 187.7689,496.9888 189.0217,495.5499 189.9058,494.5344 191.3155,493.3499 193.0737,492.0736 198.7914,487.9238 208.4143,482.6421 215.3851,479.1748 216.0195,478.859 216.7899,479.1172 217.1057,479.7516 217.1973,479.9355 217.2404,480.131 217.2403,480.3235 L 217.2411,480.3235 217.2411,510.4686 C 217.2411,511.1778 216.6662,511.7527 215.957,511.7527 215.7553,511.7527 215.5645,511.706 215.3947,511.6233 210.9761,509.9053 206.5797,508.0864 202.2063,506.1668 197.8175,504.2404 193.4218,502.1981 189.0201,500.0404 188.9896,500.0255 188.96,500.0096 188.9313,499.9926 L 188.9297,499.9952 Z M 190.9578,497.2353 C 190.6213,497.622 190.3123,497.7372 190.2728,497.8062 194.5546,499.9027 198.8739,501.9075 203.2295,503.8194 207.0375,505.4908 210.8523,507.0814 214.6728,508.5909 L 214.6728,482.4067 C 208.0214,485.7942 199.6784,490.4488 194.5787,494.1502 192.9759,495.3136 191.7129,496.3681 190.9578,497.2353 Z"
				 class="fil_6" />
      <path
         id="fr_left_banner"
         d="M 216.007,511.7517 C 205.9585,512.5578 195.3278,511.5767 184.1163,508.8434 172.932,506.1166 161.1705,501.642 148.8331,495.4548 148.2014,495.1391 147.9455,494.3709 148.2612,493.7392 148.3773,493.5069 148.5547,493.3256 148.7641,493.2045 L 148.7629,493.2025 C 151.6147,491.5465 154.2595,489.7766 156.6649,487.8288 158.8082,486.0933 160.768,484.2117 162.5226,482.1377 160.7496,479.6703 158.6091,477.2671 156.469,474.8638 151.5633,469.3556 146.6576,463.8468 145.5738,457.0276 145.463,456.3295 145.9391,455.6736 146.6372,455.5628 146.9884,455.5071 147.3287,455.5998 147.5945,455.7946 L 147.5953,455.7936 C 158.0167,463.4493 174.558,467.401 189.5899,470.9921 200.0967,473.502 209.8781,475.8389 216.5288,479.1797 216.9766,479.4035 217.2353,479.8547 217.2358,480.3235 L 217.2411,480.3235 217.2411,510.4686 C 217.2411,511.161 216.693,511.7255 216.007,511.7517 Z M 184.7183,506.3553 C 195.2321,508.9186 205.2175,509.902 214.6728,509.2762 L 214.6728,481.1198 C 208.291,478.0896 198.9766,475.8639 188.9979,473.4802 175.01,470.1386 159.7374,466.4889 148.9483,459.7927 150.7264,464.5577 154.5555,468.8582 158.3853,473.1585 160.8008,475.8711 163.2172,478.5841 165.1897,481.4785 L 165.1893,481.4787 C 165.4992,481.9326 165.4915,482.5532 165.1294,483.0035 163.107,485.5165 160.8133,487.7641 158.2802,489.8153 156.3422,491.3847 154.268,492.8368 152.0711,494.2036 163.4688,499.7675 174.3515,503.8279 184.7183,506.3553 Z"
				 class="fil_6" />
      <path
         id="bg_main_banner"
         d="M 189.5819,498.8917 C 273.0451,539.8073 362.1469,542.793 458.2195,498.8917 L 458.2195,536.0205 C 364.5289,571.0686 275.1667,569.5174 189.5819,536.0205 L 189.5819,498.8917 Z"
				 class="fil_9" />
      <path
         id="fr_main_banner"
         d="M 190.2486,497.794 C 231.7765,518.1349 274.6999,529.0478 319.1824,529.4188 363.7132,529.7904 409.8265,519.5986 457.6879,497.7279 458.3304,497.4345 459.0898,497.7175 459.3833,498.3601 459.462,498.5327 459.4994,498.7136 459.4992,498.8917 L 459.5036,498.8917 459.5036,536.0205 C 459.5036,536.6124 459.1028,537.111 458.558,537.2594 411.6042,554.8106 365.7257,563.1982 320.856,563.0041 275.9399,562.8094 232.0492,554.0182 189.1153,537.2144 188.6094,537.0168 188.3,536.5329 188.2998,536.0205 L 188.2978,536.0205 188.2978,498.8917 C 188.2978,498.1825 188.8727,497.6076 189.5819,497.6076 189.826,497.6076 190.0543,497.6757 190.2486,497.794 Z M 319.1622,531.9772 C 274.9068,531.608 232.1944,520.9028 190.866,500.9383 L 190.866,535.144 C 233.2558,551.6294 276.5671,560.2538 320.8659,560.4457 365.1948,560.6377 410.5292,552.3889 456.9354,535.1325 L 456.9354,500.8787 C 409.3733,522.3409 363.5014,532.3473 319.1622,531.9772 Z"
				 class="fil_6" />
      <path
         id="tx_slogan"
         d="M 199.3992,522.8466 L 201.4285,523.3502 C 201.3755,524.4468 201.488,525.311 201.7695,525.9523 202.0512,526.5937 202.4996,527.0392 203.1146,527.2925 203.7647,527.5601 204.2916,527.544 204.6929,527.243 205.0944,526.9422 205.3445,526.4997 205.4406,525.915 205.5026,525.5375 205.4848,525.1906 205.3906,524.8673 205.2959,524.5477 205.0903,524.2183 204.7761,523.8832 204.5617,523.6527 204.0618,523.2019 203.2747,522.5223 202.2626,521.6471 201.5891,520.8088 201.2547,520.0032 200.7836,518.873 200.6533,517.6774 200.8607,516.4155 200.9941,515.6051 201.2644,514.9025 201.668,514.3142 202.0743,513.7267 202.5787,513.3615 203.1843,513.2156 203.7899,513.0699 204.4751,513.1545 205.2466,513.4721 206.5023,513.9892 207.3769,514.8196 207.8652,515.965 208.3558,517.1112 208.4944,518.4248 208.2844,519.9149 L 206.232,519.1882 C 206.2804,518.3311 206.1924,517.6666 205.9685,517.1911 205.7445,516.7158 205.3488,516.359 204.783,516.1262 204.1984,515.8854 203.7086,515.8892 203.3154,516.1381 203.062,516.2984 202.9004,516.5836 202.8323,516.998 202.7701,517.3755 202.8177,517.7389 202.9751,518.0881 203.1733,518.5372 203.7344,519.1476 204.658,519.9231 205.5822,520.6948 206.2462,521.3789 206.6516,521.9649 207.059,522.5552 207.3401,523.244 207.4942,524.0385 207.6481,524.8328 207.6428,525.7315 207.4779,526.7343 207.3283,527.6447 207.0286,528.434 206.5777,529.0976 206.1265,529.7614 205.5777,530.1677 204.9299,530.3119 204.2816,530.4598 203.5204,530.3518 202.6482,529.9926 201.3785,529.4698 200.4796,528.6057 199.9517,527.3967 199.4235,526.1915 199.241,524.674 199.3992,522.8466 Z M 208.4388,532.0974 L 210.8648,516.1251 218.3352,518.9672 217.9251,521.6664 212.4985,519.6019 211.9599,523.1488 217.0059,525.0685 216.596,527.7678 211.55,525.8481 210.8927,530.1756 216.5165,532.3151 216.1066,535.0144 208.4388,532.0974 Z M 217.8411,535.6683 L 220.1296,519.6452 223.4077,520.8179 C 224.6495,521.2622 225.4467,521.6298 225.8008,521.9251 226.346,522.3748 226.7569,523.0708 227.0331,524.0162 227.3091,524.9619 227.3561,526.0724 227.174,527.3479 227.0334,528.3326 226.8024,529.1165 226.4826,529.7077 226.1605,530.298 225.8003,530.722 225.399,530.9822 224.9983,531.2387 224.6086,531.3659 224.2328,531.3608 223.7231,531.3392 223.0072,531.1656 222.0835,530.835 L 220.7543,530.3597 219.8914,536.4016 217.8411,535.6683 Z M 221.7931,523.0865 L 221.1411,527.6519 222.2557,528.0505 C 223.0594,528.3381 223.6066,528.4436 223.9017,528.3727 224.1965,528.3018 224.446,528.1165 224.6507,527.8097 224.855,527.5063 224.992,527.1202 225.0601,526.6427 225.1438,526.0573 225.1041,525.5373 224.944,525.0802 224.7815,524.6222 224.5446,524.2866 224.2261,524.0707 223.9934,523.913 223.5111,523.7012 222.7757,523.438 L 221.7931,523.0865 Z M 229.3481,522.8934 L 231.408,523.5565 230.2871,532.2799 C 230.1088,533.6662 230.0196,534.5701 230.0169,534.9945 230.02,535.6821 230.1574,536.2807 230.4331,536.7831 230.7106,537.2899 231.1327,537.6325 231.7008,537.8154 232.2763,538.0006 232.7358,537.9535 233.0781,537.6695 233.4202,537.3856 233.6547,536.981 233.7847,536.4492 233.9148,535.9174 234.0626,535.017 234.2263,533.7428 L 235.3714,524.8322 237.4311,525.4952 236.3434,533.96 C 236.0949,535.8936 235.8646,537.2437 235.6508,538.0059 235.4369,538.7684 235.1467,539.3772 234.7776,539.8321 234.4108,540.2877 233.9573,540.5942 233.4181,540.7601 232.8766,540.9254 232.2068,540.8814 231.4041,540.6232 230.4357,540.3114 229.7244,539.8989 229.2707,539.3823 228.8168,538.8654 228.4807,538.2773 228.2626,537.614 228.0446,536.9507 227.9313,536.2977 227.9195,535.6423 227.9028,534.6771 228.0119,533.2918 228.2436,531.4894 L 229.3481,522.8934 Z M 244.7805,538.2006 L 246.6599,539.7635 C 246.1425,541.45 245.4753,542.6172 244.6603,543.2695 243.8456,543.9182 242.8921,544.0819 241.7973,543.7563 240.4415,543.3529 239.415,542.2888 238.7151,540.5631 238.0179,538.8382 237.8189,536.7053 238.1211,534.161 238.4403,531.4741 239.1277,529.5154 240.1805,528.2878 241.2335,527.0603 242.4759,526.6597 243.9056,527.085 245.1544,527.4565 246.0987,528.3444 246.7387,529.7448 247.1219,530.5747 247.3508,531.67 247.4296,533.0358 L 245.3012,533.1962 C 245.2791,532.3259 245.106,531.5897 244.7813,530.9911 244.4541,530.392 244.0174,530.013 243.4712,529.8505 242.7137,529.6251 242.0478,529.8705 241.4756,530.5912 240.9012,531.3075 240.5011,532.6281 240.2725,534.5521 240.0306,536.5891 240.0905,538.1124 240.4509,539.1146 240.813,540.1211 241.3649,540.7327 242.1081,540.9539 242.6567,541.1171 243.1616,540.9834 243.6215,540.5482 244.0812,540.1131 244.4689,539.3334 244.7805,538.2006 Z M 249.3734,528.8874 L 251.4528,529.3747 250.6288,538.1806 C 250.4978,539.5801 250.4394,540.4903 250.451,540.9144 250.4772,541.6008 250.6349,542.1867 250.9272,542.6649 251.2215,543.1476 251.6545,543.4539 252.2281,543.5883 252.8091,543.7244 253.2664,543.6385 253.5984,543.3258 253.9305,543.0132 254.1511,542.5894 254.2627,542.0473 254.3745,541.5053 254.4916,540.5935 254.612,539.3073 L 255.4535,530.3124 257.533,530.7997 256.7334,539.3447 C 256.5509,541.2966 256.3666,542.6641 256.1788,543.4435 255.9911,544.2228 255.7218,544.8557 255.3688,545.3411 255.0181,545.8272 254.5755,546.1716 254.0427,546.3831 253.5076,546.594 252.8371,546.607 252.0269,546.4172 251.0494,546.1881 250.3252,545.8366 249.8545,545.359 249.3838,544.8815 249.0282,544.3227 248.7882,543.6787 248.5478,543.0351 248.4125,542.3925 248.3785,541.7392 248.3293,540.7766 248.3911,539.3841 248.5615,537.5645 L 249.3734,528.8874 Z M 258.235,547.6018 L 259.5396,531.305 261.6251,531.7232 261.047,538.9423 265.8268,532.5658 268.6217,533.1264 264.2281,538.6937 267.5182,549.4635 264.8289,548.9241 262.6082,540.7045 260.7149,543.0923 260.3202,548.0201 258.235,547.6018 Z M 277.4156,534.6324 L 279.5055,534.9891 278.8004,545.3376 C 278.7082,546.6909 278.5626,547.7201 278.3616,548.4242 278.0952,549.3402 277.6779,550.042 277.1078,550.5291 276.54,551.0132 275.8213,551.1827 274.9518,551.0344 273.9332,550.8604 273.1807,550.2783 272.6945,549.2837 272.2058,548.2889 272.0197,546.9187 272.1336,545.1765 L 274.133,545.1486 C 274.0935,546.0841 274.1327,546.7564 274.2555,547.1656 274.4388,547.7893 274.7578,548.1398 275.2141,548.2177 275.673,548.2959 276.0139,548.1427 276.2325,547.753 276.4507,547.3673 276.6061,546.513 276.6962,545.19 L 277.4156,534.6324 Z M 289.9431,552.7456 L 287.6851,552.4903 286.9593,548.6591 282.8069,548.1896 281.7781,551.8227 279.561,551.572 284.3202,535.6411 286.5349,535.8914 289.9431,552.7456 Z M 286.4046,545.8133 L 285.2394,539.5861 283.568,545.4926 286.4046,545.8133 Z M 291.0275,552.9291 L 291.5824,536.5254 294.7261,536.7916 296.2054,548.1369 298.4198,537.1046 301.5705,537.3714 301.0158,553.7751 299.0761,553.6109 299.5057,540.6966 297.0254,553.4371 295.0084,553.2662 293.4113,540.1804 292.9674,553.0933 291.0275,552.9291 Z M 303.45,537.4882 L 307.5988,537.6996 C 308.4222,537.7416 309.032,537.8263 309.433,537.9537 309.8366,538.0854 310.1919,538.3292 310.5037,538.6855 310.8155,539.0457 311.0718,539.514 311.2728,540.0944 311.4736,540.6745 311.5668,541.3221 311.5524,542.0292 311.537,542.7935 311.3921,543.494 311.1183,544.1189 310.8446,544.7476 310.4799,545.2072 310.0265,545.5056 310.6507,545.8319 311.1236,546.3533 311.4498,547.074 311.7736,547.7944 311.926,548.6284 311.9066,549.5801 311.8912,550.3293 311.7678,551.0498 311.5337,551.7458 311.2995,552.4415 310.9887,552.9918 310.5985,553.3965 310.2107,553.7977 309.7369,554.0338 309.1771,554.1047 308.8283,554.1442 307.9847,554.1396 306.649,554.0869 L 303.1161,553.9069 303.45,537.4882 Z M 305.4955,540.324 L 305.4185,544.1078 306.7901,544.1776 C 307.6039,544.2191 308.1114,544.2257 308.3102,544.1977 308.6689,544.1509 308.9553,543.9703 309.1673,543.6559 309.3791,543.3416 309.4892,542.9226 309.5,542.3953 309.5103,541.8867 309.4293,541.4734 309.2594,541.1471 309.0896,540.8209 308.8304,540.6165 308.484,540.5338 308.277,540.485 307.6808,540.4355 306.698,540.3853 L 305.4955,540.324 Z M 305.363,546.8367 L 305.2735,551.2392 307.2149,551.3381 C 307.9684,551.3765 308.4496,551.3666 308.6538,551.3121 308.9672,551.2363 309.2252,551.0313 309.4277,550.6933 309.6306,550.3518 309.739,549.8943 309.751,549.3096 309.7611,548.8128 309.6947,548.3925 309.5495,548.0407 309.4067,547.6891 309.1921,547.4256 308.9103,547.2544 308.6287,547.0834 308.0097,546.9714 307.0557,546.9228 L 305.363,546.8367 Z M 313.5084,554.3617 L 313.6851,537.9369 315.7868,537.9936 315.6101,554.4184 313.5084,554.3617 Z M 321.0711,549.177 L 323.1142,548.843 C 323.2402,549.9246 323.4887,550.7146 323.8643,551.2207 324.24,551.7268 324.7456,551.9761 325.3811,551.9722 326.0528,551.9679 326.5596,551.7393 326.899,551.2857 327.2387,550.8325 327.4089,550.3038 327.4073,549.6996 327.4065,549.3096 327.333,548.9812 327.1899,548.7069 327.0467,548.4362 326.7947,548.2007 326.4367,548.004 326.1924,547.8679 325.6361,547.6344 324.7654,547.2957 323.6457,546.8591 322.8591,546.3209 322.4057,545.6775 321.7679,544.7754 321.4488,543.6722 321.4455,542.3684 321.4433,541.531 321.5912,540.7422 321.8864,540.0102 322.1843,539.2779 322.613,538.7208 323.175,538.3348 323.7369,537.9489 324.4131,537.7534 325.2103,537.7484 326.5077,537.7404 327.4874,538.1893 328.1444,539.0991 328.8039,540.0088 329.15,541.2228 329.1876,542.7483 L 327.0859,542.876 C 326.9943,542.0278 326.8019,541.4209 326.5088,541.0519 326.2155,540.6829 325.7753,540.4982 325.1907,540.5018 324.5865,540.5055 324.1136,540.7074 323.7739,541.1072 323.5547,541.3647 323.4443,541.7058 323.4453,542.134 323.4464,542.524 323.5512,542.856 323.7595,543.13 324.0237,543.484 324.6649,543.8472 325.6832,544.2232 326.701,544.5954 327.4535,544.9884 327.9403,545.3905 328.4293,545.7967 328.8125,546.3487 329.0897,547.0544 329.3667,547.7602 329.5066,548.6312 329.5092,549.6674 329.5116,550.6081 329.3494,551.4924 329.0205,552.3165 328.6916,553.1407 328.2268,553.7554 327.6239,554.1569 327.0209,554.5622 326.2674,554.7658 325.3664,554.7712 324.0544,554.7794 323.0457,554.3077 322.3401,553.3525 321.6349,552.4009 321.2133,551.0079 321.0711,549.177 Z M 331.3034,554.3204 L 331.0454,537.8982 338.726,537.596 338.7697,540.3713 333.1902,540.5908 333.2476,544.2377 338.4356,544.0335 338.4793,546.8087 333.2912,547.013 333.3611,551.4624 339.1433,551.2349 339.1869,554.0102 331.3034,554.3204 Z M 340.9429,553.9787 L 340.3132,537.5818 343.4557,537.2794 345.742,548.2841 347.1479,536.9243 350.2974,536.6214 350.927,553.0183 348.9881,553.2048 348.4853,540.2972 346.9383,553.402 344.9221,553.5958 342.3935,540.8832 342.8818,553.7922 340.9429,553.9787 Z M 352.2087,536.4732 L 356.3467,535.9556 C 357.1681,535.8527 357.7802,535.8299 358.1877,535.8864 358.5977,535.9463 358.9679,536.1265 359.3028,536.4257 359.6379,536.7291 359.9254,537.1497 360.1658,537.6912 360.4061,538.2326 360.5441,538.8596 360.5794,539.565 360.6174,540.3273 360.5226,541.0488 360.2942,541.7179 360.0661,542.3908 359.7358,542.9117 359.3062,543.2875 359.9495,543.5025 360.456,543.9378 360.8306,544.5966 361.2028,545.256 361.4126,546.0581 361.46,547.0072 361.4973,547.7546 361.4251,548.4923 361.241,549.225 361.0571,549.9574 360.7866,550.5589 360.4272,551.0298 360.0699,551.4963 359.6156,551.8141 359.0641,551.9826 358.7202,552.0833 357.8815,552.2266 356.5503,552.4084 L 353.0267,552.8491 352.2087,536.4732 Z M 354.4402,538.9327 L 354.6287,542.7065 355.9968,542.5355 C 356.8083,542.434 357.3133,542.3516 357.509,542.2888 357.8622,542.1794 358.1343,541.9498 358.3228,541.6001 358.5113,541.2505 358.5914,540.8147 358.565,540.2888 358.5399,539.7816 358.4303,539.3849 358.2385,539.0906 358.0469,538.7961 357.775,538.6384 357.4249,538.617 357.2158,538.6048 356.62,538.6601 355.6396,538.7827 L 354.4402,538.9327 Z M 354.7647,545.4284 L 354.984,549.8196 356.9203,549.5773 C 357.6718,549.4833 358.1495,549.3892 358.3484,549.2991 358.6548,549.1688 358.8967,548.9199 359.0744,548.5485 359.2521,548.1735 359.3278,547.6998 359.2987,547.1164 359.2739,546.6209 359.1785,546.2148 359.0097,545.8908 358.8431,545.5664 358.6114,545.3423 358.3193,545.2214 358.0274,545.1008 357.4045,545.0981 356.4531,545.2171 L 354.7647,545.4284 Z M 363.3901,551.5419 L 362.3882,535.1914 364.4804,534.8704 365.4824,551.2209 363.3901,551.5419 Z M 367.5288,550.9067 L 366.5352,534.6932 368.6275,534.3722 369.4518,547.8224 374.6316,547.0272 374.8009,549.7905 367.5288,550.9067 Z M 385.5611,547.6898 L 383.3129,548.1086 382.1464,544.5603 378.012,545.3306 377.4315,549.2043 375.224,549.6155 378.013,532.5554 380.2181,532.1446 385.5611,547.6898 Z M 381.2646,541.9295 L 379.3829,536.1581 378.4404,542.4557 381.2646,541.9295 Z M 386.6701,547.4433 L 385.0966,531.206 387.1074,530.7179 392.3842,540.5747 391.3296,529.6931 393.2498,529.2271 394.8233,545.4643 392.7478,545.9681 387.5558,536.3037 388.5901,546.9772 386.6701,547.4433 Z M 401.0497,543.8847 L 399.306,527.8306 401.3776,527.2671 402.8242,540.5851 407.9532,539.1897 408.2504,541.9258 401.0497,543.8847 Z M 407.8157,525.3324 L 409.8823,524.7239 410.9113,533.4757 C 411.0747,534.8666 411.2063,535.7573 411.3044,536.1525 411.4702,536.788 411.7397,537.2611 412.1141,537.5631 412.4917,537.8683 412.964,537.9352 413.5342,537.7672 414.1114,537.5972 414.5264,537.2808 414.7762,536.8142 415.026,536.3478 415.1474,535.8337 415.1418,535.2635 415.1365,534.6934 415.0597,533.771 414.9096,532.4927 L 413.8587,523.5531 415.9253,522.9446 416.9235,531.437 C 417.1515,533.3767 417.2582,534.7649 417.2407,535.5984 417.2233,536.4321 417.0984,537.169 416.864,537.8097 416.6322,538.4497 416.2845,539.0033 415.8241,539.4772 415.3613,539.9518 414.7298,540.309 413.9246,540.5461 412.9531,540.832 412.1961,540.8723 411.653,540.6627 411.1098,540.4531 410.6586,540.1076 410.2994,539.622 409.94,539.1368 409.6801,538.5988 409.5137,537.9984 409.2695,537.1134 409.0423,535.7647 408.8296,533.9563 L 407.8157,525.3324 Z M 419.9937,538.3468 L 417.8855,522.2621 422.2078,520.8432 C 423.2936,520.4867 424.103,520.3734 424.6329,520.5003 425.165,520.6263 425.6249,521.0101 426.0174,521.6507 426.4103,522.295 426.6697,523.0886 426.7943,524.0395 426.9529,525.2488 426.8609,526.3177 426.517,527.2507 426.1728,528.1838 425.5705,528.897 424.7079,529.395 425.2039,529.6578 425.6271,529.9876 425.9776,530.3842 426.3305,530.7798 426.8327,531.525 427.484,532.6155 L 429.1351,535.346 426.6815,536.1515 424.7498,533.1224 C 424.059,532.0489 423.5939,531.3815 423.3547,531.1202 423.1186,530.8619 422.8834,530.7047 422.65,530.6564 422.4142,530.6088 422.061,530.6624 421.5879,530.8177 L 421.1715,530.9543 422.0519,537.6712 419.9937,538.3468 Z M 420.836,528.3932 L 422.3547,527.8948 C 423.3388,527.5717 423.9427,527.3031 424.1716,527.0913 424.3981,526.8804 424.5622,526.5881 424.6572,526.2212 424.7544,525.8534 424.7702,525.4265 424.7068,524.9435 424.6356,524.4006 424.4865,523.9965 424.2601,523.7193 424.0345,523.4459 423.7491,523.3209 423.4066,523.3435 423.2337,523.3613 422.732,523.5063 421.9016,523.7789 L 420.3,524.3047 420.836,528.3932 Z M 439.3503,531.6138 L 437.1417,532.4008 435.7482,529.0641 431.6869,530.511 431.3643,534.4593 429.1958,535.232 430.8477,517.8051 433.0138,517.0333 439.3503,531.6138 Z M 434.6981,526.5927 L 432.4473,521.1625 431.9239,527.5811 434.6981,526.5927 Z M 440.4421,531.217 L 437.7828,515.338 439.8148,514.4857 440.8621,520.7398 444.8137,519.0822 443.7663,512.8282 445.7982,511.9758 448.4573,527.8548 446.4255,528.7071 445.2631,521.7657 441.3116,523.4233 442.474,530.3646 440.4421,531.217 Z"
				 class="fil_6" />
    </g>
  </g>
</svg>