<?xml version="1.0" encoding="utf-8" ?>
<!--
================================================================================
 *  BISMILLAAHIRRAHMAANIRRAHIIM - In the Name of Allah, Most Gracious, Most Merciful
================================================================================
FILENAME      : 33_jaawa_tengah.svg
AUTHOR        : CAHYA DSN
CREATED DATE  : 2026-01-02 21:33:37
UPDATED DATE  : 2026-01-03 20:51:49
SOURCE CODE   : https://github.com/cahyadsn/wilayah_logo
================================================================================
This program is free software; you can redistribute it and/or modify it under the
terms of the MIT License.

THE SOFTWARE IS PROVIDED "AS IS", WITHOUT WARRANTY OF ANY KIND, EXPRESS OR
IMPLIED, INCLUDING BUT NOT LIMITED TO THE WARRANTIES OF MERCHANTABILITY,
FITNESS FOR A PARTICULAR PURPOSE AND NONINFRINGEMENT. IN NO EVENT SHALL THE
AUTHORS OR COPYRIGHT HOLDERS BE LIABLE FOR ANY CLAIM, DAMAGES OR OTHER
LIABILITY, WHETHER IN AN ACTION OF CONTRACT, TORT OR OTHERWISE, ARISING FROM,
OUT OF OR IN CONNECTION WITH THE SOFTWARE OR THE USE OR OTHER DEALINGS IN THE
SOFTWARE.

See the MIT License for more details

copyright (c) 2025 by cahya dsn; cahyadsn@gmail.com
================================================================================
-->
<svg 
  xmlns="http://www.w3.org/2000/svg" 
  xmlns:xlink="http://www.w3.org/1999/xlink" 
  width="1426" 
  height="1455" 
  viewBox="0 0 1426 1455">
  <metadata id="author">cahya dsn</metadata>
  <defs>
    <style type="text/css">
     <![CDATA[
      .c_01 {fill:#322D2D;}
      .c_02 {fill:#009C4C;}
      .c_03 {fill:#FEF100;}
      .c_04 {fill:#FEFEFE;}
      .c_05 {fill:#E62229;}
      .c_06 {fill:#00A2E9;}
     ]]>
    </style>
  </defs> 
  <g id="main">
    <path id="bg_hitam" class="c_01" d="M495.926 86.7731C487.734 80.4362 481.994 73.0113 480.726 62.3877C477.681 36.8765 507.186 17.1151 527.722 34.5502C539.553 44.5944 536.887 54.3264 530.312 65.4811C536.762 67.9943 559.084 62.6464 565.718 59.5326C611.484 38.0506 641.611 -4.07006 697.801 0.816061C716.886 1.6758 726.846 0.300246 747.143 8.26616C782.186 22.0192 805.235 52.363 842.105 63.5635C849.558 65.8277 859.805 64.8445 867.783 66.3473C863.805 61.0809 860.355 55.95 861.56 48.9981C864.259 33.4204 879.042 25.4089 893.789 28.8954C901.371 30.6478 907.932 35.3691 912.002 42.001C922.469 59.1848 915.395 75.0641 901.653 87.1206C928.578 87.9225 951.67 97.3026 970.086 117.03C985.906 133.975 993.089 152.043 1012.29 165.547C1010.34 158.693 1009.16 153.548 1012.97 146.973C1020.47 134.027 1039.77 132.007 1051.52 139.294C1057.59 142.991 1061.86 149.026 1063.34 155.976C1066.77 172.021 1058.97 184.345 1045.76 192.598C1078.78 197.787 1102.52 214.809 1120.96 242.107C1129.36 254.55 1140.29 274.899 1153.08 282.42L1154.47 282.499C1154.72 279.262 1153.54 277.456 1153.39 274.661C1152.5 257.961 1172.38 249.084 1186.75 250.562C1206.66 252.61 1214.24 271.976 1211.71 289.704C1209.04 308.374 1193.75 319.158 1175.75 319.936C1196.92 340.171 1191.72 355.977 1194.25 381.411C1210.95 324.425 1298.01 329.639 1322.37 375.719C1331.57 393.244 1333.51 413.683 1327.77 432.625C1325.01 441.5 1320.57 449.274 1314.95 456.645C1312.8 459.473 1300.99 471.44 1300.86 472.063C1305.31 474.063 1306.86 471.762 1310.95 470.429C1318.63 467.921 1324.83 470.347 1331.97 473.093C1349.32 463.837 1366.53 472.521 1369.84 491.873C1371.98 494.011 1374.7 496.591 1376.63 498.832C1380.58 494.041 1385.93 487.14 1390.11 482.801C1394.68 504.02 1395.99 516.698 1388.33 536.981C1398.94 537.646 1414.81 542.835 1425.59 545.958C1414.78 549.222 1396.16 553.598 1387.28 559.1C1373.17 567.847 1376.17 589.34 1354.53 585.979C1355.11 586.949 1354.76 586.665 1355.89 587.11C1360.59 588.952 1362.94 591.525 1366.25 595.313C1389.19 595.005 1396.3 606.183 1392.95 627.819C1394.39 631.196 1394.93 632.53 1395.78 636.08L1415.3 626.274C1410.59 646.466 1404.85 660.958 1389.05 674.737C1399.95 681.454 1409.05 689.549 1418.8 697.794C1406.02 696.207 1388.9 693.412 1376.24 695.205C1363.3 697.037 1351.19 718.265 1336.52 707.263L1340.47 714.905C1361.03 718.658 1366 735.916 1354.79 752.501C1354.76 755.493 1354.82 758.897 1354.58 761.841C1361.11 760.525 1370.27 758.736 1376.9 758.164C1365.46 773.921 1355.03 789.167 1335.78 796.487C1342.35 805.094 1350.66 816.671 1355.56 826.288C1333.74 818.025 1322.38 807.889 1299.38 815.866C1318.66 820.943 1324.79 836.107 1313.67 852.925C1313.61 856.047 1313.62 859.417 1313.42 862.51C1320.69 861.464 1327.94 860.306 1335.18 859.035C1321.27 878.819 1315.86 886.403 1294.3 898.05C1300.12 904.806 1309.98 919.231 1313.92 927.345C1298.67 921.376 1276.79 908.383 1260.92 916.036C1281.75 935.782 1259.23 949.012 1264.47 956.989C1269.37 958.967 1279.79 956.364 1285.7 955.507C1273.05 974.432 1264.83 984.355 1244.39 994.311C1252.33 1002.02 1259.42 1014.17 1264.93 1023.9C1251.22 1018.12 1236.38 1010.61 1221.72 1009.3C1222.71 1061.6 1196.38 1089.64 1145.84 1099.36C1172.36 1112.17 1184.66 1131.55 1170.8 1160.95C1165.82 1171.52 1157.84 1178.08 1149.88 1186.21C1136.66 1200.34 1133.45 1217.89 1135.13 1236.42C1166.59 1214.66 1200.61 1186.94 1216.39 1151.25C1217.02 1204.28 1223.84 1244.77 1245.13 1293.19C1225.81 1324.96 1203.44 1348.26 1171.63 1367.97L1171.68 1398.38C1144.33 1426.17 1113.71 1440.62 1076.24 1449.71C1070.88 1451.01 1052.37 1453.47 1049.26 1455L1048.59 1455C1047.87 1449.59 1048.32 1428.42 1048.32 1422.03L1048.28 1354.83C1037.02 1351.21 1012.48 1347.62 1001.23 1348.89C955.317 1354.07 912.474 1379.29 865.416 1378.8C821.737 1378.33 780.642 1359.34 738.173 1351.37C718.119 1347.61 698.395 1348.36 678.12 1348.84C628.817 1352.88 579.885 1379.31 529.545 1378.77C501.021 1377.99 470.677 1369.01 443.689 1359.86C405.719 1346.99 387.357 1346.16 348.788 1354.68L348.741 1454.64C298.537 1446.58 262.864 1434.86 225.252 1398.05L225.274 1367.82C191.934 1344.72 173.35 1328.14 152.111 1292.56C173.974 1250.08 180.274 1197.47 180.616 1150.38C195.316 1186.37 231.417 1214.47 262.191 1236.6C262.652 1208.6 261.075 1199.6 240.59 1179.26C212.739 1151.6 212.836 1116.95 251.775 1099.22C233.763 1096.87 216.267 1089.71 202.336 1077.92C172.021 1052.28 165.52 999.687 192.412 969.15C165.048 966.595 142.706 949.832 135.043 923.074C114.105 917.732 108.788 912.946 100.251 892.951C103.929 892.319 108.092 891.351 111.737 891.626C114.209 894.828 115.69 897.557 119.427 899.321C125.32 902.103 131.558 904.045 137.326 907.072C140.728 908.857 142.708 911.586 145.749 913.826C147.902 914.162 148.676 914.705 150.226 913.911C135.368 902.942 128.49 896.187 122.55 877.901C107.664 876.983 93.465 868.221 89.2344 852.374C88.7697 850.634 89.7983 849.385 90.786 848.13C95.9711 846.13 97.5896 848.081 100.579 851.721C104.662 856.692 119.591 861.266 125.622 864.091C127.853 865.849 130.266 868.214 132.388 870.172L141.488 870.398C134.987 868.017 132.352 866.782 126.473 863.187C111.445 852.498 104.28 842.621 99.2793 824.892C81.031 823.301 71.0105 811.346 66.1213 794.854C68.801 794.469 74.1132 793.288 76.2627 794.076C77.3407 795.456 80.9843 800.065 82.1549 800.787C93.9288 808.046 99.0979 806.82 109.178 817.099L122.179 819.367C101.899 811.584 87.985 796.782 82.6771 775.565C63.2477 770.899 55.6381 764.383 49.2738 745.495C52.5495 744.766 55.8393 743.999 59.1365 743.387C63.5272 751.552 68.3891 752.98 76.6849 756.924C66.0958 747.2 62.3072 739.352 58.1974 725.827C40.1144 724.355 30.0668 712.137 25.1621 695.863C27.8813 695.369 32.7685 694.147 35.2085 694.765C37.1983 696.492 36.8702 696.318 38.0776 698.448C41.4882 704.464 54.2185 707.198 60.1037 711.145C63.8814 713.679 65.1725 714.824 68.3038 718.025C81.7403 719.348 93.2314 722.146 104.51 730.049L109.064 720.359C95.2906 712.36 93.4678 714.143 79.2922 709.98C55.0215 702.854 37.9444 681.433 34.8668 656.803C15.1951 649.846 10.7697 641.748 5.54231 622.411C8.90033 622.265 13.1352 621.725 16.1567 622.8C17.8972 624.651 17.5709 624.618 18.3733 626.545C20.8652 632.53 33.0646 637.085 38.2397 641.491C41.8115 644.532 42.923 645.711 45.7828 649.445C64.3567 654.85 75.9467 659.14 88.5932 675.115C90.1691 672.124 91.8457 669.049 93.3356 666.025C78.3321 650.425 79.6937 653.815 61.6963 646.293C40.8726 637.59 24.752 611.576 24.1432 589.388C24.0643 588.279 24.8109 586.442 25.1192 585.281C23.7776 580.778 15.304 577.971 11.3966 574.225C4.67562 567.783 -1.07538 554.051 1.54702 545.006C4.17907 542.025 5.71778 543.257 9.50504 544.182C16.4149 561.855 29.952 561.789 36.293 577.101C62.163 590.775 75.3071 597.647 83.0707 628.314L87.7447 620.687C85.9538 610.754 83.5316 601.314 77.3625 593.093C73.9435 588.537 67.6231 585.881 63.1007 582.281C39.9367 563.843 32.9921 540.51 40.7429 512.53C25.7245 502.446 22.7589 486.737 27.6069 470.151C30.5044 471.036 34.8878 472.067 37.1599 473.809C35.3967 488.464 52.9723 496.622 53.079 508.268C56.4523 512.461 60.3288 515.442 64.3978 518.944C75.0929 528.148 79.7712 537.169 83.4793 550.491C84.4824 548.134 81.3019 540.02 80.8824 536.713C77.8034 512.445 88.0772 493.3 106.485 478.97C87.2918 465.129 70.6962 446.138 67.1238 422.032C60.9768 380.554 87.261 346.532 128.688 340.967C162.367 336.443 191.2 347.524 203.269 380.675C203.135 362.306 203.765 338.094 217.396 324.413C218.938 322.882 220.514 321.384 222.121 319.922C198.274 318.252 184.168 304.274 185.237 279.231C186.851 241.472 240.018 241.241 244.387 275.133C244.455 275.66 242.906 281.37 242.656 282.305L243.174 283.009C254.355 278.216 268.751 253.747 275.621 243.116C292.891 216.389 319.357 197.005 351.313 192.668C334.911 180.324 325.994 162.104 339.693 144.143C353.47 126.079 394.927 135.899 385.254 164.455L385.694 164.851C395.897 158.075 403.723 148.016 410.569 137.945C432.997 104.949 455.158 89.7469 495.926 86.7731ZM155.041 543.079C142.381 551.425 149.783 567.244 139.319 579.07C140.412 585.687 140.732 588.508 140.77 595.191C144.582 591.28 147.532 588.064 151.897 584.792C153.614 587.391 155.294 590.013 156.937 592.658C155.974 594.597 152.43 599.088 152.191 600.309C149.503 614.072 151.818 618.809 145.912 632.338C146.116 633.025 147.06 636.394 147.318 636.785C150.016 633.766 152.253 630.286 155.707 629.211C158.356 629.945 160.185 633.002 162.303 635.277C153.094 646.701 163.885 657.741 157.228 674.403C160.148 679.912 161.898 683.375 163.505 689.486C165.537 686.277 168.269 681.679 170.523 678.816C172.656 680.508 176.725 683.339 177.901 685.53L177.392 686.547C172.141 697.198 180.036 707.517 177.786 722.882L177.387 725.716C181.086 731.193 183.269 735.286 185.44 741.612C187.631 736.479 191.387 731.274 194.91 726.959C197.258 729.3 199.883 731.807 202.082 734.252C200.915 736.054 199.569 738.019 198.55 739.878C198.653 754.038 203.78 760.354 199.262 773.881C205.839 783.21 207.801 790.511 209.377 801.593C211.899 791.034 215.662 785.555 223.643 778.346C225.887 781.431 227.071 783.082 229.8 785.863C220.486 797.154 230.328 808.371 224.842 823.676L224.503 824.64C224.431 824.831 224.358 825.022 224.286 825.214C232.922 843.362 234.525 858.75 226.664 877.687C229.695 874.737 231.288 873.265 234.693 870.67C230.177 850.315 234.79 842.114 249.446 828.658C252.052 831.86 253.79 833.831 256.702 836.778C247.58 845.488 254.09 861.367 248.163 875.594C254.843 893.544 255.861 907.286 248.005 925.473C244.956 932.532 238.392 941.536 232.11 945.976C253.249 943.051 274.071 943.971 291.975 957.344C314.69 974.311 313.084 1006.65 296.173 1027.31C311.797 1027.08 333.528 1030 347.909 1036.36C356.65 1041.62 363.066 1050.05 371.418 1056.14C430.012 1098.91 505.819 1097.7 573.102 1079.77C587.752 1075.86 602.492 1070.66 617.335 1067.82C636.317 1064.2 655.978 1064.26 675.209 1063.34C710.416 1063.4 746.514 1062.18 781.336 1068.02C793.893 1070.12 807.698 1075.17 820.007 1078.56C888.097 1097.35 965.339 1100.04 1025.12 1056.75C1033.58 1050.63 1039.73 1042.53 1048.26 1036.81C1062.15 1030.52 1086.01 1026.99 1101.11 1027.33C1089.82 1011.14 1083.22 991.982 1092.75 973.091C1088.78 972.038 1085.03 971.11 1081.15 969.724C1090.08 965.468 1101.33 960.973 1108.7 954.592C1100.63 937.48 1103.03 929.453 1107.09 911.728C1110.7 914.222 1116.36 917.89 1119.59 920.573C1121.61 917.308 1123 914.982 1125.47 911.973C1124.56 892.832 1129.99 885.348 1150.27 885.797C1156.87 885.943 1158.33 886.542 1164.38 883.248C1153.16 879.787 1141.55 877.043 1130.18 873.63C1138.3 869.005 1150.58 863.173 1159.61 861.09C1150.29 843.729 1151.13 834.875 1156.48 815.907C1160.62 818.556 1164.45 820.942 1168.35 823.939C1170.29 821.478 1172.4 818.654 1174.46 816.344C1174.3 810.447 1173.93 806.731 1175.98 800.865C1180.95 786.631 1196.69 790.471 1208.3 789.503C1209.1 789.437 1212.71 786.999 1213.56 786.433C1204.33 780.186 1183.97 776.391 1172.12 772.527C1181.79 767.336 1190.85 762.564 1201.61 759.877C1190.88 744.846 1194.18 731.144 1197.77 714.576C1200.32 716.168 1202.95 717.749 1205.41 719.472L1210.6 723.345C1211.75 721.374 1216.64 714.522 1216.24 712.955C1212.78 699.523 1222.53 690.582 1234.13 688.18L1234.93 688.021C1239.69 683.118 1243.22 680.461 1249.06 676.792C1238.59 668.546 1233.56 658.645 1231.95 645.493C1231.53 642.032 1231.27 638.554 1231.17 635.069L1245.43 639.282C1246.36 636.178 1247.32 632.703 1248.38 629.674C1236.21 607.842 1252.41 606.208 1262.09 592.66L1262.51 592.054C1245.32 587.647 1236.29 576.83 1227.46 562.094C1227.17 561.613 1226.89 561.123 1226.62 560.627C1232.3 560.287 1236.17 560.042 1241.73 559.069L1240.15 549.869C1234.39 544.455 1229.35 539.939 1229.15 531.422C1228.92 521.141 1236.83 515.003 1244.95 510.737C1248.24 502.636 1249.73 500.193 1256.74 494.687C1231.4 501.009 1214.79 500.043 1190.18 492.477C1217.44 535.673 1231.47 588.039 1219.33 638.456C1213.76 661.596 1200.05 689.319 1190.24 711.55L1143.23 818.146L1094.32 929.183C1074.59 974.072 1056.16 1026.98 1011.88 1053.24C985.528 1068.87 952.057 1081.26 921.131 1082.51C873.87 1083.65 828.048 1069.25 782.659 1059.89C756.855 1054.57 713.011 1053.36 686.708 1053.72C669.494 1053.95 633.837 1056.17 617.229 1059.45C566.377 1069.48 500.251 1091.36 448.529 1078.94C404.245 1068.31 361.303 1045.03 338.496 1004.16C324.309 978.735 313.328 952.405 301.605 925.673L251.567 812.048L206.193 709.202C200.587 696.506 195.061 683.219 189.248 670.748C167.53 624.158 169.693 572.054 189.839 525.435C191.258 522.152 206.41 492.593 206.406 492.553C189.052 498.83 170.345 500.406 152.185 497.12C150.768 496.861 150.757 496.937 149.446 497.524C142.21 505.001 146.482 519.485 136.73 532.168C137.462 535.793 138.126 539.432 138.72 543.082C142.418 539.512 145.639 536.847 150.262 534.437L155.041 543.079ZM162.086 843.839C162.74 839.639 163.517 835.415 163.669 831.173C150.486 822.727 150.054 823.923 134.678 823.246C144.544 828.064 153.531 833.548 159.952 842.825C160.596 843.755 160.507 843.679 161.47 844.361L162.086 843.839ZM164.183 819.589C164.271 814.589 164.283 807.841 162.372 803.22C157.784 799.065 144.859 785.301 141.641 783.848C141.066 785.144 139.356 787.83 140.242 788.98C146.738 797.415 150.748 804.819 154.1 814.887C158.217 816.5 160.323 817.543 164.183 819.589ZM83.1329 643.13L91.3343 649.904L95.6166 653.484L96.3397 653.103C96.7415 647.689 94.62 636.834 92.645 632.008C89.3493 636.715 87.166 638.942 83.1329 643.13ZM115.16 532.202L123.949 526.238L125.777 525.31C124.651 512.94 127.844 502.908 136.964 494.057C133.787 492.79 131.079 491.772 127.833 490.676C128.068 509.272 125.715 517.281 115.16 532.202ZM178.841 885.748C179.267 884.667 180.4 882.688 179.9 881.761C175.743 874.059 162.485 873.602 155.236 873.336C164.523 877.006 170.387 879.543 177.732 886.472L178.841 885.748ZM207.959 824.916C211.765 821.016 212.652 818.453 209.166 813.277C208.767 815.633 206.7 824.309 207.378 825.385L207.959 824.916ZM147.947 776.169L148.886 775.904C147.097 764.521 147.608 756.261 150.799 744.98C151.14 743.778 151.069 744.336 150.997 743.086L145.484 749.147C146.827 758.128 145.338 764.374 145.576 773.27C145.589 773.728 147.377 775.642 147.947 776.169ZM100.778 545.578C98.6522 546.893 96.4528 548.306 94.2705 549.496C91.734 565.557 89.2605 568.299 82.1383 581.953C86.1551 587.799 89.7667 592.736 92.5068 599.368L93.8541 602.552L94.3471 602.521C94.2146 598.575 92.342 593.216 91.7846 588.875C89.6058 571.908 92.3006 560.764 101.338 546.357L100.778 545.578ZM120.405 774.436C123.036 775.917 130.767 781.105 132.597 780.989C132.389 774.716 125.626 774.454 120.405 774.436ZM114.091 644.57L107.031 649.045C106.389 653.937 103.981 662.973 105.406 666.426C105.939 664.395 114.112 642.448 114.091 644.57ZM185.694 894.672C191.12 901.701 192.032 906.416 196.559 913.601C197.197 914.613 200.285 915.57 201.644 916.014L202.858 916.282C203.733 911.901 201.228 901.805 198.098 898.243C195.166 894.843 192.201 891.47 189.205 888.126L185.694 894.672ZM181.622 869.894L182.91 870.431C186.084 861.386 180.914 845.101 172.998 839.391C172.099 846.14 170.849 850.631 168.406 857.058L170.494 864.672C175.192 866.392 177.211 867.482 181.622 869.894ZM120.805 702.813C120.543 709.734 119.289 713.556 123.143 718.58L123.96 718.561C124.04 717.871 125.852 698.094 126.021 699.073L120.805 702.813ZM112.641 736.676C121.777 745.445 124.843 753.413 130.036 764.721C130.48 765.688 132.929 767.084 133.94 767.626L135.288 767.344C139.221 752.016 128.776 736.326 117.691 726.552C116.061 730.039 114.57 733.33 112.641 736.676ZM99.9305 704.22L107.874 708.35L109.6 709.095C112.059 704.274 103.106 680.578 99.5822 676.049C97.5809 680.006 96.9917 680.849 94.3027 684.304C97.4416 692.039 98.948 695.983 99.9305 704.22ZM179.446 923.406C186.659 927.989 192.792 932.584 197.96 939.583C199.272 941.361 201.155 945.003 202.932 945.195L203.325 944.029C204.441 938.389 204.308 934.081 204.365 928.32C192.788 922.267 192.186 923.926 179.446 923.406Z"/>
    <path id='bg_hijau' class="c_02" d="M758.034 184.602C807.088 186.136 850.038 201.154 881.117 239.391C893.134 254.177 910.097 269.004 926.683 278.262C965.021 300.73 1023.8 299.867 1057.78 328.945C1091.24 357.576 1112.55 413.183 1136.62 449.839C1147.45 466.331 1159.43 471.99 1171.88 483.583C1181.31 492.366 1194.78 521.071 1199.68 533.216C1186.94 532.778 1174.24 531.682 1161.61 529.932C1079.63 518.288 1031.27 478.195 982.839 413.779C959.703 424.094 947.143 429.31 924.108 415.029C901.708 463.398 873.877 492.207 825.823 515.741C811.659 500.455 797.366 494.061 778.163 487.543C777.435 480.754 776.798 473.955 776.251 467.148L754.269 456.921C753.028 448.881 750.964 439.439 749.404 431.341C744.382 406.083 739.52 380.794 734.819 355.474L714.136 355.53L714.15 317.569C715.866 315.007 716.559 314.361 717.125 311.431C713.646 298.944 718.963 301.298 718.353 292.942C716.725 270.661 708.723 246.481 698.618 226.651C689.865 241.576 683.401 262.434 679.964 279.017C677.659 290.144 677.022 294.761 680.963 304.637C682.416 308.278 677.165 309.035 682.879 317.405L682.868 355.546L662.662 355.435C661.056 366.289 658.035 379.828 655.915 390.761L642.99 456.98L621.196 467.107C620.634 473.921 620.024 480.731 619.365 487.536C598.666 494.389 586.874 500.246 571.617 515.767C522.042 492.127 497.186 463.327 473.258 415.148C450.122 429.563 437.883 423.803 414.6 413.785C353.342 493.922 300.235 528.79 197.643 533.235C202.845 520.887 215.65 492.855 224.913 484.165C236.915 472.905 252.537 464.04 262.061 447.823C267.519 439.733 271.583 430.831 276.612 422.5C295.315 391.513 316.719 342.265 348.103 322.645C386.608 298.574 437.459 299.322 476.602 274.944C510.209 254.013 526.386 218.644 562.626 201.805C586.101 190.844 608.101 187.346 633.431 185.002C635.204 184.693 637.813 184.336 639.167 185.559C637.158 193.54 632.181 206.443 629.342 214.506C622.37 234.019 615.521 253.575 608.795 273.174C637.071 255.721 669.487 237.93 698.52 220.985L788.764 273.194C779.042 243.828 768.127 213.968 758.034 184.602Z"/>
    <g id="bendera_atas">
      <path id="merah_atas" class="c_05" d="M687.488 10.2449C778.253 1.35295 792.262 82.3162 878.118 75.1271C882.557 74.7554 886.221 74.1372 890.549 73.1494L888.66 64.5069C883.74 63.3505 875.89 61.546 873.335 57.1032C866.686 45.5395 880.882 34.2938 892.164 38.3456C898.455 40.6045 902.199 43.7892 904.774 49.6125C907.269 55.2741 907.355 61.7068 905.011 67.433C898.414 83.52 878.721 91.3769 864.159 97.2922C906.475 100.422 942.368 96.18 971.736 134.705C989.242 157.669 997.488 175.485 1028.4 178.85L1031.41 170.374C1025.81 166.394 1017.03 159.914 1021.61 152.046C1023.68 148.487 1027.75 145.734 1031.71 144.717C1036.37 143.546 1041.32 144.315 1045.41 146.851C1049.63 149.43 1052.63 153.599 1053.75 158.419C1059.96 184.619 1018.48 194.523 1000.08 198.346C1007 199.836 1019.4 201.231 1026.71 202.3C1062.05 207.467 1087.27 215.31 1109.9 244.45C1118.86 255.999 1126.01 269.467 1135.41 280.171C1146.15 292.38 1156.71 296.392 1172.51 297.203L1175.08 288.814C1170.61 285.86 1165.05 282.074 1163.46 276.715C1161.2 269.095 1171.3 261.697 1177.49 260.091C1182.33 258.829 1187.47 259.566 1191.77 262.136C1203.02 269.002 1205.19 288.182 1198.46 298.406C1188.33 313.808 1162.46 313.738 1146.28 317.184L1145.39 317.379C1146.14 317.562 1146.88 317.754 1147.62 317.953C1181.3 326.921 1182.56 348.05 1184.22 377.851C1184.88 383.66 1185.42 392.714 1188.83 397.586C1209.9 427.704 1225.01 434.01 1256.75 412.125C1249 409.008 1219.11 397.398 1236.31 384.779C1254.43 371.473 1284.88 383.291 1277.64 409.181C1274.38 420.82 1267.34 429.366 1256.89 435.624C1240.45 446.721 1209.14 445.249 1193.51 432.463C1163.4 407.825 1151.27 360.168 1130.7 327.389C1112.19 297.907 1099.24 284.815 1070.26 266.166C1045.43 250.185 1024 240.689 996.222 230.669C975.081 222.876 954.685 209.155 940.491 191.391C924.506 171.385 909.583 147.578 885.946 135.609C859.867 122.787 829.176 128.446 801.606 122.748C788.77 120.057 775.329 111.282 763.239 106.265C748.387 99.3529 738.232 95.9707 722.354 91.9674C715.419 75.6384 708.388 55.5308 702.013 38.7195C701.031 35.858 699.671 32.7479 698.512 29.9225C690.488 49.8007 682.95 71.7153 675.191 91.9335C660.304 95.5627 650.747 98.9057 636.845 105.058C625.281 110.176 607.126 120.434 595.597 122.844C568.91 128.422 537.791 122.787 512.15 135.293C478.583 151.666 465.411 189.711 436.499 211.399C417.017 226.012 395.915 232.561 373.657 241.599C342.405 254.289 305.196 276.79 283.608 302.934C272.68 316.169 265.194 329.992 256.922 345.226C241.625 373.397 227.752 417.994 199.765 435.166C183.668 443.425 171.135 445.023 153.458 441.121C128.334 435.574 102.211 399.229 131.923 381.494C137.76 378.009 149.515 379.423 155.932 382.069C161.588 384.4 168.508 389.106 165.206 396.466C161.248 404.623 148.725 408.839 140.664 412.201C153.424 420.762 165.938 428.692 182.106 423.19C189.875 420.547 195.111 415.067 199.836 408.581C202.763 404.563 207.121 400.552 209.527 396.122C216.455 378.114 210.905 356.582 220.09 338.948C226.93 325.814 239.236 321.11 252.502 317.232C237.084 314.336 212.764 313.46 200.921 300.974C195.896 295.512 195.352 288.27 195.561 281.35C195.965 268.015 203.553 258.517 217.693 260.128C225.587 261.027 235.432 267.159 233.611 276.405C232.449 282.302 226.998 285.699 222.388 288.812L225.03 297.227C272.739 295.725 275.015 242.446 312.787 220.679C340.836 204.516 366.934 202.716 397.946 198.561C386.016 193.838 373.542 191.401 361.647 186.75C357.794 185.128 354.562 183.131 351.377 180.453C337.676 168.93 341.415 144.17 361.728 144.445C368.825 144.54 377.763 149.487 376.656 157.629C375.859 163.493 370.424 167.233 365.983 170.404L368.966 178.801C403.988 175.743 408.986 152.962 430.672 128.987C460.177 96.3681 494.818 99.0597 535.436 97.2408C523.128 93.0915 500.252 81.4104 493.44 69.6459C487.453 59.3055 491.289 44.2202 502.774 39.358C514.883 34.2319 529.868 42.3021 524.614 56.4593C522.752 61.1441 513.735 63.2183 508.888 64.5128L506.953 73.1851C520.899 76.2175 525.309 75.353 538.775 74.9399C585.74 73.4994 612.142 35.4699 651.736 18.0633C663.203 13.0219 674.798 11.1112 687.488 10.2449Z"/>
      <path id="lf_putih" class="c_04" d="M559.515 135.397C560.839 135.237 564.652 134.751 565.637 135.307C585.966 146.783 610.84 163.627 630.215 175.938C603.26 178.936 583.286 182.128 558.149 193.637C518.625 211.732 504.135 248.192 468.239 269.034C427.382 292.757 366.888 291.683 330.942 323.959C304.208 349.582 285.9 385.629 268.164 417.854C251.834 447.524 236.619 470.978 203.187 483.677C179.158 492.803 150.615 490.586 127.334 480.012C89.837 462.981 62.9502 422.54 83.0231 382.168C90.8992 366.165 102.788 358.534 119.187 352.773C201.647 328.892 216.657 428.946 160.889 413.577C173.266 405.514 183.659 393.294 169.777 379.898C156.696 367.275 129.973 366.091 117.377 380.218C102.084 397.37 109.822 423.432 126.096 436.957C139.881 448.688 156.437 453.694 174.442 452.362C228.41 448.902 243.862 391.402 264.877 351.324C278.412 325.509 293.061 301.27 317.483 284.079C322.576 280.2 328.699 277.027 333.781 273.255C367.343 248.342 411.067 243.181 444.022 217.722C461.583 204.155 474.339 183.845 488.618 166.892C510.172 141.301 527.49 137.445 559.515 135.397Z"/>
      <path id="rg_putih" class="c_04" d="M831.329 134.968C848.15 135.918 870.577 136.881 885.256 146.1C916.237 165.556 927.365 200.409 958.38 221.378C980.326 236.215 997.766 241.069 1021.62 250.873C1048.98 262.119 1084.16 283.393 1103.57 305.896C1115.87 320.157 1124.84 336.493 1133.49 353.172C1147.82 380.784 1160.02 416.891 1184.35 437.347C1198.87 449.075 1217.25 454.003 1235.76 452.228C1263.11 449.604 1291.34 427.277 1288 397.549C1286.64 388.604 1282.83 382.193 1275.9 376.343C1260.18 363.091 1218.47 371.452 1221.56 396.512C1222.47 403.828 1230.44 409.575 1236.66 413.596C1184.86 428.039 1190.59 336.193 1272.99 351.24C1294.95 357.25 1310.18 367.989 1317.62 389.979C1328.9 423.289 1311.87 453.547 1284.21 472.047C1261.67 487.047 1234.13 492.582 1207.55 487.455C1179.33 481.784 1154.24 461.164 1139.81 436.636C1134.61 427.748 1129.88 418.443 1124.67 409.57C1105.29 376.542 1085.15 332.241 1050.79 312.556C1013.4 291.131 967.303 290.331 929.526 269.167C902.769 254.177 887.891 229.178 864.806 209.986C845.36 193.886 821.774 184.81 797.173 180.159C787.702 178.344 777.899 177.774 768.577 175.888L767.908 175.748L831.329 134.968Z"/> 
      <path class="c_04" d="M669.464 103.079L670.212 103.202C670.843 105.72 662.594 125.972 661.064 129.988L608.093 129.983L607.218 129.789L607.296 129.177C630.805 119.505 643.34 110.653 669.464 103.079Z"/>
      <path class="c_04" d="M726.219 102.589C749.608 108.606 769.346 120.158 791.237 129.734C779.104 130.816 750.083 130 736.656 129.986C733.528 121.088 729.615 111.465 726.219 102.589Z"/>
    </g>
    <path id="bintang" class="c_03" d="M698.205 57.3387C700.611 59.8481 725.826 128.799 729.532 138.662L809.554 138.649L745.519 179.38C754.235 202.452 762.654 228.506 770.817 252.003L698.986 210.117C696.175 210.94 680.021 220.692 676.484 222.77L626.517 252.144L651.825 179.298L588.019 138.664L667.934 138.677C676.826 112.659 688.507 83.2792 698.205 57.3387Z"/>
    <g id="gunung">
      <path class="c_03" d="M418.051 425.361C419.203 425.905 420.37 426.418 421.55 426.899C438.41 433.772 451.941 435.676 468.848 428.548C493.589 474.994 519.03 499.673 565.765 523.435C557.763 536.79 555.587 544.311 554.011 559.832L539.986 559.809L539.991 586.508C548.549 589.628 556.497 594.482 552.699 605.339C548.746 616.639 537.937 622.752 527.615 627.504L527.433 641.783C501.9 641.137 519.99 666.644 511.494 672.851C504.984 672.68 505.485 666.224 504.132 661.651C503.106 658.181 495.781 651.279 495.209 648.375C492.703 635.635 491.006 622.521 488.876 609.648C485.415 605.471 480.228 600.195 476.45 596.11L469.116 560.492C461.014 560.55 452.913 560.761 444.819 561.124L437.798 595.986C419.433 615.625 424.466 624.35 419.629 649.113C404.531 665.842 406.832 681.706 403.676 703.485C400.83 686.679 398.651 691.852 393.291 679.189C389.695 670.695 387.903 650.657 384.66 640.943C382.909 635.696 375.502 630.388 374.508 627.754C370.929 618.273 368.463 601.756 366.495 591.731L356.322 591.731L342.098 591.708C339.636 603.605 337.034 615.473 334.291 627.309C332.463 629.113 327.92 633.508 326.714 635.493C319.467 647.421 321.272 664.512 315.907 677.534C313.689 682.916 306.787 687.908 305.773 693.627C303.39 707.065 302.484 720.883 300.119 734.337C284.141 717.025 288.6 706.232 284.832 684.63L284.667 683.722C281.058 679.306 275.828 673.949 271.88 669.665L264.412 633.468L239.757 633.445C237.524 645.301 235.88 658.524 232.574 670.077C231.566 673.598 223.508 680.29 222.063 683.271C218.962 689.666 218.491 699.127 216.524 706.446L216.308 707.224C188.003 645.652 171.813 612.098 193.89 542.668C296.927 538.042 354.873 507.266 418.051 425.361Z"/>
      <path class="c_03" d="M979.082 425.566C981.263 427.104 996.807 446.875 1000.01 450.613C1056.57 516.582 1118.85 538.398 1203.6 542.719C1219.53 591.593 1216.42 633.774 1193.41 679.762C1189.03 688.503 1185.79 698.688 1180.87 707.209C1176.74 685.27 1178.99 687.047 1164.19 669.809C1162.58 658.332 1159.76 645.206 1157.86 633.481L1133 633.447C1131.19 643.506 1128.19 660.605 1124.76 670.108C1123.66 673.165 1114.15 679.613 1112.85 685.063C1106.72 710.711 1115.63 712.609 1097.27 734.406C1094.82 721.247 1094.21 704.842 1091.22 692.042C1090.06 687.085 1082.73 683.633 1080.1 672.987C1077 661.914 1077.02 649.728 1072.64 639.078C1070.69 634.309 1066.4 630.514 1062.86 626.9C1060.58 615.262 1057.89 603.349 1055.4 591.724L1043.39 591.732L1030.89 591.708L1024.02 626.709C1006.68 645.933 1011.62 652.499 1005.3 675.655C1002.37 686.417 996.411 688.668 993.864 702.664C990.71 688.16 991.547 670.543 985.281 658.023C984.626 656.712 978.863 650.207 977.548 648.721C975.802 637.568 974.612 626.026 972.462 614.958C971.005 607.459 964.707 601.406 959.634 595.88L952.622 561.099C944.688 560.668 936.286 560.639 928.309 560.482C925.981 572.368 923.553 584.234 921.024 596.078C917.213 600.057 910.465 606.601 908.781 611.435C905.165 621.813 905.636 634.589 902.819 645.519C901.266 653.268 892.915 657.988 892.32 665.675C892.058 669.05 892.224 669.975 889.594 671.922C887.364 672.227 886.72 672.467 884.531 671.807C879.098 660.29 894.313 641.83 869.835 641.788L869.77 627.402C851.743 619.609 828.04 597.754 857.522 586.421L857.53 559.813L843.561 559.822C841.637 544.205 839.806 536.984 831.706 523.433C877.979 500.078 904.141 474.723 928.554 428.556C946.747 436.704 961.42 432.732 979.082 425.566Z"/>
    </g>
    <g id="air">  
      <path class="c_06" d="M724.327 869.135C735.399 868.219 756.269 868.826 768.071 868.829L850.781 868.838L1109.94 868.866L1082.17 931.83C1036.81 925.07 1010.95 894.405 967.697 889.146C920.428 883.248 872.555 929.907 824.617 914.754C790.683 904.028 759.007 882.162 724.327 869.135Z"/>
      <path class="c_06" d="M287.542 868.86L500.303 868.836C558.072 868.833 616.697 868.333 674.372 868.976C655.496 874.417 627.593 889.746 609.871 899.032C598.297 904.99 588.303 910.185 575.759 914.008C522.462 930.25 479.731 884.008 430.64 889.07C385.103 893.766 363.978 925.014 315.323 931.83L287.542 868.86Z"/>
      <path class="c_06" d="M714.119 898.913C755.589 909.364 786.485 942.775 834.055 948.355C887.108 954.578 921.092 915.821 969.103 921.115C1003.19 924.874 1032 954.084 1069.35 961.051C1066.35 967.83 1063.24 974.561 1060.03 981.243L1056.09 989.204C1029.62 978.533 1009.48 963.043 981.547 955.086C927.648 939.733 885.598 989.057 832.21 979.8C797.706 973.818 766.234 947.469 733.087 936.094C726.981 933.98 719.955 931.895 714.14 929.504L714.119 898.913Z"/>
      <path class="c_06" d="M681.092 899.396L682.239 899.572C683.456 902.164 682.939 925.932 682.917 930.058C660.267 936.067 644.607 944.683 623.986 955.216C604.176 965.335 583.589 978.044 561.258 980.343C506.302 985.999 470.48 940.066 415.439 955.227C386.589 963.173 368.685 978.513 341.416 989.06L337.655 981.702C334.279 974.919 331.261 968.009 328.175 961.091C366.605 954.556 396.461 922.906 431.628 920.77C482.721 917.667 518.798 961.856 577.62 945.639C617.457 934.657 642.442 913.711 681.092 899.396Z"/>
      <path class="c_06" d="M715.143 962.799C740.232 969.278 765.708 986.916 789.235 998.184C825.181 1015.4 855.522 1016.35 892.903 1003.11C904.746 998.911 916.219 993.652 928.097 989.568C974.899 973.473 1000.02 995.917 1039.67 1015.04C1037.08 1018.24 1034.34 1021.32 1031.64 1024.43L1026.24 1030.02C989.607 1010.24 961.063 999.437 920.096 1015.31C905.254 1021.06 890.684 1027.65 875.243 1031.68C862.356 1035.05 848.904 1037 835.597 1035.52C808.326 1032.5 781.034 1014 756.784 1001.95C742.909 995.057 729.004 989.437 714.135 985.034C714.047 982.215 713.849 979.52 714.745 976.803C716.639 971.059 717.739 968.663 715.143 962.799Z"/>
      <path class="c_06" d="M680.037 963.36L681.266 963.78C678.811 972.412 683.349 976.088 682.926 985.186C662.893 990.731 644.671 999.725 626.307 1009.26C607.104 1019.24 587.238 1031.53 565.613 1035C552.26 1037.14 538.83 1035.64 525.741 1032.56C505.003 1027.67 486.384 1017.52 466.098 1011.47C430.911 1000.99 402.074 1013.29 371.431 1030L367.584 1026.36C364.154 1022.82 361.057 1018.92 357.89 1015.14C376.127 1005.96 393.694 994.14 413.288 988.064C469.246 970.714 506.124 1019.19 562.915 1011.97C605.647 1006.54 640.329 978.007 680.037 963.36Z"/>
      <path class="c_06" d="M430.905 1039.63C457.28 1036.11 481.869 1050.49 505.958 1058.8C516.779 1062.54 527.634 1064.96 538.845 1067.11C527.536 1068.89 516.293 1070.65 504.915 1071.97C465.474 1075.65 432.521 1068.36 398.024 1049.25C408.625 1044.27 419.31 1041.17 430.905 1039.63Z"/>
      <path class="c_06" d="M949.43 1039.62C967.003 1037.32 983.905 1042.52 999.843 1049.32C971.331 1063.7 944.182 1073.25 911.766 1072.98C893.763 1072.65 876.257 1070.03 858.527 1067.06C870.451 1064.86 881.965 1062.26 893.421 1058.16C912.024 1051.5 929.706 1042.56 949.43 1039.62Z"/>
      <path class="c_06" d="M714.122 1017.67C726.96 1021.03 772.35 1042.61 780.985 1049.84C765.948 1047.69 750.815 1046.28 735.641 1045.6C732.308 1045.45 720.156 1045.83 717.739 1044.63C717.375 1044.45 717.143 1044.07 716.845 1043.8C717.514 1039.4 717.095 1037.94 714.673 1034.22L714.154 1033.44L714.122 1017.67Z"/>
      <path class="c_06" d="M681.584 1018.07L682.489 1018.54C683.51 1023.25 682.912 1028.85 682.857 1033.69L682.128 1034.78C680.148 1037.7 680.153 1040.67 679.831 1044.09C659.528 1047.08 638.765 1046.47 618.345 1049.69L616.92 1049.62C621.259 1044.31 671.087 1021.89 681.584 1018.07Z"/>
      <path class="c_04" d="M717.297 877.122C756.839 888.979 789.673 917.352 829.137 925.52C876.548 937.218 924.293 892.697 968.218 898.91C1008.05 904.544 1034.73 934.18 1078.13 940.999L1074.27 949.704C1073.68 951.096 1073.95 950.611 1072.86 951.733C1042.56 949.771 1007.74 915.783 970.57 911.585C913.151 905.1 881.278 952.225 821.174 935.991C791.237 928.332 765.327 909.75 737.34 897.099C729.348 893.486 709.383 890.783 717.297 877.122Z"/>
      <path class="c_04" d="M678.867 877.448L680.078 878.115C681.782 881.754 680.82 885.021 679.851 889.125C678.805 890.165 679.284 889.961 678.169 890.316C638.365 903 606.422 932.072 564.505 938.5C512.464 946.48 474.199 902.697 423.816 912.019C411.786 914.244 405.872 916.222 394.792 921.286C377.074 929.383 343.106 951.685 324.063 951.721L319.338 940.995C365.581 934.23 390.256 903.159 430.493 898.771C479.602 894.938 522.838 939.439 574.254 924.317C610.84 913.556 641.883 890.341 678.867 877.448Z"/>
      <path class="c_04" d="M714.173 939.858C758.011 952.012 791.791 983.744 835.116 989.93C887.971 997.476 929.029 950.451 979.677 964.605C1006.4 972.074 1025.47 987.588 1051.23 997.534L1046.7 1004.93C1045.84 1006.28 1046.35 1005.67 1044.82 1006.51C1041.64 1005.79 1032.06 1000.23 1028.72 998.406C1008.8 987.514 991.942 977.723 968.878 974.931C919.435 968.946 883.519 1010.66 831.205 1001.72C799.449 996.289 778.105 980.618 749.876 966.854C737.032 960.592 727.73 956.665 714.176 952.219L714.173 939.858Z"/>
      <path class="c_04" d="M682.052 940.054L682.388 940.396C683.287 942.955 682.919 949.231 682.887 952.25C670.054 956.452 657.576 961.671 645.573 967.858C618.419 981.601 595.911 996.93 565.28 1001.88C512.671 1010.37 475.317 966.715 424.521 975.467C402.617 979.241 388.566 987.716 369.434 998.099C365.327 1000.33 356.457 1005.49 352.414 1006.55L351.237 1005.65L346.196 997.536C371.772 987.887 391.888 971.368 418.404 964.451C468.194 950.479 513.436 999.083 563.859 989.759C605.578 982.044 640.681 953.464 682.052 940.054Z"/>
      <path class="c_04" d="M714.164 994.983C728.164 999.197 741.408 1004.99 754.439 1011.56C781.436 1025.18 809.067 1043.87 840.008 1045.62C855.302 1046.49 871.148 1043.21 885.677 1038.68C910.655 1030.89 934.189 1016.27 961.105 1017.23C977.688 1017.82 990.945 1023.33 1005.73 1030.21C1008.8 1031.64 1013.94 1033.19 1016.04 1035.74C1016.91 1036.79 1016.63 1036.32 1016.48 1037.92L1013.66 1040.21C1012.43 1041.07 1011.11 1041.84 1009.83 1042.64C1005.63 1042.8 994.213 1036.49 989.522 1034.91C977.887 1030.98 965.284 1028.85 952.989 1029.61C924.471 1031.38 899.022 1048.23 871.438 1054.69C861.692 1056.98 851.414 1058.57 841.377 1058.11C798.688 1056.13 756.572 1020.58 714.156 1007.61L714.164 994.983Z"/>
      <path class="c_04" d="M681.889 995.466L682.341 995.797C683.625 998.683 682.92 1004.41 682.896 1007.68C641.527 1020.15 606.786 1051.31 563.62 1057.39C514.981 1064.23 477.86 1025.75 431.664 1029.84C421.297 1030.79 411.137 1033.32 401.538 1037.35C397.428 1039.03 392.914 1041.7 388.641 1042.73C387.534 1042.99 386.405 1041.93 385.453 1041.36L379.214 1036.72C421.356 1013.9 440.199 1010.91 484.852 1028.69C497.938 1033.9 510.94 1039.07 524.719 1042.21C537.426 1045.11 550.398 1046.57 563.39 1045.05C588.827 1042.08 611.589 1027.75 633.943 1016.2C649.579 1008.11 665.027 1000.67 681.889 995.466Z"/>
    </g>  
    <g id="borobudur">
      <path class="c_04" d="M714.213 364.666L726.467 364.663C733.264 396.974 739.352 430.713 745.677 463.219L767.048 473.1L768.939 494.644C809.286 505.483 833.548 525.327 833.451 569.012L847.486 569.009L847.513 580.138C819.44 596.942 839.176 622.046 860.059 633.427C860.054 638.832 858.82 644.79 861.504 649.09C865.367 652.01 869.019 651.103 874.04 650.894L874.004 681.475L899.793 681.481C902.468 660.893 903.485 667.094 911.617 651.311C913.953 646.776 916.768 620.934 918.091 613.42C934.299 596.693 932.131 592.908 936.48 569.9C937.737 569.872 943.604 569.525 944.129 570.946C947.302 579.541 947.51 590.024 950.267 598.696C951.343 602.08 959.151 609.941 961.832 612.832C963.807 623.064 964.904 633.44 966.501 643.743C968.002 653.421 972.035 657.432 978.16 664.444C980.8 679.381 982.585 696.557 984.875 711.859L1001.96 711.858C1002.62 708.528 1004.44 698.179 1005.79 695.567C1007.71 691.858 1012.93 686.324 1014.25 681.653C1017.66 669.503 1018.54 655.301 1022.79 643.531C1024.38 639.122 1032.04 634.567 1033.73 628.821C1035.88 621.475 1036.46 608.34 1039.37 601.961C1040.81 601.156 1046.5 600.76 1047.13 602.251C1050.77 610.939 1050.49 621.694 1053.85 630.475C1054.9 633.216 1061.57 639.685 1063.93 642.123C1065.9 653.735 1068.81 670.359 1072.29 681.617C1072.96 683.805 1080.86 692.264 1081.45 695.089C1084.52 709.866 1086.14 727.283 1088.1 742.348L1104.13 742.357C1122.29 717.184 1118.55 719.548 1122.1 687.758C1125.56 683.614 1130 679.848 1133.33 675.489C1138.26 669.02 1137.06 646.357 1143.92 642.687C1155.37 642.639 1149.83 667.24 1156.47 674.969C1166.15 686.253 1167.89 691.033 1170.37 705.135L1173.98 723.236C1172.75 725.936 1171.38 728.673 1170.09 731.354C1166.85 719.108 1164.99 706.283 1161.28 694.262C1159.48 688.451 1152.73 681.407 1148.56 676.669C1147.58 670.539 1146.33 664.137 1145.23 658C1143.53 663.768 1142.33 670.701 1141.15 676.677C1137.16 681.184 1132.65 685.868 1128.53 690.312C1124.45 727.005 1128.74 719.259 1107.75 748.703L1082.11 748.698C1079.6 732.18 1078.54 714.049 1075.15 697.726C1074.4 694.119 1066.73 686.992 1065.93 684.291C1062.34 672.276 1059.93 657.212 1057.57 644.898L1047.64 634.45C1046.36 628.547 1044.98 621.092 1043.09 615.488L1039.69 633.524C1038.12 635.25 1030.45 643.531 1029.68 645.31C1024.8 651.781 1023.5 681.075 1020.06 686.032C1009.85 700.753 1011.11 700.449 1007.33 718.211L978.805 718.213C977.047 701.852 974.127 683.252 971.745 666.859L961.688 655.359C959.755 642.167 957.745 628.986 955.658 615.818C950.231 609.837 944.443 604.956 942.858 596.654C942.141 592.903 941.408 588.969 940.149 585.369C938.96 591.504 937.656 597.616 936.239 603.702C932.258 607.796 928.286 612.149 924.373 616.328C922.07 628.603 920.09 643.147 918.291 655.5C906.771 669.503 908.022 669.965 905.539 687.772L867.041 687.773L867.406 657.691L853.365 655.278L853.289 637.121C829.131 622.474 814.653 596.838 842.007 575.484L827.003 575.462C826.962 561 826.867 547.728 819.38 534.882C806.705 513.133 785.099 505.891 762.547 499.538C761.912 492.077 761.158 484.626 760.286 477.189L739.416 467.512C734.462 440.52 727.011 401.688 720.898 374.027C720.387 371.716 717.239 371.232 715.115 370.631C713.629 368.4 714.205 367.959 714.213 364.666Z"/>
      <path class="c_04" d="M670.984 364.642C676.062 364.536 680.681 363.559 684.083 367.97C682.547 371.858 680.606 371.291 676.706 371.196C670.174 402.717 663.931 435.834 658.069 467.517C651.115 470.596 643.858 474.115 636.93 477.336L634.97 499.548C608.914 506.483 582.457 517.117 573.55 545.296C570.262 555.697 570.519 564.722 570.483 575.469L555.395 575.464C583.307 596.816 567.921 622.103 544.238 637.07L544.165 655.279C539.464 656.033 534.769 656.826 530.081 657.657L530.295 687.762L491.956 687.786C488.64 667.186 491.296 670.858 479.589 655.32C478.595 654.002 473.973 621.832 472.972 616.158L460.885 603.198C459.726 597.275 458.665 591.05 456.874 585.311L453.534 602.552C449.788 607 445.591 611.573 441.715 615.951C439.862 628.216 437.936 643.954 435.428 655.846C432.117 659.563 428.848 663.317 425.621 667.108L418.494 718.203L390.028 718.22C386.422 700.459 386.51 699.681 376.944 684.511C373.499 679.048 372.727 652.196 367.687 645.018C365.228 641.517 360.639 636.708 357.819 633.602C356.801 628.117 355.682 620.826 353.924 615.688L349.897 634.385L339.944 644.816C337.396 656.897 335.421 671.8 331.775 683.547C331.013 686.003 322.999 694.651 322.418 697.514C319.106 713.825 317.585 732.154 315.228 748.711L289.748 748.707C269.023 719.926 272.618 725.748 269.066 690.573C264.744 685.978 260.494 681.315 256.318 676.587C255.021 670.01 253.82 664.06 252.156 657.538C251.15 663.899 249.962 670.369 248.866 676.728C245.894 680.062 239.62 686.696 238.034 690.345C232.837 702.305 230.265 718.978 227.536 731.666C226.153 729.082 224.757 725.992 223.467 723.317L225.051 715.308C226.435 708.122 228.757 692.258 232.011 686.476C235.011 681.146 240.561 678.689 243.419 669.82C245.976 661.887 244.567 651.153 248.754 644.374C249.725 642.802 251.446 642.803 252.956 642.642C260.401 645.829 259.297 667.043 263.115 673.822C265.098 677.344 272.491 684.699 275.388 687.783C276.577 698.323 277.237 716.355 281.584 725.182C283.344 728.755 290.698 738.663 293.357 742.34L309.541 742.345C310.408 731.793 313.601 706.523 315.922 695.147C316.705 691.306 324.194 685.166 325.236 681.552C328.746 669.37 331.248 654.36 333.639 642.079C336.239 639.057 338.858 636.702 341.35 633.41C347.931 624.716 346.337 610.121 350.498 601.272C353.836 600.879 354.153 600.948 357.525 601.468C360.74 605.552 361.703 622.875 363.89 629.182C365.959 635.149 373.048 639.169 374.477 643.052C379.238 652.153 379.174 673.31 383.304 681.456C390.251 695.156 392.245 695.684 395.471 711.853L412.595 711.849L419.122 664.533C421.04 662.386 425.951 657.009 427.075 654.786C432.189 644.671 433.589 625.025 435.184 613.402C436.612 611.836 445.163 602.592 445.899 601.228C450.267 593.125 449.565 579.082 453.551 570.466C455.305 569.595 458.592 569.86 460.727 569.866C466.553 594.027 461.55 595.052 479.383 613.412C481.187 621.47 482.905 644.743 485.529 650.257C493.215 666.404 494.994 661.038 497.608 681.476L523.626 681.481L523.345 650.939C529.746 651.189 531.25 651.107 537.308 649.91L537.572 633.318C558.426 622.077 577.822 596.687 549.933 580.135L549.905 569.011L563.957 569.004C563.777 524.909 588.337 505.908 628.456 494.659L630.452 473.081L651.897 463.11C653.496 452.572 656.327 439.816 658.381 429.217L670.984 364.642Z"/>
    </g>
    <g id="bambu_runcing">
      <path class="c_03" d="M687.015 308.514C692.183 308.466 707.537 307.378 710.405 310.118C710.119 312.2 709.947 311.714 707.894 313.516C707.061 323.808 707.704 336.996 707.505 347.608C707.633 357.378 707.13 367.187 708.042 376.928C708.223 378.869 709.075 379.92 710.391 381.236L710.375 382.529L709.065 383.763C704.521 383.814 689.8 384.617 686.661 382.516C686.571 378.957 689.82 380.192 689.74 377.119C689.236 357.634 689.536 338.14 689.742 318.656C689.773 315.783 688.188 312.736 686.633 310.436L687.015 308.514Z"/>
      <path class="c_03" d="M686.867 473.264C693.282 473.149 702.717 472.628 709.071 473.758C711.365 473.958 707.389 480.232 707.569 482.019C708.865 494.891 704.723 536.844 710.049 546.707L709.616 548.014L707.849 548.479C703.092 548.486 689.597 549.43 686.586 547.014L686.689 545.611L689.259 543.512C689.911 542.003 689.537 483.849 689.391 478.359C688.142 477.278 687.738 476.864 686.648 475.619L686.867 473.264Z"/>
      <path class="c_03" d="M686.948 390.894C692.069 390.83 707.527 389.661 710.515 392.538C710.416 394.459 709.882 394.251 707.903 396.047C706.655 403.562 707.83 450.387 707.896 460.909C707.9 461.665 709.857 461.245 710.486 464.666L709.05 466.125C704.547 466.176 689.807 466.96 686.684 464.919L686.612 463.441L689.29 461.108C689.851 459.346 689.711 399.749 689.218 395.71C686.421 393.791 686.523 393.957 686.948 390.894Z"/>
      <path class="c_03" d="M686.4 638.06C690.727 637.958 706.756 637.072 709.724 638.678L709.953 640.061C704.401 651.199 709.219 691.862 707.622 706.616C707.393 708.728 709.579 708.741 710.58 711.075L709.603 713.204C704.36 713.194 690.12 714.269 686.661 711.708L686.728 710.33L689.27 708.352C691.475 702.496 688.253 656.915 689.518 647.192C690.263 641.469 687.12 643.269 686.4 638.06Z"/>
      <path class="c_03" d="M688.793 884.858C693.879 884.811 705.355 884.33 709.565 885.531L710.01 886.616L709.599 887.642C709.146 888.788 707.546 891.71 707.543 892.61C707.494 907.609 707.626 922.638 707.61 937.646C707.604 943.167 707.118 949.716 707.891 955.094C710.283 956.841 710.93 956.926 709.937 959.523L707.849 960.131C703.418 960.176 691.368 960.86 687.161 959.229C686.494 958.97 686.701 958.289 686.669 957.379L689.394 954.903C690.374 951.088 689.644 896.734 689.411 890.123C688.026 888.976 687.738 888.741 686.585 887.377L686.864 885.798L688.793 884.858Z"/>
      <path class="c_03" d="M686.792 555.629C691.681 555.564 707.308 554.602 710.44 556.949L710.302 558.399C709.631 558.928 708.652 559.598 708.089 560.278C707.217 561.332 707.123 618.026 707.734 624.368C707.994 627.063 710.152 626.571 710.432 629.486L709.005 630.83C704.219 630.851 689.701 631.856 686.63 629.344C686.864 625.92 689.784 627.13 689.728 624.733C689.239 604.193 689.703 583.602 689.659 563.063C689.652 559.789 686.632 560.582 686.792 555.629Z"/>
      <path class="c_03" d="M687.515 967.197C691.913 967.143 706.964 965.591 709.992 968.411L709.577 969.657C709.382 970.253 709.211 970.858 708.982 971.441C708.319 973.13 707.583 974.594 707.465 976.456C706.711 988.448 707.58 1001.09 707.603 1013.14C707.616 1020.31 706.665 1028.53 707.58 1035.56C707.94 1038.32 709.944 1038.24 710.488 1040.8L709.653 1042.06L707.138 1042.41C701.746 1042.48 691.25 1043.79 686.68 1041.23L686.576 1039.8L689.31 1037.27C689.967 1035.18 690.054 973.861 689.317 972.274C688.718 970.986 687.285 971.017 686.573 969.121L687.515 967.197Z"/>
      <path class="c_03" d="M686.336 720.464C690.495 720.355 708.339 719.243 710.16 721.739C709.532 723.134 707.517 727.38 707.51 728.737C707.437 743.986 707.665 759.238 707.531 774.489C707.487 779.579 707.321 785.11 707.924 790.139C710.542 792.637 711.047 792.345 709.571 795.527C704.429 795.541 690.045 796.618 686.706 794.032L686.743 792.666L689.18 790.623C691.008 786.679 688.654 737.102 689.493 728.956C690.014 723.892 687.201 725.483 686.336 720.464Z"/>
      <path class="c_03" d="M686.297 802.817C689.734 802.55 708.271 801.616 709.973 803.897C709.65 804.857 709.36 805.87 708.984 806.811C708.739 807.422 708.43 808.008 708.195 808.623C706.494 813.079 707.104 869.874 708.877 873.388C709.325 874.275 709.831 875.133 710.265 876.039L709.535 877.823C704.639 877.885 691.233 878.447 687.397 877.104C687.632 876.123 689.716 868.104 689.681 866.376C689.292 847.064 690.033 827.109 689.248 807.811C689.21 806.864 687.304 807.7 686.297 802.817Z"/>
      <path class="c_03" d="M698.151 239.886C702.71 244.306 711.135 283.463 711.388 291.119C711.763 302.451 708.639 301.979 698.76 302.323C693.669 302.218 689.643 302.892 686.125 299.434C681.22 288.699 693.863 252.139 698.151 239.886Z"/>
    </g>
    <g id="kapas">
      <path class="c_04" d="M1315.37 585.527C1326.58 584.839 1330.09 587.204 1337.93 595.09C1343.34 594.298 1351.81 593.063 1355.26 598.238C1354.02 603.012 1347.09 602.845 1347.9 613.135C1348.25 617.471 1350.33 621.484 1353.67 624.262C1356.54 626.652 1360.3 627.703 1363.99 627.153C1370.29 626.197 1373.48 621.662 1377.04 616.953L1368.34 612.654C1366.18 615.784 1364.39 618.997 1360.35 617.49C1358.85 615.875 1356.94 613.708 1357.6 611.582C1360.56 602.105 1378.73 602.565 1382.66 611C1385.73 617.582 1383.45 623.416 1381.51 629.235L1382.27 630.296C1394.07 646.697 1366.86 659.29 1354.54 662.942C1353.25 650.403 1348.52 646.276 1336.47 644.034C1332.97 637.237 1326.21 622.509 1318.14 622.081C1311.78 627.507 1307.17 636.64 1303.39 643.937C1291.28 647.595 1287.12 650.658 1284.27 663.09C1270.79 659.852 1259.41 656.674 1255.1 642.135C1256.32 636.334 1257.34 634.232 1259.93 629.099C1250.79 616.281 1253.09 609.26 1268.61 605.721C1271.53 606.406 1275.65 607.335 1277.97 609.12C1282.67 612.742 1282.24 621.031 1274.73 620.511C1272.54 619.209 1272.27 617.526 1271.32 615.079L1261.87 616.947C1263.03 620.876 1263.79 624.007 1266.9 626.932C1269.54 629.45 1273.15 630.69 1276.78 630.326C1285.48 629.505 1293.2 620.497 1291.22 611.559C1289.8 605.129 1285.79 602.658 1280.58 599.463C1289.03 594.811 1291.54 594.826 1300.59 596.867C1305.33 590.441 1308.32 588.392 1315.37 585.527Z"/>
      <path class="c_04" d="M1290.8 691.406C1303.61 691.049 1307.7 695.692 1313.36 706.519C1313.64 706.562 1313.92 706.605 1314.2 706.648L1315.6 706.892C1320.24 707.671 1324.34 708.645 1327.91 711.932C1328.16 712.59 1328.42 713.249 1328.68 713.907C1325.17 718.752 1317.22 720.535 1315.88 727.482C1315.21 731.047 1316.97 736.788 1319.32 739.593C1326.98 748.777 1336.39 743.199 1343.25 738.206L1336.41 731.727C1333.88 733.663 1332.15 734.978 1329.05 735.306C1325.97 733.769 1325.18 729.362 1327.07 726.949C1332.86 719.588 1350.09 725.325 1350.81 734.686C1351.29 740.931 1346.98 746.578 1343.4 751.313C1350.78 771.154 1319.94 775.695 1306.64 775.828C1309.65 763.493 1306.32 758.372 1295.61 752.624C1294.87 745.666 1292.22 733.494 1288.66 727.417C1288.06 727.364 1287.45 727.331 1286.85 727.318C1279.75 727.212 1269.19 738.569 1264.02 743.55C1251.52 743.616 1246.14 745.334 1239.72 756.395C1222.42 746.374 1209.38 735.067 1227.65 717.324C1216.85 681.72 1270.27 701.085 1247.76 714.674C1242.34 714.83 1245.08 707.992 1241.97 706.986C1225.11 701.538 1234.88 729.052 1250.27 722.759C1266.92 715.952 1265.65 709.667 1258.36 695.334C1264.04 690.935 1271.77 694.877 1277.1 697.812C1282.45 694.114 1284.79 693.044 1290.8 691.406Z"/>
      <path class="c_04" d="M1250.3 792.332C1262.53 792.225 1266.75 798.02 1271.96 807.947C1277.45 808.377 1285.48 809.333 1287.11 815.513C1285.89 817.156 1282.98 818.217 1281.11 819.295C1274.15 823.316 1272.69 833.557 1277.16 839.977C1279.12 842.828 1282.16 844.753 1285.58 845.303C1292.12 846.385 1296.59 842.892 1301.6 839.287L1294.75 832.743C1291.35 835.405 1286.9 837.791 1283.75 833.259C1284.46 816.956 1323.72 823.514 1301.76 852.472C1309.6 872.028 1278.02 876.664 1265.16 876.866C1266.89 864.033 1266.09 860.275 1254.04 853.726C1253.91 852.796 1253.77 851.868 1253.61 850.943C1252.39 843.613 1250.91 831.818 1244.89 827.485C1235.88 831.058 1229.25 837.943 1222.47 844.632C1209.99 844.444 1204.41 846.614 1198.07 857.488C1180.62 847.3 1167.92 836.221 1186.04 818.304C1184.2 812.489 1183.11 807.445 1187.15 802.247C1189.14 799.706 1192.09 798.089 1195.3 797.769C1211.62 796.062 1217.86 817.882 1203.15 814.95C1201.44 812.982 1201.82 811.62 1201.23 808.506C1198.35 806.217 1195.38 806.556 1192.5 808.553C1188.52 817.526 1197.6 825.905 1207.39 824.166C1212.27 823.276 1216.59 820.473 1219.39 816.379C1226.56 805.704 1217.26 799.769 1216.63 796.184L1218.27 794.794C1224.17 793.33 1230.44 796.057 1235.52 798.845C1241.36 794.92 1243.42 793.824 1250.3 792.332Z"/>
      <path class="c_04" d="M1341.22 488.002C1340.76 490.974 1340.65 493.002 1338.61 495.132C1337.19 495.579 1336.21 496.014 1334.78 495.024C1321.55 485.879 1344.39 474.132 1353.05 480.955C1359.43 485.981 1359.57 490.923 1360.91 498.191C1380.28 508.733 1362.24 529.607 1351.68 539.084C1344.89 528.261 1338.97 526.292 1326.72 528.709C1301.84 510.213 1296.95 508.391 1296.62 541.318C1293.12 544.245 1292.23 545.186 1289.3 548.601C1285.78 555.656 1285.92 558.37 1288.06 565.889C1268.7 569.02 1250.01 569.399 1250.48 544.523C1240.64 538.997 1233.83 529.517 1245.11 521.46C1250.9 517.324 1266.64 517.611 1263.52 528.704C1261.58 530.923 1262.74 530.199 1259.9 530.966C1257.47 530.576 1256.87 529.646 1255.07 527.938L1254.41 527.301L1246.41 532.602C1249.56 535.896 1251.95 538.677 1256.57 540.006C1269.7 543.786 1278.6 527.517 1271.23 517.194C1267.11 511.425 1262.1 510.584 1255.56 509.676C1261.34 502.177 1263.53 501.291 1272.57 499.669C1277.07 480.716 1289.03 477.2 1306.16 484.003C1310.01 481.035 1311.64 480.193 1316.32 478.906C1330.71 479.423 1315.82 486.397 1322.9 496.048C1325.95 500.211 1326.61 502.709 1332.41 504.283C1336.16 505.313 1340.17 504.74 1343.48 502.702C1349.22 499.1 1349.88 494.937 1351.42 488.928L1341.22 488.002Z"/>
      <path class="c_04" d="M1199.07 888.9C1212.07 887.577 1217.36 893.501 1222.68 904.295C1227.45 904.429 1234.73 906.166 1237.97 909.856C1238.17 914.678 1225.23 917.945 1225.3 924.286C1225.51 945.005 1239.55 945.031 1252.32 935.557L1245.62 929.087C1242.46 931.162 1237.53 934.481 1234.7 929.899C1235.5 914.904 1258.33 919.987 1259.38 932.254C1260 939.409 1256.59 943.347 1252.61 948.647C1259.64 968.71 1229.19 972.831 1215.77 973.272C1218.41 960.674 1216.06 956.115 1204.7 949.916C1204.04 943.145 1202.04 936.124 1200.12 929.625C1199.72 928.406 1199.07 927.28 1198.48 926.125C1191.1 921.061 1178.34 935.851 1173.31 940.781C1164.01 940.669 1162.31 942.997 1154.05 944.665C1149.86 945.509 1141.82 944.864 1136.49 945.5C1130.75 940.028 1129.23 937.195 1127.24 929.951C1129.24 922.027 1131.05 920.213 1136.8 914.708C1136.31 913.043 1135.86 911.367 1135.45 909.681C1133.75 902.444 1137.85 895.717 1145.29 894.413C1149.47 893.696 1153.78 894.678 1157.24 897.139C1166.11 903.555 1161.52 912.567 1154.92 912.081C1152.52 910.117 1153.7 907.996 1151.56 904.74C1143.72 899.555 1139.8 908.346 1144.13 914.715C1150.49 924.076 1159.57 921.199 1167.52 916.004C1179.42 908.229 1167.2 896.068 1167.75 891.788L1168.99 890.843C1174.53 889.819 1181.45 892.511 1186.25 895.135C1190.85 891.856 1193.81 890.571 1199.07 888.9Z"/>
      <path class="c_02" d="M1274.8 586.959C1277.79 586.871 1277.71 586.737 1279.39 589.554C1276.22 591.503 1271.01 596.677 1269.29 596.87L1268.86 596.125C1270.23 592.956 1274.54 591.332 1276.84 588.039L1274.8 586.959Z"/>
      <path class="c_02" d="M1203.11 727.163C1210.13 731.063 1207.43 732.711 1210.49 740.594C1216.45 755.909 1232.1 763.35 1246.02 769.655C1247.46 764.505 1249.26 754.976 1255.11 753.608L1255.74 754.126L1254.52 756.948C1245.35 777.652 1270.92 787.391 1286.67 779.983C1292.49 777.243 1294.47 770.988 1295.93 765.12L1296.72 764.852L1297.59 765.945C1298.01 771.805 1295.38 777.885 1293.28 783.288C1315.76 786.611 1332.51 785.164 1350.03 769.733C1353.29 769.092 1356.83 768.593 1360.12 768.064C1354.36 775.392 1350.55 778.915 1343.1 784.341C1334.05 789.77 1330.24 791.411 1320.04 794.571C1328.25 799.616 1331.38 803.047 1336.95 810.65C1321.27 804.247 1311.37 803.361 1295.72 809.861C1288.28 800.38 1281.57 802.312 1273.23 792.534C1262.86 780.372 1248.79 781.926 1235.21 787.88C1229.97 786.187 1228.11 785.862 1222.76 785.428C1213.66 775.369 1204.75 774.208 1192.15 770.837C1200.38 766.767 1207.26 765.618 1216.33 766.48C1205.03 753.739 1199.88 744.949 1203.11 727.163Z"/>
      <path class="c_02" d="M1401.11 641.452L1402.27 641.731C1401 654.831 1383.57 670.166 1373.65 677.204C1382.95 679.401 1387.53 682.306 1395.19 687.775C1385.52 686.921 1376.52 686.859 1367.31 690.389C1357.98 693.966 1339.89 716.343 1340.6 691.716C1336.91 695.711 1334.4 698.309 1329.99 701.467C1326.96 700.21 1323.43 699.087 1320.29 698.009C1308.22 681.284 1295.62 678.245 1276.84 686.901C1261.61 681.321 1256.57 686.258 1243.56 691.317C1249.45 683.532 1256.24 681.327 1265.19 679.059L1258.51 674.978C1249.84 668.893 1239.58 657.229 1240.25 646.071C1242.45 645.341 1241.32 645.564 1243.92 646.139C1246.19 647.817 1246.8 649.087 1248.1 651.622C1256.32 667.734 1278.68 671.906 1294.67 673.86C1294.4 668.041 1293 660.211 1297.92 656.031C1301.9 659.951 1296.16 667.771 1302.13 673.311C1307.18 678.005 1312.18 679.072 1318.99 679.134C1329.75 679.231 1341.99 673.049 1341.12 660.719C1340.98 658.639 1340.93 657.75 1341.25 655.734L1342.59 656.578C1345.28 661.43 1344.46 668.19 1344.31 673.792C1365.77 670.968 1382.71 664.807 1393.81 645.074L1401.11 641.452Z"/>
      <path class="c_02" d="M1161.28 828.108C1168.49 831.842 1165.99 834.122 1168.9 841.686C1174.8 856.95 1190.63 864.511 1204.5 870.748C1205.64 866.191 1207.99 854.72 1213.87 854.753C1213.92 859.558 1208.35 866.381 1211.55 872.349C1214.2 877.375 1219.79 880.356 1224.82 882.025C1236.79 885.991 1251.07 882.721 1253.59 868.762C1253.84 867.396 1254.08 867.239 1255.02 866.204L1255.92 867.588C1256.44 872.746 1253.62 879.307 1251.84 884.226C1273.3 888.231 1292.02 885.662 1308.44 870.645L1318.48 869.086C1312.84 876.494 1309.03 879.849 1301.62 885.302C1293.6 890.539 1287.54 892.715 1278.54 895.705C1286.62 900.752 1289.82 903.922 1295.18 911.721C1275.26 903.355 1268.35 905.993 1249.37 912.23C1248.67 910.699 1247.93 909.185 1247.15 907.69C1242.99 899.813 1237.21 897.791 1229.38 895.399C1217.68 878.57 1204.69 875.7 1186.26 884.114C1177.69 882.181 1173.94 879.724 1165.92 876.51C1161.52 874.746 1155.15 873.11 1150.46 871.857C1160.48 867.547 1163.78 867.005 1174.61 867.417C1162.69 854.444 1158.99 846.135 1161.28 828.108Z"/>
      <path class="c_02" d="M1385.3 500.478C1387.84 517.741 1384.25 529.917 1375.32 544.708C1383.91 543.578 1390.33 543.31 1398.7 546.17C1389.49 549.538 1384.61 551.42 1377.12 557.699C1368.35 565.05 1363.09 593.175 1352.14 570.688C1350.21 576.365 1349.6 580.943 1344.88 584.16C1335.39 586.349 1324.39 562.694 1296.45 586.565C1290.08 586.198 1285.29 586.637 1279.39 589.554C1277.71 586.737 1277.79 586.871 1274.8 586.959C1263.92 586.235 1243.48 578.42 1240.28 567.085C1241.7 566.32 1242.68 565.542 1244.52 566.055C1248.52 567.172 1251.97 571.481 1255.83 573.134C1269.93 579.177 1288.5 575.873 1302.44 571.713C1300.4 568.33 1294.33 558.575 1296.35 554.707L1297.68 554.164C1302.75 558.585 1301.97 571.153 1316.78 569.631C1327.91 568.487 1341.09 561.552 1340.74 548.853C1340.64 544.98 1336.06 538.729 1336.21 537.408C1341.78 538.757 1345.02 547.752 1347.34 552.651C1364.89 542.203 1378.47 529.573 1379.16 507.817C1381.17 505.385 1383.22 502.833 1385.3 500.478Z"/>
      <path class="c_02" d="M1266.95 965.773L1267.69 965.75L1268.11 966.437C1260.75 979.581 1242.55 987.869 1228.86 991.979C1236.36 996.151 1241.01 1000.98 1245.92 1007.85C1242.06 1006.4 1238.22 1005.16 1234.26 1004.05C1229.67 1003.08 1225.26 1002.8 1220.59 1002.62C1219.05 995.36 1216.63 988.81 1213.55 982.068C1231.6 982.215 1245.38 979.315 1259.11 967.101C1261.7 966.582 1264.34 966.21 1266.95 965.773Z"/>
      <path class="c_02" d="M1112.22 924.548C1114.03 925.4 1115.47 926.555 1117.09 927.727L1117.2 928.434C1118 932.916 1118.21 934.745 1120.02 938.946C1121.02 941.287 1124.13 946.071 1124.22 948.002L1123.07 948.436L1115.72 951.349C1111.02 941.168 1110.26 935.45 1112.22 924.548Z"/>
      <path class="c_03" d="M1319.54 634.819C1323.54 639.234 1329.2 649.788 1330.57 655.638C1332.84 665.287 1329.46 668.509 1320.54 669.836C1297.45 670.214 1313.53 644.461 1319.54 634.819Z"/>
      <path class="c_03" d="M1282.3 739.522C1285.3 743.016 1287.26 759.834 1285.87 764.75C1282.92 775.105 1276.58 773.966 1268.43 771.828C1252.31 764.134 1275.28 745.441 1282.3 739.522Z"/>
      <path class="c_03" d="M1240.97 840.314C1243.41 845.966 1245.6 859.139 1244.34 865.26C1242.08 876.185 1234.84 875.049 1226.53 872.784C1210.93 864.791 1233.98 846.231 1240.97 840.314Z"/>
      <path class="c_03" d="M1306.96 526.646C1315.11 530.954 1339.34 546.26 1326.74 556.524C1323.81 558.175 1319.95 560.294 1316.48 560.133C1314.25 560.048 1312.15 559.05 1310.67 557.374C1304.97 550.938 1306.42 534.687 1306.96 526.646Z"/>
      <path class="c_03" d="M1191.33 936.95C1194.7 940.737 1195.14 954.791 1195.29 959.815C1192.87 958.047 1190.15 956.292 1187.64 954.605C1184.55 952.969 1181.08 951.315 1177.92 949.742C1182.64 944.704 1186.08 941.338 1191.33 936.95Z"/>
    </g>
    <g id="padi">
      <path class="c_03" d="M34.6435 587.565C42.7024 590.237 50.1086 594.575 56.3803 600.298C68.7025 611.684 73.5404 624.687 74.0938 641.097C49.6476 631.912 35.4206 613.861 34.6435 587.565Z"/>
      <path class="c_03" d="M49.0486 519.542C68.6708 529.146 79.1174 555.822 73.3642 576.62C68.4428 576.097 59.1704 565.418 56.3211 561.161C47.4128 547.85 46.1566 534.984 49.0486 519.542Z"/>
      <path class="c_03" d="M169.293 731.552C183.84 748.775 179.403 774.834 166.847 791.854C162.694 788.222 158.996 777.362 158.278 771.71C156.239 755.667 159.99 744.249 169.293 731.552Z"/>
      <path class="c_03" d="M136.222 635.773C139.252 640.675 139.908 651.549 139.045 657.348C136.757 672.713 129.683 684.067 117.552 693.365C114.725 688.182 113.994 677.438 114.863 671.481C117.088 656.235 124.156 644.996 136.222 635.773Z"/>
      <path class="c_03" d="M191.365 779.938C195.178 784.169 198.452 794.032 199.083 799.807C200.891 816.364 196.507 827.553 186.8 840.348C172.747 821.76 178.169 797.234 191.365 779.938Z"/>
      <path class="c_03" d="M126.933 535.622C129.141 540.5 129.082 550.38 127.924 555.673C124.323 572.129 116.184 582.186 102.69 591.345C100.14 587.399 100.368 576.915 101.396 572.131C105.017 555.286 113.056 545.008 126.933 535.622Z"/>
      <path class="c_03" d="M215.169 830.966C218.911 833.792 221.362 846.323 221.628 851.26C222.463 866.803 216.732 878.54 206.673 890.006L205.688 889.678C202.78 885.61 200.39 876.251 200.126 871.147C199.244 854.101 204.572 843.438 215.169 830.966Z"/>
      <path class="c_03" d="M148.844 680.416C152.569 684.838 155.087 694.555 155.373 700.402C156.162 716.514 151.233 728.035 140.93 739.872C139.226 738.632 137.074 733.769 136.391 731.623C130.432 712.918 136.024 694.37 148.844 680.416Z"/>
      <path class="c_03" d="M128.542 583.823L129.801 584.436C131.314 589.166 131.117 598.628 130.135 603.616C126.899 620.043 118.661 629.661 105.451 638.846C102.463 635.882 103.231 623.452 104.045 619.07C106.995 603.198 115.66 592.934 128.542 583.823Z"/>
      <path class="c_03" d="M116.235 484.361C118.94 488.627 118.529 499.326 117.45 504.19C113.813 520.581 105.539 530.942 91.9533 540.04C84.811 518.345 98.4599 496.133 116.235 484.361Z"/>
      <path class="c_03" d="M45.2507 659.52C69.8758 664.672 84.0349 678.773 90.0018 702.965C65.3109 697.344 51.3578 684.061 45.2507 659.52Z"/>
      <path class="c_03" d="M133.358 879.232C158.198 880.279 175.652 891.444 185.565 914.348C160.825 912.34 143.345 902.753 133.358 879.232Z"/>
      <path class="c_03" d="M110.003 826.791C134.656 829.775 151.813 840.589 160.337 864.604C134.789 861.762 119.669 850.466 110.003 826.791Z"/>
      <path class="c_03" d="M68.9418 727.784C94.1893 729.988 110.122 741.985 119.378 765.384C93.8037 762.776 78.7405 751.286 68.9418 727.784Z"/>
      <path class="c_03" d="M93.168 777.045C117.92 778.547 134.517 791.835 143.526 814.463C118.43 812.667 102.562 799.864 93.168 777.045Z"/>
      <path class="c_03" d="M146.897 924.086C170.166 925.311 188.014 938.024 196.432 959.704C172.495 957.487 156.086 946.488 146.897 924.086Z"/>
      <path class="c_03" d="M237.861 881.57C237.969 881.685 238.077 881.8 238.185 881.916C247.46 896.642 239.864 924.93 228.594 934.713L227.397 934.44L221.174 928.263C219.152 908.684 223.777 895.392 237.861 881.57Z"/>
    </g>
    <g id="txt_jawa_tengah">
      <path id='bg_kuning' class="c_03" d="M239.566 954.365C252.367 953.249 265.078 953.906 276.918 959.371C286.173 963.643 293.731 970.769 297.087 980.574C300.751 991.28 298.94 1003.54 293.843 1013.48C290.403 1020.18 285.132 1026.59 277.651 1028.78C269.791 1031.08 259.56 1029.95 252.481 1025.81C248.494 1023.48 244.67 1019.78 243.701 1015.09C243.108 1012.31 243.742 1009.41 245.441 1007.13C249.488 1001.64 256.778 1000.79 263.011 999.914L262.883 990.906C256.104 991.579 249.617 992.399 243.555 995.814C238.79 998.498 234.844 1002.56 233.513 1007.99C232.01 1014.12 234.306 1020.51 237.658 1025.62C244.268 1035.69 259.824 1039.48 271.247 1039.09C279.264 1038.81 287.197 1037 295.241 1036.7C305.103 1036.32 315.477 1037.18 325.111 1039.33C351.386 1045.2 349.173 1052.43 369.09 1066.19C394.341 1083.65 424.744 1094.78 455.14 1098.8C495.139 1104.1 536.357 1099.09 575.199 1088.93C590.822 1084.85 606.063 1079.1 622.042 1076.52C647.496 1072.42 673.902 1072.67 699.63 1072.71C726.418 1072.75 753.961 1072.43 780.385 1077.4C800.218 1081.13 819.448 1088.68 839.291 1092.97C900.961 1106.3 967.754 1105.07 1022.53 1070.12C1027.41 1067.01 1032.28 1063.75 1036.68 1059.98C1046.2 1051.82 1051.06 1044.88 1063.92 1041.41C1076.4 1037.97 1089.31 1036.35 1102.26 1036.61C1120.65 1037.01 1135.67 1043.76 1152.78 1032.21C1158.86 1028.11 1163.18 1021.87 1164.26 1014.54C1164.98 1009.67 1163.84 1005.17 1160.74 1001.34C1154.4 993.508 1143.98 991.953 1134.63 990.844C1134.56 992.656 1133.87 998.176 1135.15 999.519C1138.77 1003.33 1148.48 1000.85 1152.82 1007.13C1154.36 1009.37 1154.59 1012.47 1154.06 1015.07C1153.1 1019.73 1148.82 1023.66 1144.9 1025.98C1138.62 1029.69 1126.72 1030.8 1119.78 1028.84C1112.37 1026.75 1106.95 1020.02 1103.56 1013.41C1098.49 1003.52 1096.67 991.308 1100.31 980.656C1103.58 971.033 1110.97 963.913 1120.01 959.652C1135.89 952.169 1156.73 951.899 1173.1 957.957C1187.96 963.453 1199.5 974.5 1206.08 988.864C1214.2 1006.57 1213.57 1027.02 1206.62 1045.02C1199.33 1063.91 1185.69 1075.56 1167.55 1083.66C1154.7 1088.81 1140.64 1091.55 1126.85 1092.44C1110.74 1093.48 1093.26 1090.64 1078.35 1098.49C1073.27 1101.16 1069.1 1104.96 1067.41 1110.58C1065.78 1115.99 1066.42 1122.9 1069.26 1127.82C1072.01 1132.59 1076.72 1135.68 1082.05 1136.87C1089.9 1138.63 1096.38 1136.26 1102.93 1132.16L1096.47 1125.14C1093.53 1126.58 1090.72 1128.2 1087.33 1127.95C1084.18 1127.72 1081.12 1126.09 1079.09 1123.68C1077.27 1121.53 1076.33 1118.7 1076.72 1115.89C1077.19 1112.46 1079.52 1109.4 1082.3 1107.45C1088.45 1103.15 1097.99 1103.02 1105.18 1104.35C1111.29 1105.48 1117.07 1108.3 1120.53 1113.64C1123.93 1118.9 1124.34 1125.43 1122.92 1131.4C1115.1 1164.47 1075.67 1151.72 1052.38 1151.68C1038.88 1151.65 1025.71 1154.23 1012.9 1158.34C987.061 1166.61 967.71 1184.65 944.624 1198.03C890.285 1229.54 860.204 1180.78 806.369 1183.14C766.814 1184.88 730.359 1209.03 690.477 1206.24C654.205 1203.71 621.731 1182.31 584.914 1183.12C547.931 1183.94 516.845 1212.65 483.374 1208.89C455.866 1205.8 430.324 1181.32 406.845 1167.88C400.309 1164.13 393.174 1161.29 386.072 1158.83C371.065 1153.62 355.561 1151.02 339.662 1151.88C325.346 1152.66 309.425 1156.65 295.405 1152.63C287.531 1150.38 280.93 1145.73 276.983 1138.41C273.778 1132.47 272.608 1125.03 274.702 1118.53C276.43 1113.17 280.406 1108.97 285.423 1106.5C292.346 1103.08 302.514 1102.23 309.766 1104.92C314.027 1106.51 318.83 1109.81 320.535 1114.2C321.423 1116.49 321.319 1118.93 320.195 1121.13C318.603 1124.25 315.541 1126.21 312.278 1127.23C307.94 1128.59 304.92 1126.98 301.07 1125.04L294.428 1132.19C311.606 1142.98 333.97 1134.74 331.011 1114.03C327.179 1087.22 280.829 1094.15 261.79 1091.52C246.185 1089.36 227.118 1084.89 213.731 1074.83C168.105 1039.43 177.603 963.623 239.566 954.365Z"/>
      <path id="J_1" class="c_01" d="M451.631 1109.73C452.525 1109.67 453.376 1109.62 454.272 1109.69C458.49 1110.03 471.675 1110.72 474.221 1113.68L473.786 1114.73C472.688 1114.97 471.463 1115.15 470.414 1115.54C470.41 1115.54 468.546 1116.32 468.375 1116.52C465.845 1119.46 464.105 1145.4 459.974 1153C458.196 1156.27 455.469 1159.09 451.755 1160C447.175 1161.12 442.061 1158.91 438.266 1156.51C433.98 1153.81 432.607 1150.3 431.517 1145.53C432.492 1142.36 433.212 1139.56 436.149 1137.69C437.752 1136.67 439.646 1136.33 441.47 1136.96C443.104 1137.53 444.426 1138.7 445.079 1140.31C446.016 1142.63 445.616 1145.1 444.546 1147.26C441.961 1148.61 439.618 1147.65 436.753 1148.27C435.888 1149.82 435.803 1149.75 436.232 1151.47C438.102 1153.61 440.321 1154.84 443.085 1155.57C445.211 1156.13 446.672 1155.88 448.497 1154.59C452.742 1151.6 457.725 1123.14 458.097 1117.25C458.215 1115.38 458.136 1114.63 456.856 1113.29C455.496 1113.05 454.438 1112.87 453.169 1112.29C451.884 1111.7 452.053 1111 451.631 1109.73Z"/>
      <path id="A_2" class="c_01" d="M499.386 1114.16C499.892 1114.23 500.804 1114.34 501.255 1114.54C505.089 1116.3 510.08 1154.71 511.785 1160.92C512.827 1164.71 513.607 1165.96 516.99 1167.85L517.246 1169.22L516.425 1170.36C515.495 1170.49 514.618 1170.62 513.675 1170.54C510.761 1170.32 498.927 1169.3 496.958 1168.25C496.422 1167.96 496.206 1167.29 495.831 1166.82C497.205 1165.16 500.615 1164.95 502.643 1163.78C503.245 1160.11 501.554 1155.34 500.751 1151.7C497.566 1151.09 494.318 1150.7 491.111 1150.21L483.709 1149.27C482.079 1152.31 479.263 1156.16 480.206 1159.72C480.748 1161.77 483.722 1162.9 485.491 1163.81L485.806 1165.16L485.012 1165.97C481.094 1166.22 473.366 1165.52 470.042 1163.51C470.638 1159.87 477.532 1155.07 479.521 1151.25C485.984 1138.8 492.737 1126.5 499.386 1114.16Z"/>
      <path id="A_2_A" class="c_03" d="M495.487 1127.96C498.019 1131.85 499.071 1142.96 500.118 1147.98L492.922 1147.01C491.019 1146.81 489.079 1146.7 487.277 1146.02C486.933 1145.88 486.593 1145.74 486.251 1145.6L486.248 1145.61C488.549 1139.52 492.332 1133.67 495.487 1127.96Z"/>
      <path id="W_3" class="c_01" d="M521.566 1118.46C527.044 1117.87 534.484 1118.22 539.816 1119.48L540.302 1120.65C539.33 1122.32 538.098 1122.25 536.746 1123.69C534.754 1131.78 539.795 1148.12 541.271 1156.81C543.413 1151.76 552.591 1133.19 551.858 1128.86C551.317 1125.67 549.296 1124.16 546.961 1122.22C545.865 1121.31 546.216 1121.92 545.982 1120.45L547.189 1119.73C551.543 1119.91 563.705 1119.32 566.737 1121.85L566.466 1123.03C564.569 1123.52 562.974 1124.03 561.223 1124.95C559.645 1128.9 565.247 1151.69 566.306 1157.45C568.935 1151.87 578.492 1131.77 576.802 1126.35C575.549 1125.36 574.426 1124.42 573.325 1123.25L573.551 1121.91C575.559 1121.04 577.462 1121.51 579.602 1121.69C582.302 1121.79 585.664 1121.52 588.098 1122.77L587.853 1123.79C586.221 1124.99 583.143 1126.68 581.957 1128.22C576.915 1134.75 568.311 1169.83 561.489 1173.09C558.036 1170.47 554.961 1143.91 553.333 1137.85L553.1 1137.01C549.793 1144.38 542.494 1167.68 537.448 1172.03L536.185 1171.51C530.352 1162.37 529.557 1136.46 526.261 1124.73C525.438 1121.8 522.767 1121.39 521.566 1118.46Z"/>
      <path id="A_4" class="c_01" d="M609.547 1120.19C610.178 1120.38 610.775 1120.53 611.361 1120.85C613.879 1122.25 616.556 1133.3 617.532 1136.32C620.237 1144.7 622.226 1154.3 625.845 1162.25C627.059 1164.92 630.706 1166.96 631.335 1169.51C626.38 1170.67 615.704 1171.76 610.914 1170.4L610.399 1168.99L611.065 1168.11C613.042 1167.73 615.13 1167.62 616.601 1166.12C616.798 1162.4 614.941 1158.4 613.78 1154.89L604.824 1155.16C602.643 1155.09 598.678 1154.51 596.937 1155.94C595.141 1157.42 593.631 1160.34 593.674 1162.68C593.73 1165.78 595.946 1167.36 598.087 1169.22L598.858 1169.88L598.677 1170.74C592.453 1172.2 585.517 1172 579.146 1172.15C581.64 1170.44 584.696 1169.4 586.751 1167.12C595.429 1157.48 602.105 1132.75 609.547 1120.19Z"/>
      <path id="A_4_A" class="c_03" d="M606.386 1133.7C609.105 1137.57 611.262 1146.37 612.08 1151.15C609.521 1152.05 606.471 1151.79 603.758 1151.86C602.179 1151.96 601.032 1152.13 599.545 1151.49C598.375 1147.2 604.509 1137.63 606.386 1133.7Z"/>
      <path id="0-" class="c_01" d="M635.785 1151.3C641.492 1151.25 648.989 1149.38 654.203 1151.85C655.12 1153.76 654.674 1154.72 654.358 1156.78C648.489 1156.84 642.007 1158.73 636.41 1156.6C635.083 1154.74 635.617 1153.53 635.785 1151.3Z"/>
      <path id="T_5" class="c_01" d="M660.557 1122.17C673.867 1122 687.178 1122.03 700.486 1122.24C700.728 1129.31 701.454 1136.74 700.525 1143.77C699.355 1141.43 698.569 1139.15 697.825 1136.65C696.42 1131.95 694.488 1126.76 689.928 1124.29C688.437 1124.49 688.069 1124.48 687.062 1125.73C683.454 1130.19 684.371 1156.96 684.898 1163.63C686.373 1165.21 687.792 1165.23 689.859 1165.76L691.077 1165.45L691.829 1166.28L691.112 1167.36C686.16 1169.21 673.408 1168.49 667.876 1167.75L667.322 1166.84C668.52 1164.96 672.258 1165.3 674.347 1163.81C674.593 1162.84 674.805 1161.97 674.906 1160.97C675.506 1155.06 677.06 1129.16 673.545 1125.46C672.737 1124.61 672.225 1124.86 671.147 1124.82C664.264 1128.33 662.419 1137.37 659.726 1143.95C659.11 1136.72 659.712 1129.37 660.557 1122.17Z"/>
      <path id="E_6" class="c_01" d="M705.712 1122.11C719.074 1122.01 732.464 1122.37 745.826 1122.53C746.157 1127.56 747.193 1133.73 746.064 1138.66C743.734 1138.07 740.753 1129.09 738.401 1126.84C735.351 1123.91 726.706 1125.12 722.74 1125.21C722.644 1128.95 722.342 1132.91 722.64 1136.63C722.859 1139.37 723.657 1141.6 725.803 1143.32L727.583 1143.08C732.384 1139.74 733.188 1135.87 735.45 1130.75C736.523 1140.29 736.418 1150.72 735.683 1160.29C733.693 1156.49 733.583 1151.08 730.492 1148.04C728.442 1146.03 725.71 1146.11 723.046 1146.06C723.201 1150.75 721.682 1161.37 724.479 1164.94C728.493 1166.13 733.917 1166.42 737.885 1164.87C744.539 1162.27 745.517 1153.34 748.077 1147.47C749.195 1154.56 748.369 1162.36 748.19 1169.53C736.263 1169.03 718.818 1169.77 707.621 1167.49L706.901 1166.3C707.918 1164.36 710.485 1165.17 712.579 1164.33C713.061 1163.51 713.255 1162.89 713.36 1161.94C713.965 1156.49 714.208 1128.54 711.561 1125.35C709.647 1125.2 707.982 1125.17 706.27 1124.19L705.712 1122.11Z"/>
      <path id="N_7" class="c_01" d="M782.907 1122.14C788.95 1121.66 796.139 1121.15 802.11 1122.18C802.7 1124.11 796.686 1128.72 796.602 1132.04C796.398 1140.2 800.605 1165.27 798.598 1171.24L796.942 1171.39C794.117 1169.92 792.501 1167.09 790.663 1164.58C782.352 1153.66 773.841 1142.9 765.135 1132.29C765.696 1139.88 764.585 1155.62 767.872 1161.9C769.299 1164.63 771.069 1166.77 774.068 1167.73C775.928 1168.32 777.689 1169 779.493 1169.75C773.438 1170.54 762.775 1171.41 757.048 1169.09L756.994 1168.17C758.843 1166.88 762.026 1165.06 763.094 1163.04C764.599 1160.19 762.874 1134.04 761.89 1130.68C760.93 1127.41 758.349 1126 755.607 1124.4C754.465 1123.74 754.909 1124.22 754.316 1123.05C757.334 1122.04 760.489 1122.2 763.64 1122.13L766.975 1122.15C773.464 1125.58 789.845 1149.15 795.196 1156.14C794.447 1149.03 795.511 1140.57 793.923 1133.83C792.276 1126.84 788.472 1125.54 782.907 1122.14Z"/>
      <path id="G_8" class="c_01" d="M845.145 1118.04C845.75 1118.49 846.177 1119.14 846.65 1119.72C847.859 1125.68 849.769 1132.74 848.922 1138.83C846.868 1138.09 844.212 1132.42 842.846 1130.42C840.432 1126.89 836.898 1123.24 832.44 1122.65C830.042 1122.31 827.614 1123.01 825.761 1124.57C822.402 1127.44 821.15 1132.53 820.785 1136.74C820.021 1145.56 821.469 1159.38 827.4 1166.24C829.291 1168.42 831.674 1169.98 834.61 1170.16C837.154 1170.31 839.848 1169.54 841.734 1167.8C843.815 1165.87 844.58 1161.69 844.702 1159.02C844.831 1156.18 844.57 1154 842.595 1151.85C840.804 1151.54 839.123 1151.49 837.316 1151.49C836.064 1150.22 836.4 1150.99 836.367 1149.14C839.05 1147.42 852.669 1147.65 856.842 1147.35L858.359 1148.37L858.368 1149.65C856.755 1150.54 855.111 1151.32 853.445 1152.1C852.368 1158.61 856.179 1166.01 854.652 1172.54L853.569 1172.58C851.233 1170.5 849.915 1167.48 848.427 1164.77C846.003 1168.06 843.733 1170.84 839.785 1172.32C834.964 1174.12 830.116 1173.65 825.522 1171.41C819.095 1168.28 814.4 1162.26 812.074 1155.58C809.43 1148 809.086 1138.46 812.869 1131.21C815.574 1126.03 820.733 1121.6 826.376 1119.97C832.752 1118.14 836.744 1120.7 842.258 1123.56C843.359 1121.79 844.234 1119.91 845.145 1118.04Z"/>
      <path id="A_9" class="c_01" d="M880.011 1115.65C880.941 1115.78 881.944 1115.71 882.681 1116.35C889.476 1122.25 902.292 1158.44 907.779 1162.17C909.201 1163.14 911.135 1163.08 912.719 1164.32L912.402 1165.74C908.1 1167.46 896.135 1169.56 891.801 1168.34L891.483 1167.05C892.4 1165.58 892.912 1164.89 894.524 1164.16C896.292 1163.37 895.525 1164.04 896.625 1162.47C895.88 1158.77 893.338 1155.14 891.533 1151.84L874.518 1153.76C873.884 1156.76 872.259 1161.48 874.062 1164.27C875.998 1167.26 882.13 1167.98 885.324 1168.99C879.223 1170.46 871.085 1172.06 864.895 1171.23L864.349 1170.28C866.369 1167.42 869.084 1164.13 870.207 1160.82C871.473 1157.09 871.8 1152.33 872.591 1148.43C874.804 1137.51 877.026 1126.37 880.011 1115.65Z"/>
      <path id="A_9_A" class="c_03" d="M879.904 1130.19C883.66 1134.5 887.011 1142.44 889.176 1147.8C888.016 1149.12 885.421 1149.02 883.681 1149.29L875.515 1150.01C876.876 1143.38 878.339 1136.77 879.904 1130.19Z"/>
      <path id="H_10" class="c_01" d="M951.601 1108.59C953.467 1108.29 954.425 1108.22 956.283 1108.8C955.954 1110.73 953.042 1111.45 951.853 1112.95C951.177 1113.81 951.377 1114.07 951.482 1115.04C951.935 1119.2 957.401 1149.38 958.79 1151.31C959.107 1151.75 959.638 1151.99 960.062 1152.32C961.729 1152.44 963.23 1152.54 964.846 1152.99L965.034 1154.19C961.142 1156.35 949.593 1159.74 945.278 1159.18C944.321 1159.06 944.581 1158.99 943.922 1158.07C944.984 1156.79 946.654 1156.25 948.134 1155.52C950.214 1151.23 946.634 1140.16 945.647 1135.42L928.446 1138.54C929.062 1141.1 931.143 1156.77 932.696 1157.85C934.274 1158.95 937.012 1157.99 938.883 1159.67L938.165 1160.88C934.557 1162.55 929.453 1163.07 925.505 1163.89C922.692 1164.54 920.283 1165.49 917.502 1164.61L917.502 1163.77C918.627 1162.39 920.477 1161.4 921.946 1160.37C922.317 1159.22 922.376 1159.44 922.327 1158.4C922.15 1154.61 915.88 1120.8 914.838 1119.1C914.525 1118.59 913.937 1118.31 913.486 1117.92C911.595 1117.67 910.353 1117.7 908.758 1116.56L909.173 1114.95C913.714 1113.59 924.524 1110.93 928.884 1112.04L929.499 1113.34L928.984 1114.6C927.357 1115.03 926.204 1115.25 924.891 1116.36C924.089 1121.61 926.597 1129.02 927.685 1134.33L944.768 1131.37C944.302 1128.6 942.708 1115.07 940.646 1114.05C938.696 1113.09 936.43 1113.82 935.026 1111.89C937.303 1109.23 947.715 1109.06 951.601 1108.59Z"/>
    </g>
    <path id="merah_bawah" class="c_05" d="M272.12 1102.84L272.404 1103.4C267.922 1109.04 264.871 1114.6 264.129 1121.93C263.155 1131.55 266.433 1141.43 272.476 1148.91C290.762 1171.54 321.931 1160.72 346.394 1160.9C364.66 1161.04 383.811 1166.12 399.937 1174.69C427.027 1189.09 452.073 1215.74 484.074 1218.27C520.024 1221.12 548.998 1193.37 584.396 1192.19C620.002 1191 652.735 1212.29 688.087 1215.24C730.882 1218.82 768.401 1192.33 810.322 1192.15C843.16 1192.01 869.787 1214.42 901.761 1217.86C940.748 1222.05 966.193 1191.37 997.607 1174.65C1010.84 1167.61 1026.35 1162.91 1041.27 1161.45C1066.49 1158.96 1098.68 1171.75 1120.13 1153.75C1127.99 1147.17 1133.01 1136.99 1133.56 1126.77C1134.1 1116.86 1130.48 1109.56 1123.92 1102.49C1134.65 1104.91 1145.93 1108.37 1154.56 1115.48C1161.07 1120.85 1165.61 1127.89 1166.36 1136.44C1168.25 1158.01 1151.31 1168.95 1139.38 1183.43L1138.76 1184.19C1136.31 1187.54 1133.99 1190.87 1132.08 1194.55C1121.86 1214.27 1123.67 1235.64 1130.11 1256.19C1117.61 1252.39 1105.43 1247.39 1093.12 1243C1069.18 1234.45 1044.1 1227.27 1018.7 1225.03C960.383 1219.87 915.137 1257.68 855.635 1253.68C816.558 1251.05 785.13 1235.54 748.032 1226.83C725.679 1221.59 701.842 1220.75 678.953 1222.34C625.909 1226.02 583.704 1255.42 527.421 1254.03C477.592 1252.81 434.093 1221.46 383.861 1224.63C356.638 1226.35 329.779 1233.98 304.195 1243.08C291.923 1247.44 279.8 1252.52 267.279 1256.12C276.009 1231.41 275.025 1203.05 257.224 1182.55C247.865 1171.77 236.983 1163.63 232.585 1149.41C229.948 1140.88 230.74 1131.82 235.166 1124.03C242.395 1111.31 258.901 1106.16 272.12 1102.84Z"/>
    <g id="banner">
      <path class="c_04" d="M189.071 1181.33C194.707 1187.44 198.692 1195.85 204.138 1202.34C219.73 1220.93 239.426 1234.4 260.061 1246.71C258.489 1252.04 256.679 1257.15 254.57 1262.3L225.882 1274.6L225.903 1348.08L225.857 1356.95C199.699 1338.63 180.033 1319.56 162.636 1292.45C178.615 1255.87 188.068 1221.44 189.071 1181.33Z"/>
      <path class="c_04" d="M1208.26 1181.28C1209.06 1189.98 1208.78 1198.71 1209.76 1207.42C1213.07 1236.84 1222.61 1265.53 1234.84 1292.36C1218.63 1318.28 1197.98 1339.1 1172.65 1356.05L1171.83 1355.61L1171.71 1350.74L1171.69 1274.71C1162.12 1270.54 1152.53 1266.42 1142.91 1262.36C1140.74 1257.26 1139.03 1252.09 1137.36 1246.81C1168.19 1228.45 1188.2 1211.74 1208.26 1181.28Z"/>
      <path class="c_04" d="M338.974 1357.09C340.879 1359.57 339.853 1434.87 339.845 1443.82C313.04 1438.71 288.813 1431.31 264.897 1417.66C254.768 1411.75 245.702 1404.55 237.113 1396.6C270.175 1380.52 303.597 1367.14 338.974 1357.09Z"/>
      <path class="c_04" d="M1057.49 1356.82C1093.15 1366.48 1127.13 1380.44 1160.27 1396.65C1152.06 1404.67 1142.8 1411.2 1133.14 1417.33C1109.14 1431.29 1084.53 1438.56 1057.51 1443.82L1057.49 1356.82Z"/> 
      <path class="c_04" d="M679.016 1231.51C685.521 1230.69 692.631 1230.94 699.191 1230.95C713.529 1230.97 727.502 1231.84 741.586 1234.8C760.889 1238.85 779.455 1245.89 798.253 1251.74C820.014 1258.52 842.856 1263.1 865.716 1263.23C895.311 1263.4 922.617 1253.67 950.334 1244.65C963.348 1240.41 976.439 1236.24 990.062 1234.47C1001.2 1233.01 1012.29 1233.41 1023.42 1234.73C1071.54 1240.44 1118.49 1261.62 1162.53 1280.89L1162.53 1387.43C1121.94 1367.15 1049.35 1337.39 1003.4 1339.4C984.427 1340.24 965.802 1346.3 947.799 1351.88C921.186 1360.13 892.49 1370.1 864.259 1369.55C814.411 1368.57 768.185 1343.58 718.505 1339.39C698.514 1338.68 678.027 1338.43 658.286 1341.98C617.538 1349.32 579.071 1366.7 537.385 1369.38C511.939 1371.02 485.254 1362.96 461.177 1355.45C440.22 1348.92 418.713 1341.23 396.683 1339.56C350.459 1336.06 275.979 1367.65 234.83 1387.41L234.758 1280.93C281.636 1260.58 348.206 1230.36 399.982 1233.72C416.366 1234.78 432.071 1239.73 447.579 1244.79C476.309 1254.15 504.34 1264.07 535.061 1263.19C554.9 1262.44 574.563 1259.16 593.573 1253.43C622.332 1245.07 648.843 1234.13 679.016 1231.51Z"/>
      <path id="01_P" class="c_01" d="M279.865 1292.38C281.306 1292.32 283.019 1292.2 284.353 1292.87C285.881 1293.63 287.023 1295.1 287.655 1296.65C289.301 1300.7 288.105 1305.79 286.548 1309.68C283.561 1317.13 278.419 1320.01 271.512 1323.04C271.545 1328.12 272.342 1334.4 271.348 1339.32C271.047 1340.81 270.871 1340.57 269.691 1341.35L262.123 1344.53L262.109 1299.16C267.923 1296.7 273.735 1293.95 279.865 1292.38Z"/>
      <path id="01_P_A" class="c_04" d="M272.811 1301.97C274.395 1301.95 275.478 1301.93 276.945 1302.57C277.653 1303.45 278.318 1304.24 278.459 1305.42C278.813 1308.36 277.165 1311.2 275.306 1313.31L272.807 1314.07C271.68 1313.12 271.491 1312.77 271.249 1311.32C270.788 1308.55 271.218 1304.25 272.811 1301.97Z"/>
      <path id="02_R" class="c_01" d="M311.619 1281.1C313.326 1281.42 314.748 1281.95 316.029 1283.16C322.703 1289.46 313.69 1298.98 314.246 1302.36C314.382 1303.19 317.085 1304.45 317.487 1305.86C318.924 1310.88 318.382 1317.95 318.724 1323.26L308.439 1326.98C308.447 1322.75 309.279 1314.08 306.565 1310.72C305.94 1309.94 305.26 1310.05 304.352 1309.88C303.236 1310.63 302.385 1311.4 301.455 1312.37L301.489 1329.4L291.855 1332.68L291.842 1287.37C298.272 1285.08 304.883 1282.25 311.619 1281.1Z"/>
      <path id="02_R_A" class="c_04" d="M306.101 1290.81C306.964 1291.38 307.477 1291.97 308.162 1292.73C308.584 1294.32 308.86 1295.28 308.56 1296.94C308.006 1299.99 305.798 1301.64 303.324 1303.17L302.107 1302.67C301.699 1301.99 301.601 1301.91 301.354 1301.02C300.622 1298.39 301.001 1295.02 302.244 1292.6C302.903 1291.32 304.764 1291.21 306.101 1290.81Z"/>    
      <path id="03_A" class="c_01" d="M340.593 1271.77L341.99 1272.04C345.406 1279.78 349.311 1303.97 351.504 1314.13L341.4 1317.03L340.066 1308.57C337.897 1309.07 335.664 1309.5 333.623 1310.41C332.122 1311.08 332.664 1310.58 332.013 1312.2C331.834 1314.04 331.804 1316.66 330.978 1318.29C329.489 1321.23 323.811 1321.97 320.852 1322.72C324.081 1306.73 327.164 1290.72 330.1 1274.67L340.593 1271.77Z"/>
      <path id="03_A_A" class="c_04" d="M336.071 1283.52C337.6 1287.63 339.503 1296.01 338.366 1300.36C338.047 1301.57 336.761 1301.95 335.758 1302.59L334.211 1302.08C332.404 1298 335.241 1288.08 336.071 1283.52Z"/>
      <path id="04_S" class="c_01" d="M366.445 1264.65C369.152 1264.51 372.485 1264.66 374.766 1266.32C378.413 1268.97 378.847 1273.14 379.594 1277.26C375.905 1278.09 373.569 1279.1 370.14 1277.25C369.457 1275.77 368.97 1274.6 367.812 1273.42C365.85 1273.32 365.591 1273.29 363.904 1274.26C363.028 1276.17 363.009 1276.51 363.228 1278.6C364.637 1281.22 368.025 1282.52 370.519 1283.98C374.32 1286.2 378.304 1288.33 379.329 1292.98C380.187 1296.87 378.828 1303.09 376.621 1306.33C373.758 1310.54 368.69 1311.94 363.981 1312.85C361.552 1312.64 359.092 1312.51 357.006 1311.12C354.831 1309.66 353.135 1307.24 352.663 1304.65C352.342 1302.88 352.637 1300.93 353.829 1299.52C355.699 1297.31 358.642 1297.21 361.304 1297.14L362.129 1297.93C362.301 1299.8 362.558 1301.44 363.043 1303.26C364.677 1304.37 364.922 1304.21 366.929 1304.1C367.977 1303.4 368.635 1303.18 369.235 1302.02C373.306 1294.18 355.715 1291.64 353.328 1283.38C352.262 1279.69 353.223 1275.93 355.129 1272.68C357.998 1267.8 361.12 1266.14 366.445 1264.65Z"/>
      <path id="05_E" class="c_01" d="M384.246 1263.32C392.03 1263.87 399.896 1263.96 407.697 1264.24L407.714 1273.26L394.384 1272.89L394.372 1281.3L407.263 1281.71L407.256 1290.87C405.055 1290.77 402.836 1290.6 400.638 1290.44C398.429 1290.28 397.274 1290.01 395.285 1291.25C393.792 1293.38 394.284 1296.23 394.377 1298.72L395.066 1299.9C399.299 1300.87 404.175 1300.66 408.524 1300.83L408.521 1309.82L384.195 1308.9L384.246 1263.32Z"/>
      <path id="06_T" class="c_01" d="M411.991 1264.97L437.903 1271.65C437.939 1274.43 438.339 1277.25 436.924 1279.66C434.732 1280.38 431.982 1279.17 429.813 1278.53L429.817 1304.74L429.83 1314.98L419.857 1312.39L419.875 1275.97L411.985 1273.92L411.991 1264.97Z"/>
      <path id="07_Y" class="c_01" d="M439.593 1272.21L449.396 1275.41L454.383 1292.42L459.472 1278.92C462.741 1279.93 465.978 1281.06 469.224 1282.14C466.188 1289.39 462.867 1296.53 459.667 1303.71C458.066 1309.84 459.028 1317.78 459.083 1324.12L449.384 1320.83C449.749 1298.96 446.204 1292.3 439.593 1272.21Z"/>
      <path id="08_A" class="c_01" d="M477.041 1284.26L489.142 1287.71C491.278 1303.66 495.127 1319.76 498.145 1335.6C495.679 1334.95 492.135 1334.47 489.905 1333.28C488.053 1332.29 488.166 1331.76 487.715 1329.84C487.576 1327.9 487.398 1326.47 486.711 1324.62C484.809 1322.46 481.659 1322.16 478.973 1321.51C478.484 1324.32 478.204 1327.2 477.845 1330.03L467.699 1327.16C470.711 1312.84 473.826 1298.54 477.041 1284.26Z"/>
      <path id="08_A_A" class="c_04" d="M482.806 1296.76C484.255 1301.54 485.352 1307.95 485.324 1312.96C485.314 1314.6 485.291 1314.24 484.275 1315.28C483.287 1314.9 481.453 1314.55 480.992 1313.57C479.132 1309.59 481.875 1301.05 482.806 1296.76Z"/>
      <path id="09_U" class="c_01" d="M532.811 1293.29C536.24 1293.2 539.588 1293.21 543.015 1293.4C542.906 1302.19 545.219 1328.81 540.458 1335C538.045 1338.14 533.94 1339.71 530.082 1339.96C525.995 1340.22 521.527 1339.33 518.497 1336.39C513.38 1331.43 515.104 1318.35 515.202 1311.72L515.193 1293.68L525.578 1293.56C525.478 1303.22 525.076 1312.99 525.414 1322.63C525.532 1326.02 525.78 1329.28 528.352 1331.66C529.937 1331.58 530.159 1331.54 531.457 1330.63C534.641 1323.32 532.702 1302.32 532.811 1293.29Z"/>
      <path id="10_L" class="c_01" d="M557.124 1291.89L557.811 1291.95C559.628 1294.97 558.504 1322.6 558.494 1328.12L570.952 1325.97L571.121 1335.16L562.031 1336.54C557.462 1337.11 552.867 1338.08 548.323 1338.86L548.335 1293.26C551.253 1292.75 554.196 1292.34 557.124 1291.89Z"/>
      <path id="11_A" class="c_01" d="M592.447 1283.92C594.797 1285.57 601.178 1320.59 602.409 1326.4L592.289 1329.27L590.976 1320.86C588.785 1321.54 585.524 1322.04 583.716 1323.42C582.915 1324.03 583.053 1324.72 582.892 1325.64C582.765 1327.9 582.629 1329.53 581.628 1331.58C579.136 1334 575.288 1334.51 572.005 1335.38L581.188 1287.15L592.447 1283.92Z"/>
      <path id="11_A_A" class="c_04" d="M587.021 1296.33C588.646 1300.33 589.459 1306.15 589.601 1310.48C589.676 1312.75 589.28 1313.25 587.789 1314.94L585.749 1314.5C583.312 1310.85 586.218 1300.73 587.021 1296.33Z"/>
      <path id="12_H" class="c_01" d="M630.241 1271.73C630.695 1271.79 631.077 1272.11 631.482 1272.32C633.093 1284.65 631.789 1303.74 631.764 1316.72L622.083 1320.05L622.058 1301.01C620.184 1301.59 618.587 1302.17 616.856 1303.08C613.515 1307.74 615.257 1316.69 615.299 1322.28L607.713 1324.91L606.254 1324.99C604.091 1321.96 605.324 1286.28 605.345 1280.08L615.297 1276.7L615.28 1294.23C617.061 1293.72 618.669 1293.13 620.371 1292.4C622.303 1290.08 622.636 1287.85 622.396 1284.91C622.111 1281.42 622.115 1277.93 622.085 1274.43L630.241 1271.73Z"/>
      <path id="13_S" class="c_01" d="M663.452 1262.51C664.573 1262.48 665.718 1262.43 666.837 1262.54C669.885 1262.84 672.356 1264.77 674.15 1267.14C675.566 1269.02 675.941 1270.58 675.586 1272.93C674.921 1274.09 674.496 1274.68 673.322 1275.39C671.506 1276.5 668.879 1276.82 666.908 1276.22L665.754 1272.25C664.416 1271.12 664.103 1270.98 662.23 1271.19C660.372 1271.4 659.528 1271.97 658.555 1273.48C660.132 1281.46 673.389 1281.99 675.958 1290.65C677.111 1294.54 676.206 1298.8 674.101 1302.2C670.748 1307.6 666.752 1309.46 660.79 1310.87C658.113 1310.79 654.425 1310.34 652.398 1308.37C649.103 1305.17 649.51 1300.72 649.518 1296.49C652.012 1296.06 655.269 1295.1 657.76 1295.46C659.045 1295.65 659.391 1300.45 660.388 1301.89C661.09 1302.9 661.317 1302.68 662.453 1302.9C664.095 1302.05 664.855 1301.27 665.988 1299.82C666.305 1298.59 666.703 1297.4 666.341 1296.12C665.53 1293.25 662.423 1292.13 660.033 1290.92C655.702 1288.74 651.808 1286.2 650.382 1281.28C649.34 1277.68 649.969 1273.82 651.782 1270.58C654.508 1265.71 658.274 1263.94 663.452 1262.51Z"/>
      <path id="14_A" class="c_01" d="M687.527 1261.36L700.111 1261.15C702.73 1276.3 706.363 1291.43 709.618 1306.47L699.113 1306.57C698.629 1303.95 698.395 1301.26 698.065 1298.61C695.867 1297.34 692.078 1297.94 689.598 1298.03L688.245 1306.73L677.966 1307.06C680.88 1291.79 684.337 1276.58 687.527 1261.36Z"/>
      <path id="14_A_A" class="c_04" d="M693.563 1271.47C695.033 1276.23 696.84 1283.84 696.105 1288.81C695.916 1290.09 695.031 1290.36 694.075 1291.11L691.798 1290.06C689.662 1286.73 692.81 1275.49 693.563 1271.47Z"/>
      <path id="15_K" class="c_01" d="M712.727 1260.69L723.024 1261.98C722.981 1267.88 723.056 1273.79 723.074 1279.69C725.891 1274.32 728.142 1268.51 730.593 1262.96L741.15 1264.13C738.136 1270.46 734.957 1276.74 731.86 1283.03L738.224 1300.35L741.81 1309.72C738.178 1309.35 734.547 1308.85 730.922 1308.4C729.79 1304.77 728.138 1296.24 724.755 1294.14C722.012 1297.15 722.924 1303.62 722.972 1307.5C719.572 1306.95 716.148 1306.62 712.723 1306.26L712.727 1260.69Z"/>
      <path id="16_T" class="c_01" d="M744.01 1265C752.666 1267.39 761.264 1270.03 769.876 1272.57L769.804 1281.61L761.733 1279.25L761.723 1304.03L761.724 1315.67L751.825 1312.68L751.849 1276.35L744.026 1273.96L744.01 1265Z"/>
      <path id="17_I" class="c_01" d="M773.836 1274.06C777.15 1274.93 780.476 1276.16 783.745 1277.2L783.74 1322.71L773.843 1319.48L773.836 1274.06Z"/>
      <path id="18_B" class="c_01" d="M802.753 1283.43C809.969 1285.19 819.373 1286.54 825.04 1291.57C827.635 1293.87 829.177 1296.9 829.378 1300.38C829.551 1303.38 829.342 1305.77 827.221 1308C826.958 1308.27 825.015 1310.33 825.015 1310.5C825.019 1311.48 828.766 1315.22 829.254 1316.78C830.334 1320.23 829.738 1324.24 829.322 1327.76C828.5 1329.25 827.618 1330.89 826.132 1331.81C820.451 1335.31 808.669 1330.5 802.708 1328.85L802.753 1283.43Z"/>
      <path id="18_B_A" class="c_04" d="M812.729 1311.88C814.622 1312.56 817.163 1313.42 818.486 1315C820.581 1317.5 819.721 1321.03 819.353 1323.97C819.149 1324 818.947 1324.05 818.742 1324.07C816.515 1324.33 815.024 1324.06 813.294 1322.65C811.957 1319.39 812.597 1315.36 812.729 1311.88Z"/>
      <path id="18_B_B" class="c_04" d="M812.733 1294.03C815.063 1294.88 816.794 1295.43 818.462 1297.32C819.449 1299.69 819.114 1301.62 818.846 1304.12C816.583 1304.48 815.199 1304.61 813.268 1303.39C812.008 1300.7 812.62 1296.96 812.733 1294.03Z"/>
      <path id="19_H" class="c_01" d="M834.784 1290.8C838.188 1291.3 841.648 1291.5 845.076 1291.79C844.972 1295.55 844.488 1300.12 845.094 1303.81C845.574 1306.74 846.341 1309.48 848.769 1311.33C849.319 1310.95 849.739 1310.71 850.158 1310.13C853.28 1305.84 852.296 1297.91 852.209 1292.8L862.506 1293.88C862.503 1309.02 863.066 1324.36 862.292 1339.47C858.935 1338.92 855.557 1338.63 852.173 1338.31C852.224 1331.55 853.221 1324.23 849.648 1318.15L847.121 1318.18C843.941 1323.58 844.91 1331.29 845.026 1337.38C841.602 1337.12 838.182 1336.62 834.774 1336.2L834.784 1290.8Z"/>
      <path id="20_A" class="c_01" d="M886.549 1292.64C889.017 1294.52 895.985 1332.09 897.025 1336.9L886.541 1337.99L885.149 1329.26L877.042 1330.3L875.883 1339.06L865.58 1340.19L875.043 1293.85L886.549 1292.64Z"/>
      <path id="20_A_A" class="c_04" d="M881.199 1303.46C882.49 1308.24 884.415 1315.46 883.541 1320.4C883.305 1321.74 882.116 1322.01 881.047 1322.7L879.291 1321.99C877.316 1317.86 880.221 1308.06 881.199 1303.46Z"/>
      <path id="21_K" class="c_01" d="M926.995 1282.55C927.476 1286.98 920.775 1300.08 918.836 1304.73L928.468 1327.56L918.01 1330.51C916.344 1326.15 914.827 1321.58 912.62 1317.46L911.822 1317.46C909.958 1321.8 910.113 1327.36 910.038 1332.04C908.552 1333.44 906.59 1333.65 904.65 1334.17C903.108 1334.66 902.258 1334.94 900.661 1334.57C898.886 1327.14 900.228 1299.28 900.263 1289.9L910.224 1287.1L910.239 1305.45L917.808 1284.99L926.995 1282.55Z"/>
      <path id="22_T" class="c_01" d="M954.394 1273.13L955.473 1273.41C956.458 1275.85 956.001 1279.08 955.941 1281.68L947.92 1284.33L947.954 1320.77L938.217 1323.91L938.256 1317.3L938.255 1287.61C936.07 1288.44 933.745 1289.65 931.372 1289.26C929.987 1286.76 930.477 1283.93 930.465 1281.1C938.494 1278.69 946.441 1275.8 954.394 1273.13Z"/>
      <path id="23_I" class="c_01" d="M968.534 1268.95L968.967 1269.04C969.238 1269.32 969.598 1269.53 969.781 1269.87C970.258 1270.76 969.792 1309.66 969.793 1314L961.474 1316.52L960.668 1316.41C958.689 1313.72 959.784 1277.56 959.791 1271.49L968.534 1268.95Z"/>
      <path id="24_P" class="c_01" d="M990.466 1263.43C997.494 1263.65 1008.7 1262.42 1014.44 1267.02C1017.24 1269.27 1018.54 1272.93 1018.67 1276.43C1018.81 1280.63 1017.41 1284.88 1014.38 1287.84C1010.27 1291.88 1005.93 1291.56 1000.57 1291.56L1000.58 1309.03L990.378 1308.81L990.466 1263.43Z"/>
      <path id="24_P_A" class="c_04" d="M1000.59 1271.46C1002.85 1271.74 1004.4 1272.02 1006.38 1273.17C1008.45 1276.5 1007.66 1278.9 1006.9 1282.59C1004.65 1282.96 1003.56 1283.38 1001.39 1282.59C999.575 1279.83 1000.47 1274.73 1000.59 1271.46Z"/>
      <path id="25_R" class="c_01" d="M1022.37 1264.43C1029.21 1265.84 1038.95 1266.61 1044.63 1270.87C1047.71 1273.18 1049.4 1276.41 1049.74 1280.23C1050.07 1284.07 1049.68 1286.72 1047.17 1289.66C1046.34 1290.63 1045.75 1291.01 1045.47 1292.27C1051.63 1299.32 1048.81 1306.19 1050.58 1314.73C1050.64 1315.02 1050.7 1315.31 1050.77 1315.6L1039.88 1313.38C1038.77 1307.42 1040.46 1302.02 1037.94 1296.19C1036.39 1295.01 1036.16 1294.89 1034.23 1294.7L1033.03 1295.76C1031.34 1300.56 1032.3 1306.96 1032.41 1312.01L1022.37 1309.89L1022.37 1264.43Z"/>
      <path id="25_R_A" class="c_04" d="M1032.4 1274.64C1034.29 1275.07 1036.93 1275.79 1038.27 1277.27C1040.4 1279.64 1039.45 1283.45 1039.12 1286.31C1037.01 1286.5 1035.5 1286.74 1033.54 1285.74C1031.44 1282.82 1032.28 1278.11 1032.4 1274.64Z"/>
      <path id="26_A" class="c_01" d="M1061.85 1272.96L1073.9 1276.51C1076.09 1292.57 1079.87 1308.75 1082.9 1324.69C1080.25 1323.96 1077.17 1323.37 1074.71 1322.16C1072.96 1321.31 1073.06 1320.89 1072.53 1319.12C1072.37 1316.99 1072.14 1315.33 1071.34 1313.34C1069.51 1311.3 1066.43 1310.83 1063.88 1310.09C1063.35 1312.88 1063.01 1315.72 1062.6 1318.54L1052.48 1315.71L1061.85 1272.96Z"/>
      <path id="26_A_A" class="c_04" d="M1067.57 1285.49C1067.85 1286.18 1067.9 1286.25 1068.12 1287.09C1069.01 1290.48 1071.27 1301.37 1069.59 1304.11C1068.46 1303.67 1067.32 1303.23 1066.2 1302.78C1063.71 1298.68 1066.57 1289.99 1067.57 1285.49Z"/>
      <path id="27_J" class="c_01" d="M1096.01 1283.93L1105.44 1287.37C1105.3 1296.68 1107.81 1320.37 1103.76 1327.57C1102.82 1329.22 1101.38 1330.47 1099.47 1330.82C1095.19 1331.6 1090.7 1327.85 1087.67 1325.34C1084.03 1320.19 1083.96 1315.61 1083.88 1309.55C1086.16 1310.4 1088.42 1311.3 1090.67 1312.25C1092.12 1314.45 1091.26 1317.24 1091.69 1319.88C1093.03 1320.97 1093.22 1321.3 1094.91 1321.42C1097.3 1317.23 1094.61 1292.64 1095.8 1285.2C1095.86 1284.78 1095.94 1284.36 1096.01 1283.93Z"/>
      <path id="28_A" class="c_01" d="M1117.24 1292.22L1128.74 1297.06L1137.64 1346.13C1135.01 1345.1 1132.06 1344.17 1129.63 1342.74C1128.05 1341.81 1128.1 1341.61 1127.73 1339.91C1127.46 1337.83 1127.13 1335.88 1126.59 1333.85C1124.82 1331.33 1121.88 1330.66 1119.11 1329.61C1118.65 1332.36 1118.37 1335.15 1118 1337.92L1108.24 1333.79L1117.24 1292.22Z"/>
      <path id="28_A_A" class="c_04" d="M1122.8 1304.89C1123.88 1309.35 1126.61 1320.23 1124.45 1324.1L1121.41 1322.5C1119.13 1318.15 1121.88 1309.64 1122.8 1304.89Z"/>
    </g>   
  </g>  
</svg>